<svg width="16" height="16" viewBox="0 0 16 16" fill="none" xmlns="http://www.w3.org/2000/svg">
<path d="M8 16C5.79167 16 3.90625 15.2187 2.34375 13.6562C0.78125 12.0937 0 10.2083 0 8C0 5.91667 0.703125 4.11458 2.10938 2.59375C3.51563 1.07292 5.26042 0.229166 7.34375 0.0624998V-2.38419e-07H8.65625V0.0624998C10.5938 0.229166 12.2552 1 13.6406 2.375C15.026 3.75 15.7917 5.40625 15.9375 7.34375H16V8.65625H15.9375C15.7708 10.7396 14.9271 12.4844 13.4063 13.8906C11.8854 15.2969 10.0833 16 8 16ZM8.65625 14.5937C9.94792 14.4687 11.125 13.9792 12.1875 13.125L10.8125 11.7187C10.2083 12.1771 9.48958 12.4687 8.65625 12.5937V14.5937ZM7.34375 14.5937V12.5937C6.61458 12.5312 5.89583 12.2396 5.1875 11.7187L3.8125 13.125C4.79167 13.9792 5.96875 14.4687 7.34375 14.5937ZM2.875 12.1875L4.28125 10.8125C3.76042 10.1042 3.46875 9.38542 3.40625 8.65625H1.40625C1.46875 9.96875 1.95833 11.1458 2.875 12.1875ZM1.40625 7.34375H3.40625C3.53125 6.65625 3.79167 5.98958 4.1875 5.34375L2.59375 4.125C1.86458 5.16667 1.46875 6.23958 1.40625 7.34375ZM7.34375 1.40625C5.92708 1.53125 4.63542 2.10417 3.46875 3.125L5.0625 4.34375C5.6875 3.84375 6.42708 3.53125 7.28125 3.40625V1.40625H7.34375ZM8 4.65625C7.0625 4.65625 6.27083 4.97917 5.625 5.625C4.97917 6.27083 4.65625 7.0625 4.65625 8C4.65625 8.9375 4.97917 9.72917 5.625 10.375C6.27083 11.0208 7.0625 11.3437 8 11.3437C8.9375 11.3437 9.72917 11.0208 10.375 10.375C11.0208 9.72917 11.3438 8.9375 11.3438 8C11.3438 7.0625 11.0208 6.27083 10.375 5.625C9.72917 4.97917 8.9375 4.65625 8 4.65625ZM8.65625 1.40625V3.40625C9.86458 3.53125 10.8229 4.0625 11.5313 5L13.125 3.8125C11.9583 2.33333 10.4688 1.53125 8.65625 1.40625ZM13.9375 4.9375L12.3438 6.125C12.5104 6.66667 12.6146 7.07292 12.6563 7.34375H14.6563C14.5313 6.48958 14.2917 5.6875 13.9375 4.9375ZM12.5938 8.65625C12.4688 9.48958 12.1771 10.2083 11.7188 10.8125L13.125 12.1875C13.9792 11.125 14.4688 9.94792 14.5938 8.65625H12.5938Z" fill="#DFDFDF"/>
</svg>
