<svg width="26" height="26" viewBox="0 0 26 26" fill="none" xmlns="http://www.w3.org/2000/svg">
<path d="M13 26C9.41146 26 6.34766 24.7305 3.80859 22.1914C1.26953 19.6523 0 16.5885 0 13C0 9.61458 1.14258 6.6862 3.42773 4.21484C5.71289 1.74349 8.54818 0.372396 11.9336 0.101562V0H14.0664V0.101562C17.2148 0.372396 19.9147 1.625 22.166 3.85938C24.4173 6.09375 25.6615 8.78516 25.8984 11.9336H26V14.0664H25.8984C25.6276 17.4518 24.2565 20.2871 21.7852 22.5723C19.3138 24.8574 16.3854 26 13 26ZM14.0664 23.7148C16.1654 23.5117 18.0781 22.7161 19.8047 21.3281L17.5703 19.043C16.5885 19.7878 15.4206 20.2617 14.0664 20.4648V23.7148ZM11.9336 23.7148V20.4648C10.7487 20.3633 9.58073 19.8893 8.42969 19.043L6.19531 21.3281C7.78646 22.7161 9.69922 23.5117 11.9336 23.7148ZM4.67188 19.8047L6.95703 17.5703C6.11068 16.4193 5.63672 15.2513 5.53516 14.0664H2.28516C2.38672 16.1992 3.18229 18.112 4.67188 19.8047ZM2.28516 11.9336H5.53516C5.73828 10.8164 6.16146 9.73307 6.80469 8.68359L4.21484 6.70312C3.02995 8.39583 2.38672 10.1393 2.28516 11.9336ZM11.9336 2.28516C9.63151 2.48828 7.53255 3.41927 5.63672 5.07812L8.22656 7.05859C9.24219 6.24609 10.444 5.73828 11.832 5.53516V2.28516H11.9336ZM13 7.56641C11.4766 7.56641 10.1901 8.09115 9.14062 9.14062C8.09115 10.1901 7.56641 11.4766 7.56641 13C7.56641 14.5234 8.09115 15.8099 9.14062 16.8594C10.1901 17.9089 11.4766 18.4336 13 18.4336C14.5234 18.4336 15.8099 17.9089 16.8594 16.8594C17.9089 15.8099 18.4336 14.5234 18.4336 13C18.4336 11.4766 17.9089 10.1901 16.8594 9.14062C15.8099 8.09115 14.5234 7.56641 13 7.56641ZM14.0664 2.28516V5.53516C16.0299 5.73828 17.5872 6.60156 18.7383 8.125L21.3281 6.19531C19.4323 3.79167 17.0117 2.48828 14.0664 2.28516ZM22.6484 8.02344L20.0586 9.95312C20.3294 10.8333 20.4987 11.4935 20.5664 11.9336H23.8164C23.6133 10.5456 23.224 9.24219 22.6484 8.02344ZM20.4648 14.0664C20.2617 15.4206 19.7878 16.5885 19.043 17.5703L21.3281 19.8047C22.7161 18.0781 23.5117 16.1654 23.7148 14.0664H20.4648Z" fill="#DFDFDF"/>
</svg>
