<svg width="196" height="802" viewBox="0 0 196 802" fill="none" xmlns="http://www.w3.org/2000/svg">
<path d="M184 187.5C184 212.077 164.077 232 139.5 232C114.923 232 95 212.077 95 187.5C95 162.923 114.923 143 139.5 143C164.077 143 184 162.923 184 187.5Z" fill="#F0DF48"/>
<path fill-rule="evenodd" clip-rule="evenodd" d="M139.5 230.609C163.309 230.609 182.609 211.309 182.609 187.5C182.609 163.691 163.309 144.391 139.5 144.391C115.691 144.391 96.3906 163.691 96.3906 187.5C96.3906 211.309 115.691 230.609 139.5 230.609ZM139.5 232C164.077 232 184 212.077 184 187.5C184 162.923 164.077 143 139.5 143C114.923 143 95 162.923 95 187.5C95 212.077 114.923 232 139.5 232Z" fill="#FDAC3A"/>
<path fill-rule="evenodd" clip-rule="evenodd" d="M182.908 190.348L178.707 190.076C178.762 189.225 178.79 188.366 178.79 187.5C178.79 186.634 178.762 185.775 178.707 184.924L182.908 184.652C182.969 185.594 183 186.543 183 187.5C183 188.457 182.969 189.406 182.908 190.348ZM182.172 179.01L178.042 179.827C177.707 178.131 177.262 176.475 176.716 174.865L180.702 173.512C181.308 175.296 181.8 177.131 182.172 179.01ZM178.523 168.256L174.749 170.121C173.987 168.579 173.126 167.093 172.175 165.673L175.673 163.331C176.726 164.903 177.679 166.548 178.523 168.256ZM172.206 158.818L169.042 161.595C167.91 160.305 166.695 159.09 165.405 157.958L168.182 154.794C169.609 156.047 170.953 157.391 172.206 158.818ZM163.669 151.327L161.327 154.825C159.907 153.874 158.421 153.013 156.879 152.251L158.744 148.477C160.452 149.321 162.097 150.274 163.669 151.327ZM153.488 146.298L152.135 150.284C150.525 149.738 148.869 149.293 147.173 148.958L147.99 144.828C149.869 145.2 151.704 145.692 153.488 146.298ZM142.348 144.092L142.076 148.293C141.225 148.238 140.366 148.21 139.5 148.21C138.634 148.21 137.775 148.238 136.924 148.293L136.652 144.092C137.594 144.031 138.543 144 139.5 144C140.457 144 141.406 144.031 142.348 144.092ZM131.01 144.828L131.827 148.958C130.131 149.293 128.475 149.738 126.865 150.284L125.512 146.298C127.296 145.692 129.131 145.2 131.01 144.828ZM120.256 148.477L122.121 152.251C120.579 153.013 119.093 153.874 117.673 154.825L115.331 151.327C116.903 150.274 118.548 149.321 120.256 148.477ZM110.818 154.794L113.595 157.958C112.305 159.09 111.09 160.305 109.958 161.595L106.794 158.818C108.047 157.391 109.391 156.047 110.818 154.794ZM103.327 163.331L106.825 165.673C105.874 167.093 105.013 168.579 104.251 170.121L100.477 168.256C101.321 166.548 102.274 164.903 103.327 163.331ZM98.2978 173.512L102.284 174.865C101.738 176.475 101.293 178.131 100.958 179.827L96.828 179.01C97.1997 177.131 97.6925 175.296 98.2978 173.512ZM96.0917 184.652C96.0309 185.594 96 186.543 96 187.5C96 188.457 96.0309 189.406 96.0917 190.348L100.293 190.076C100.238 189.225 100.21 188.366 100.21 187.5C100.21 186.634 100.238 185.775 100.293 184.924L96.0917 184.652ZM96.828 195.99L100.958 195.173C101.293 196.869 101.738 198.525 102.284 200.135L98.2978 201.488C97.6925 199.704 97.1997 197.869 96.828 195.99ZM100.477 206.744L104.251 204.879C105.013 206.421 105.874 207.907 106.825 209.327L103.327 211.669C102.274 210.097 101.321 208.452 100.477 206.744ZM106.794 216.182L109.958 213.405C111.09 214.695 112.305 215.91 113.595 217.042L110.818 220.206C109.391 218.953 108.047 217.609 106.794 216.182ZM115.331 223.673C116.903 224.726 118.548 225.679 120.256 226.523L122.121 222.749C120.579 221.987 119.093 221.126 117.673 220.175L115.331 223.673ZM125.512 228.702L126.865 224.716C128.475 225.262 130.131 225.707 131.827 226.042L131.01 230.172C129.131 229.8 127.296 229.308 125.512 228.702ZM136.652 230.908L136.924 226.707C137.775 226.762 138.634 226.79 139.5 226.79C140.366 226.79 141.225 226.762 142.076 226.707L142.348 230.908C141.406 230.969 140.457 231 139.5 231C138.543 231 137.594 230.969 136.652 230.908ZM147.99 230.172L147.173 226.042C148.869 225.707 150.525 225.262 152.135 224.716L153.488 228.702C151.704 229.308 149.869 229.8 147.99 230.172ZM158.744 226.523L156.879 222.749C158.421 221.987 159.907 221.126 161.327 220.175L163.669 223.673C162.097 224.726 160.452 225.679 158.744 226.523ZM168.182 220.206C169.609 218.953 170.953 217.609 172.206 216.182L169.042 213.405C167.91 214.695 166.695 215.91 165.405 217.042L168.182 220.206ZM175.673 211.669C176.726 210.097 177.679 208.452 178.523 206.744L174.749 204.879C173.987 206.421 173.126 207.907 172.175 209.327L175.673 211.669ZM180.702 201.488L176.716 200.135C177.262 198.525 177.707 196.869 178.042 195.173L182.172 195.99C181.8 197.869 181.308 199.704 180.702 201.488Z" fill="#FDAC3A"/>
<path d="M141.785 188.751L146.956 188.746L146.95 180.163L146.95 180.162C146.934 176.823 146.952 174.223 147.255 172.102C147.578 169.839 148.185 168.476 149.136 167.525C150.748 165.913 152.794 166.073 153.884 167.163C154.542 167.821 154.909 168.876 154.778 169.978L154.39 173.238L157.65 172.85C158.752 172.719 159.807 173.086 160.465 173.744C161.555 174.834 161.716 176.881 160.103 178.493C159.153 179.443 157.79 180.05 155.527 180.373C153.516 180.661 151.076 180.691 147.985 180.68L147.989 185.851C151.07 185.863 153.867 185.833 156.258 185.492C159.093 185.087 161.706 184.202 163.759 182.149C167.086 178.823 167.523 173.49 164.121 170.088C163.002 168.969 161.604 168.237 160.124 167.89L159.812 167.816L159.739 167.504C159.391 166.024 158.66 164.627 157.54 163.507C154.139 160.106 148.806 160.543 145.48 163.869C143.426 165.922 142.542 168.535 142.137 171.37C141.776 173.893 141.763 176.869 141.78 180.153L141.78 180.155L141.785 188.751Z" fill="#FDAC3A"/>
<path d="M138.882 194.956L138.878 189.785L147.473 189.78L147.475 189.78C150.759 189.763 153.735 189.776 156.258 190.137C159.093 190.542 161.706 191.426 163.759 193.48C167.086 196.806 167.523 202.139 164.121 205.54C163.002 206.659 161.604 207.391 160.124 207.739L159.812 207.812L159.739 208.124C159.391 209.604 158.66 211.002 157.54 212.121C154.139 215.523 148.806 215.086 145.48 211.759C143.426 209.706 142.542 207.093 142.137 204.258C141.795 201.867 141.765 199.07 141.777 195.989L146.948 195.985C146.937 199.076 146.968 201.516 147.255 203.527C147.578 205.789 148.185 207.153 149.136 208.103C150.748 209.716 152.794 209.555 153.884 208.465C154.542 207.807 154.909 206.752 154.778 205.65L154.39 202.39L157.65 202.778C158.752 202.909 159.807 202.542 160.465 201.884C161.555 200.794 161.716 198.748 160.103 197.135C159.153 196.185 157.79 195.578 155.527 195.255C153.405 194.952 150.805 194.934 147.466 194.95L147.465 194.95L138.882 194.956Z" fill="#FDAC3A"/>
<path d="M132.673 186.882L137.843 186.878L137.849 195.473L137.849 195.475C137.866 198.759 137.852 201.735 137.492 204.258C137.087 207.093 136.202 209.706 134.149 211.759C130.823 215.086 125.49 215.523 122.088 212.121C120.969 211.002 120.237 209.604 119.89 208.124L119.816 207.812L119.504 207.739C118.024 207.391 116.627 206.659 115.507 205.54C112.106 202.139 112.543 196.806 115.869 193.48C117.923 191.426 120.535 190.542 123.37 190.137C125.761 189.795 128.559 189.765 131.639 189.777L131.644 194.948C128.552 194.937 126.112 194.968 124.102 195.255C121.839 195.578 120.476 196.185 119.525 197.135C117.913 198.748 118.073 200.794 119.163 201.884C119.821 202.542 120.876 202.909 121.978 202.778L125.238 202.39L124.85 205.65C124.719 206.752 125.086 207.807 125.744 208.465C126.834 209.555 128.881 209.716 130.493 208.103C131.444 207.153 132.05 205.789 132.373 203.527C132.677 201.405 132.694 198.804 132.678 195.465L132.673 186.882Z" fill="#FDAC3A"/>
<path d="M140.746 180.673L140.751 185.843L132.155 185.849L132.153 185.849C128.869 185.866 125.893 185.852 123.37 185.492C120.535 185.087 117.923 184.202 115.869 182.149C112.543 178.823 112.106 173.49 115.507 170.088C116.627 168.969 118.024 168.237 119.504 167.89L119.816 167.816L119.89 167.504C120.237 166.024 120.969 164.627 122.088 163.507C125.49 160.106 130.823 160.543 134.149 163.869C136.202 165.922 137.087 168.535 137.492 171.37C137.833 173.761 137.863 176.559 137.851 179.639L132.68 179.643C132.691 176.552 132.661 174.112 132.373 172.102C132.05 169.839 131.444 168.476 130.493 167.525C128.881 165.913 126.834 166.073 125.744 167.163C125.086 167.821 124.719 168.876 124.85 169.978L125.238 173.238L121.978 172.85C120.876 172.719 119.821 173.086 119.163 173.744C118.073 174.834 117.913 176.881 119.525 178.493C120.476 179.443 121.839 180.05 124.102 180.373C126.223 180.676 128.823 180.694 132.162 180.678L132.163 180.678L140.746 180.673Z" fill="#FDAC3A"/>
<path d="M89 332.5C89 357.077 69.0767 377 44.5 377C19.9233 377 0 357.077 0 332.5C0 307.923 19.9233 288 44.5 288C69.0767 288 89 307.923 89 332.5Z" fill="#F0DF48"/>
<path fill-rule="evenodd" clip-rule="evenodd" d="M44.5 375.609C68.3086 375.609 87.6094 356.309 87.6094 332.5C87.6094 308.691 68.3086 289.391 44.5 289.391C20.6914 289.391 1.39062 308.691 1.39062 332.5C1.39062 356.309 20.6914 375.609 44.5 375.609ZM44.5 377C69.0767 377 89 357.077 89 332.5C89 307.923 69.0767 288 44.5 288C19.9233 288 0 307.923 0 332.5C0 357.077 19.9233 377 44.5 377Z" fill="#FDAC3A"/>
<path fill-rule="evenodd" clip-rule="evenodd" d="M87.9083 335.348L83.7074 335.076C83.7624 334.225 83.7903 333.366 83.7903 332.5C83.7903 331.634 83.7624 330.775 83.7074 329.924L87.9083 329.652C87.9691 330.594 88 331.543 88 332.5C88 333.457 87.9691 334.406 87.9083 335.348ZM87.172 324.01L83.0424 324.827C82.7068 323.131 82.2621 321.475 81.7159 319.865L85.7022 318.512C86.3075 320.296 86.8003 322.131 87.172 324.01ZM83.5227 313.256L79.7486 315.121C78.9866 313.579 78.126 312.093 77.175 310.673L80.6731 308.331C81.7258 309.903 82.6787 311.548 83.5227 313.256ZM77.2056 303.818L74.0417 306.595C72.9097 305.305 71.6946 304.09 70.4049 302.958L73.1818 299.794C74.6088 301.047 75.9531 302.391 77.2056 303.818ZM68.6693 296.327L66.3274 299.825C64.9068 298.874 63.4213 298.013 61.879 297.251L63.7437 293.477C65.452 294.321 67.0969 295.274 68.6693 296.327ZM58.4877 291.298L57.1348 295.284C55.5253 294.738 53.8688 294.293 52.1726 293.958L52.9895 289.828C54.8686 290.2 56.7042 290.692 58.4877 291.298ZM47.3478 289.092L47.0763 293.293C46.2252 293.238 45.3661 293.21 44.5 293.21C43.6338 293.21 42.7748 293.238 41.9237 293.293L41.6522 289.092C42.5937 289.031 43.5432 289 44.5 289C45.4568 289 46.4063 289.031 47.3478 289.092ZM36.0105 289.828L36.8274 293.958C35.1312 294.293 33.4747 294.738 31.8652 295.284L30.5123 291.298C32.2958 290.692 34.1314 290.2 36.0105 289.828ZM25.2563 293.477L27.121 297.251C25.5787 298.013 24.0932 298.874 22.6726 299.825L20.3307 296.327C21.9031 295.274 23.548 294.321 25.2563 293.477ZM15.8182 299.794L18.5951 302.958C17.3054 304.09 16.0903 305.305 14.9583 306.595L11.7944 303.818C13.0468 302.391 14.3912 301.047 15.8182 299.794ZM8.3269 308.331L11.825 310.673C10.874 312.093 10.0134 313.579 9.25142 315.121L5.47728 313.256C6.32131 311.548 7.2742 309.903 8.3269 308.331ZM3.29778 318.512L7.28414 319.865C6.7379 321.475 6.29318 323.131 5.95762 324.827L1.82798 324.01C2.19972 322.131 2.69247 320.296 3.29778 318.512ZM1.09173 329.652C1.03089 330.594 1 331.543 1 332.5C1 333.457 1.03089 334.406 1.09173 335.348L5.29264 335.076C5.23764 334.225 5.20968 333.366 5.20968 332.5C5.20968 331.634 5.23764 330.775 5.29264 329.924L1.09173 329.652ZM1.82798 340.99L5.95762 340.173C6.29318 341.869 6.7379 343.525 7.28414 345.135L3.29778 346.488C2.69247 344.704 2.19972 342.869 1.82798 340.99ZM5.47728 351.744L9.25142 349.879C10.0134 351.421 10.874 352.907 11.825 354.327L8.32691 356.669C7.2742 355.097 6.32131 353.452 5.47728 351.744ZM11.7944 361.182L14.9583 358.405C16.0903 359.695 17.3054 360.91 18.5951 362.042L15.8182 365.206C14.3912 363.953 13.0469 362.609 11.7944 361.182ZM20.3307 368.673C21.9031 369.726 23.548 370.679 25.2563 371.523L27.121 367.749C25.5787 366.987 24.0932 366.126 22.6726 365.175L20.3307 368.673ZM30.5123 373.702L31.8652 369.716C33.4747 370.262 35.1312 370.707 36.8274 371.042L36.0105 375.172C34.1314 374.8 32.2958 374.308 30.5123 373.702ZM41.6522 375.908L41.9237 371.707C42.7748 371.762 43.6338 371.79 44.5 371.79C45.3661 371.79 46.2252 371.762 47.0763 371.707L47.3478 375.908C46.4063 375.969 45.4568 376 44.5 376C43.5432 376 42.5937 375.969 41.6522 375.908ZM52.9895 375.172L52.1726 371.042C53.8688 370.707 55.5253 370.262 57.1348 369.716L58.4877 373.702C56.7042 374.308 54.8686 374.8 52.9895 375.172ZM63.7437 371.523L61.879 367.749C63.4213 366.987 64.9068 366.126 66.3274 365.175L68.6693 368.673C67.0969 369.726 65.452 370.679 63.7437 371.523ZM73.1818 365.206C74.6088 363.953 75.9532 362.609 77.2056 361.182L74.0417 358.405C72.9097 359.695 71.6946 360.91 70.4049 362.042L73.1818 365.206ZM80.6731 356.669C81.7258 355.097 82.6787 353.452 83.5227 351.744L79.7486 349.879C78.9866 351.421 78.126 352.907 77.175 354.327L80.6731 356.669ZM85.7022 346.488L81.7159 345.135C82.2621 343.525 82.7068 341.869 83.0424 340.173L87.172 340.99C86.8003 342.869 86.3075 344.704 85.7022 346.488Z" fill="#FDAC3A"/>
<path d="M46.7854 333.751L51.9557 333.746L51.9504 325.163L51.9504 325.162C51.9343 321.823 51.9519 319.223 52.2551 317.102C52.5784 314.839 53.1849 313.476 54.1355 312.525C55.7476 310.913 57.7941 311.073 58.8843 312.163C59.542 312.821 59.909 313.876 59.778 314.978L59.3903 318.238L62.6503 317.85C63.7523 317.719 64.8074 318.086 65.4651 318.744C66.5553 319.834 66.7156 321.881 65.1035 323.493C64.1528 324.443 62.7895 325.05 60.5266 325.373C58.5161 325.661 56.076 325.691 52.9849 325.68L52.9893 330.851C56.0698 330.863 58.8674 330.833 61.258 330.492C64.093 330.087 66.7059 329.202 68.7594 327.149C72.0856 323.823 72.5227 318.49 69.121 315.088C68.0018 313.969 66.6043 313.237 65.124 312.89L64.8119 312.816L64.7387 312.504C64.3913 311.024 63.6596 309.627 62.5403 308.507C59.1386 305.106 53.8057 305.543 50.4796 308.869C48.426 310.922 47.5418 313.535 47.1367 316.37C46.7762 318.893 46.7628 321.869 46.7797 325.153L46.7797 325.155L46.7854 333.751Z" fill="#FDAC3A"/>
<path d="M43.8823 339.956L43.8776 334.785L52.4732 334.78L52.4754 334.78C55.7589 334.763 58.7352 334.776 61.258 335.137C64.093 335.542 66.7059 336.426 68.7594 338.48C72.0856 341.806 72.5227 347.139 69.121 350.54C68.0018 351.659 66.6043 352.391 65.124 352.739L64.8119 352.812L64.7387 353.124C64.3913 354.604 63.6596 356.002 62.5403 357.121C59.1386 360.523 53.8057 360.086 50.4796 356.759C48.426 354.706 47.5418 352.093 47.1367 349.258C46.7951 346.867 46.7651 344.07 46.7774 340.989L51.9482 340.985C51.9369 344.076 51.9678 346.516 52.2551 348.527C52.5784 350.789 53.1849 352.153 54.1355 353.103C55.7477 354.716 57.7941 354.555 58.8843 353.465C59.542 352.807 59.909 351.752 59.778 350.65L59.3903 347.39L62.6503 347.778C63.7523 347.909 64.8074 347.542 65.4651 346.884C66.5553 345.794 66.7156 343.748 65.1035 342.135C64.1528 341.185 62.7895 340.578 60.5266 340.255C58.405 339.952 55.8049 339.934 52.4663 339.95L52.4649 339.95L43.8823 339.956Z" fill="#FDAC3A"/>
<path d="M37.6727 331.882L42.8431 331.878L42.8487 340.473L42.8487 340.475C42.8657 343.759 42.8522 346.735 42.4917 349.258C42.0866 352.093 41.2024 354.706 39.1489 356.759C35.8227 360.086 30.4898 360.523 27.0881 357.121C25.9689 356.002 25.2371 354.604 24.8897 353.124L24.8165 352.812L24.5045 352.739C23.0241 352.391 21.6266 351.659 20.5074 350.54C17.1057 347.139 17.5428 341.806 20.869 338.48C22.9225 336.426 25.5354 335.542 28.3704 335.137C30.761 334.795 33.5586 334.765 36.6391 334.777L36.6435 339.948C33.5524 339.937 31.1123 339.968 29.1018 340.255C26.8389 340.578 25.4756 341.185 24.525 342.135C22.9129 343.748 23.0731 345.794 24.1634 346.884C24.821 347.542 25.8761 347.909 26.9781 347.778L30.2381 347.39L29.8505 350.65C29.7194 351.752 30.0864 352.807 30.7441 353.465C31.8344 354.555 33.8808 354.716 35.4929 353.103C36.4435 352.153 37.05 350.789 37.3734 348.527C37.6766 346.405 37.6941 343.804 37.678 340.465L37.6727 331.882Z" fill="#FDAC3A"/>
<path d="M45.7461 325.673L45.7508 330.843L37.1552 330.849L37.153 330.849C33.8695 330.866 30.8933 330.852 28.3704 330.492C25.5354 330.087 22.9225 329.202 20.869 327.149C17.5428 323.823 17.1057 318.49 20.5074 315.088C21.6266 313.969 23.0241 313.237 24.5045 312.89L24.8165 312.816L24.8897 312.504C25.2371 311.024 25.9689 309.627 27.0881 308.507C30.4898 305.106 35.8227 305.543 39.1489 308.869C41.2024 310.922 42.0866 313.535 42.4917 316.37C42.8333 318.761 42.8633 321.559 42.8511 324.639L37.6802 324.643C37.6915 321.552 37.6607 319.112 37.3734 317.102C37.05 314.839 36.4435 313.476 35.4929 312.525C33.8808 310.913 31.8344 311.073 30.7441 312.163C30.0864 312.821 29.7194 313.876 29.8505 314.978L30.2381 318.238L26.9781 317.85C25.8761 317.719 24.821 318.086 24.1634 318.744C23.0731 319.834 22.9129 321.881 24.525 323.493C25.4756 324.443 26.8389 325.05 29.1018 325.373C31.2234 325.676 33.8233 325.694 37.1618 325.678L37.1635 325.678L45.7461 325.673Z" fill="#FDAC3A"/>
<path d="M210 354.5C210 379.077 190.077 399 165.5 399C140.923 399 121 379.077 121 354.5C121 329.923 140.923 310 165.5 310C190.077 310 210 329.923 210 354.5Z" fill="#F0DF48"/>
<path fill-rule="evenodd" clip-rule="evenodd" d="M165.5 397.609C189.309 397.609 208.609 378.309 208.609 354.5C208.609 330.691 189.309 311.391 165.5 311.391C141.691 311.391 122.391 330.691 122.391 354.5C122.391 378.309 141.691 397.609 165.5 397.609ZM165.5 399C190.077 399 210 379.077 210 354.5C210 329.923 190.077 310 165.5 310C140.923 310 121 329.923 121 354.5C121 379.077 140.923 399 165.5 399Z" fill="#FDAC3A"/>
<path fill-rule="evenodd" clip-rule="evenodd" d="M208.908 357.348L204.707 357.076C204.762 356.225 204.79 355.366 204.79 354.5C204.79 353.634 204.762 352.775 204.707 351.924L208.908 351.652C208.969 352.594 209 353.543 209 354.5C209 355.457 208.969 356.406 208.908 357.348ZM208.172 346.01L204.042 346.827C203.707 345.131 203.262 343.475 202.716 341.865L206.702 340.512C207.308 342.296 207.8 344.131 208.172 346.01ZM204.523 335.256L200.749 337.121C199.987 335.579 199.126 334.093 198.175 332.673L201.673 330.331C202.726 331.903 203.679 333.548 204.523 335.256ZM198.206 325.818L195.042 328.595C193.91 327.305 192.695 326.09 191.405 324.958L194.182 321.794C195.609 323.047 196.953 324.391 198.206 325.818ZM189.669 318.327L187.327 321.825C185.907 320.874 184.421 320.013 182.879 319.251L184.744 315.477C186.452 316.321 188.097 317.274 189.669 318.327ZM179.488 313.298L178.135 317.284C176.525 316.738 174.869 316.293 173.173 315.958L173.99 311.828C175.869 312.2 177.704 312.692 179.488 313.298ZM168.348 311.092L168.076 315.293C167.225 315.238 166.366 315.21 165.5 315.21C164.634 315.21 163.775 315.238 162.924 315.293L162.652 311.092C163.594 311.031 164.543 311 165.5 311C166.457 311 167.406 311.031 168.348 311.092ZM157.01 311.828L157.827 315.958C156.131 316.293 154.475 316.738 152.865 317.284L151.512 313.298C153.296 312.692 155.131 312.2 157.01 311.828ZM146.256 315.477L148.121 319.251C146.579 320.013 145.093 320.874 143.673 321.825L141.331 318.327C142.903 317.274 144.548 316.321 146.256 315.477ZM136.818 321.794L139.595 324.958C138.305 326.09 137.09 327.305 135.958 328.595L132.794 325.818C134.047 324.391 135.391 323.047 136.818 321.794ZM129.327 330.331L132.825 332.673C131.874 334.093 131.013 335.579 130.251 337.121L126.477 335.256C127.321 333.548 128.274 331.903 129.327 330.331ZM124.298 340.512L128.284 341.865C127.738 343.475 127.293 345.131 126.958 346.827L122.828 346.01C123.2 344.131 123.692 342.296 124.298 340.512ZM122.092 351.652C122.031 352.594 122 353.543 122 354.5C122 355.457 122.031 356.406 122.092 357.348L126.293 357.076C126.238 356.225 126.21 355.366 126.21 354.5C126.21 353.634 126.238 352.775 126.293 351.924L122.092 351.652ZM122.828 362.99L126.958 362.173C127.293 363.869 127.738 365.525 128.284 367.135L124.298 368.488C123.692 366.704 123.2 364.869 122.828 362.99ZM126.477 373.744L130.251 371.879C131.013 373.421 131.874 374.907 132.825 376.327L129.327 378.669C128.274 377.097 127.321 375.452 126.477 373.744ZM132.794 383.182L135.958 380.405C137.09 381.695 138.305 382.91 139.595 384.042L136.818 387.206C135.391 385.953 134.047 384.609 132.794 383.182ZM141.331 390.673C142.903 391.726 144.548 392.679 146.256 393.523L148.121 389.749C146.579 388.987 145.093 388.126 143.673 387.175L141.331 390.673ZM151.512 395.702L152.865 391.716C154.475 392.262 156.131 392.707 157.827 393.042L157.01 397.172C155.131 396.8 153.296 396.308 151.512 395.702ZM162.652 397.908L162.924 393.707C163.775 393.762 164.634 393.79 165.5 393.79C166.366 393.79 167.225 393.762 168.076 393.707L168.348 397.908C167.406 397.969 166.457 398 165.5 398C164.543 398 163.594 397.969 162.652 397.908ZM173.99 397.172L173.173 393.042C174.869 392.707 176.525 392.262 178.135 391.716L179.488 395.702C177.704 396.308 175.869 396.8 173.99 397.172ZM184.744 393.523L182.879 389.749C184.421 388.987 185.907 388.126 187.327 387.175L189.669 390.673C188.097 391.726 186.452 392.679 184.744 393.523ZM194.182 387.206C195.609 385.953 196.953 384.609 198.206 383.182L195.042 380.405C193.91 381.695 192.695 382.91 191.405 384.042L194.182 387.206ZM201.673 378.669C202.726 377.097 203.679 375.452 204.523 373.744L200.749 371.879C199.987 373.421 199.126 374.907 198.175 376.327L201.673 378.669ZM206.702 368.488L202.716 367.135C203.262 365.525 203.707 363.869 204.042 362.173L208.172 362.99C207.8 364.869 207.308 366.704 206.702 368.488Z" fill="#FDAC3A"/>
<path d="M167.785 355.751L172.956 355.746L172.95 347.163L172.95 347.162C172.934 343.823 172.952 341.223 173.255 339.102C173.578 336.839 174.185 335.476 175.136 334.525C176.748 332.913 178.794 333.073 179.884 334.163C180.542 334.821 180.909 335.876 180.778 336.978L180.39 340.238L183.65 339.85C184.752 339.719 185.807 340.086 186.465 340.744C187.555 341.834 187.716 343.881 186.103 345.493C185.153 346.443 183.79 347.05 181.527 347.373C179.516 347.661 177.076 347.691 173.985 347.68L173.989 352.851C177.07 352.863 179.867 352.833 182.258 352.492C185.093 352.087 187.706 351.202 189.759 349.149C193.086 345.823 193.523 340.49 190.121 337.088C189.002 335.969 187.604 335.237 186.124 334.89L185.812 334.816L185.739 334.504C185.391 333.024 184.66 331.627 183.54 330.507C180.139 327.106 174.806 327.543 171.48 330.869C169.426 332.922 168.542 335.535 168.137 338.37C167.776 340.893 167.763 343.869 167.78 347.153L167.78 347.155L167.785 355.751Z" fill="#FDAC3A"/>
<path d="M164.882 361.956L164.878 356.785L173.473 356.78L173.475 356.78C176.759 356.763 179.735 356.776 182.258 357.137C185.093 357.542 187.706 358.426 189.759 360.48C193.086 363.806 193.523 369.139 190.121 372.54C189.002 373.659 187.604 374.391 186.124 374.739L185.812 374.812L185.739 375.124C185.391 376.604 184.66 378.002 183.54 379.121C180.139 382.523 174.806 382.086 171.48 378.759C169.426 376.706 168.542 374.093 168.137 371.258C167.795 368.867 167.765 366.07 167.777 362.989L172.948 362.985C172.937 366.076 172.968 368.516 173.255 370.527C173.578 372.789 174.185 374.153 175.136 375.103C176.748 376.716 178.794 376.555 179.884 375.465C180.542 374.807 180.909 373.752 180.778 372.65L180.39 369.39L183.65 369.778C184.752 369.909 185.807 369.542 186.465 368.884C187.555 367.794 187.716 365.748 186.103 364.135C185.153 363.185 183.79 362.578 181.527 362.255C179.405 361.952 176.805 361.934 173.466 361.95L173.465 361.95L164.882 361.956Z" fill="#FDAC3A"/>
<path d="M158.673 353.882L163.843 353.878L163.849 362.473L163.849 362.475C163.866 365.759 163.852 368.735 163.492 371.258C163.087 374.093 162.202 376.706 160.149 378.759C156.823 382.086 151.49 382.523 148.088 379.121C146.969 378.002 146.237 376.604 145.89 375.124L145.816 374.812L145.504 374.739C144.024 374.391 142.627 373.659 141.507 372.54C138.106 369.139 138.543 363.806 141.869 360.48C143.923 358.426 146.535 357.542 149.37 357.137C151.761 356.795 154.559 356.765 157.639 356.777L157.644 361.948C154.552 361.937 152.112 361.968 150.102 362.255C147.839 362.578 146.476 363.185 145.525 364.135C143.913 365.748 144.073 367.794 145.163 368.884C145.821 369.542 146.876 369.909 147.978 369.778L151.238 369.39L150.85 372.65C150.719 373.752 151.086 374.807 151.744 375.465C152.834 376.555 154.881 376.716 156.493 375.103C157.444 374.153 158.05 372.789 158.373 370.527C158.677 368.405 158.694 365.804 158.678 362.465L158.673 353.882Z" fill="#FDAC3A"/>
<path d="M166.746 347.673L166.751 352.843L158.155 352.849L158.153 352.849C154.869 352.866 151.893 352.852 149.37 352.492C146.535 352.087 143.923 351.202 141.869 349.149C138.543 345.823 138.106 340.49 141.507 337.088C142.627 335.969 144.024 335.237 145.504 334.89L145.816 334.816L145.89 334.504C146.237 333.024 146.969 331.627 148.088 330.507C151.49 327.106 156.823 327.543 160.149 330.869C162.202 332.922 163.087 335.535 163.492 338.37C163.833 340.761 163.863 343.559 163.851 346.639L158.68 346.643C158.691 343.552 158.661 341.112 158.373 339.102C158.05 336.839 157.444 335.476 156.493 334.525C154.881 332.913 152.834 333.073 151.744 334.163C151.086 334.821 150.719 335.876 150.85 336.978L151.238 340.238L147.978 339.85C146.876 339.719 145.821 340.086 145.163 340.744C144.073 341.834 143.913 343.881 145.525 345.493C146.476 346.443 147.839 347.05 150.102 347.373C152.223 347.676 154.823 347.694 158.162 347.678L158.163 347.678L166.746 347.673Z" fill="#FDAC3A"/>
<path d="M142 478.5C142 503.077 122.077 523 97.5 523C72.9233 523 53 503.077 53 478.5C53 453.923 72.9233 434 97.5 434C122.077 434 142 453.923 142 478.5Z" fill="#F0DF48"/>
<path fill-rule="evenodd" clip-rule="evenodd" d="M97.5 521.609C121.309 521.609 140.609 502.309 140.609 478.5C140.609 454.691 121.309 435.391 97.5 435.391C73.6914 435.391 54.3906 454.691 54.3906 478.5C54.3906 502.309 73.6914 521.609 97.5 521.609ZM97.5 523C122.077 523 142 503.077 142 478.5C142 453.923 122.077 434 97.5 434C72.9233 434 53 453.923 53 478.5C53 503.077 72.9233 523 97.5 523Z" fill="#FDAC3A"/>
<path fill-rule="evenodd" clip-rule="evenodd" d="M140.908 481.348L136.707 481.076C136.762 480.225 136.79 479.366 136.79 478.5C136.79 477.634 136.762 476.775 136.707 475.924L140.908 475.652C140.969 476.594 141 477.543 141 478.5C141 479.457 140.969 480.406 140.908 481.348ZM140.172 470.01L136.042 470.827C135.707 469.131 135.262 467.475 134.716 465.865L138.702 464.512C139.308 466.296 139.8 468.131 140.172 470.01ZM136.523 459.256L132.749 461.121C131.987 459.579 131.126 458.093 130.175 456.673L133.673 454.331C134.726 455.903 135.679 457.548 136.523 459.256ZM130.206 449.818L127.042 452.595C125.91 451.305 124.695 450.09 123.405 448.958L126.182 445.794C127.609 447.047 128.953 448.391 130.206 449.818ZM121.669 442.327L119.327 445.825C117.907 444.874 116.421 444.013 114.879 443.251L116.744 439.477C118.452 440.321 120.097 441.274 121.669 442.327ZM111.488 437.298L110.135 441.284C108.525 440.738 106.869 440.293 105.173 439.958L105.99 435.828C107.869 436.2 109.704 436.692 111.488 437.298ZM100.348 435.092L100.076 439.293C99.2252 439.238 98.3661 439.21 97.5 439.21C96.6338 439.21 95.7748 439.238 94.9237 439.293L94.6522 435.092C95.5937 435.031 96.5432 435 97.5 435C98.4568 435 99.4063 435.031 100.348 435.092ZM89.0105 435.828L89.8274 439.958C88.1312 440.293 86.4747 440.738 84.8652 441.284L83.5123 437.298C85.2958 436.692 87.1314 436.2 89.0105 435.828ZM78.2563 439.477L80.121 443.251C78.5787 444.013 77.0932 444.874 75.6726 445.825L73.3307 442.327C74.9031 441.274 76.548 440.321 78.2563 439.477ZM68.8182 445.794L71.5951 448.958C70.3054 450.09 69.0903 451.305 67.9583 452.595L64.7944 449.818C66.0468 448.391 67.3912 447.047 68.8182 445.794ZM61.3269 454.331L64.825 456.673C63.874 458.093 63.0134 459.579 62.2514 461.121L58.4773 459.256C59.3213 457.548 60.2742 455.903 61.3269 454.331ZM56.2978 464.512L60.2841 465.865C59.7379 467.475 59.2932 469.131 58.9576 470.827L54.828 470.01C55.1997 468.131 55.6925 466.296 56.2978 464.512ZM54.0917 475.652C54.0309 476.594 54 477.543 54 478.5C54 479.457 54.0309 480.406 54.0917 481.348L58.2926 481.076C58.2376 480.225 58.2097 479.366 58.2097 478.5C58.2097 477.634 58.2376 476.775 58.2926 475.924L54.0917 475.652ZM54.828 486.99L58.9576 486.173C59.2932 487.869 59.7379 489.525 60.2841 491.135L56.2978 492.488C55.6925 490.704 55.1997 488.869 54.828 486.99ZM58.4773 497.744L62.2514 495.879C63.0134 497.421 63.874 498.907 64.825 500.327L61.3269 502.669C60.2742 501.097 59.3213 499.452 58.4773 497.744ZM64.7944 507.182L67.9583 504.405C69.0903 505.695 70.3054 506.91 71.5951 508.042L68.8182 511.206C67.3912 509.953 66.0469 508.609 64.7944 507.182ZM73.3307 514.673C74.9031 515.726 76.548 516.679 78.2563 517.523L80.121 513.749C78.5787 512.987 77.0932 512.126 75.6726 511.175L73.3307 514.673ZM83.5123 519.702L84.8652 515.716C86.4747 516.262 88.1312 516.707 89.8274 517.042L89.0105 521.172C87.1314 520.8 85.2958 520.308 83.5123 519.702ZM94.6522 521.908L94.9237 517.707C95.7748 517.762 96.6338 517.79 97.5 517.79C98.3661 517.79 99.2252 517.762 100.076 517.707L100.348 521.908C99.4063 521.969 98.4568 522 97.5 522C96.5432 522 95.5937 521.969 94.6522 521.908ZM105.99 521.172L105.173 517.042C106.869 516.707 108.525 516.262 110.135 515.716L111.488 519.702C109.704 520.308 107.869 520.8 105.99 521.172ZM116.744 517.523L114.879 513.749C116.421 512.987 117.907 512.126 119.327 511.175L121.669 514.673C120.097 515.726 118.452 516.679 116.744 517.523ZM126.182 511.206C127.609 509.953 128.953 508.609 130.206 507.182L127.042 504.405C125.91 505.695 124.695 506.91 123.405 508.042L126.182 511.206ZM133.673 502.669C134.726 501.097 135.679 499.452 136.523 497.744L132.749 495.879C131.987 497.421 131.126 498.907 130.175 500.327L133.673 502.669ZM138.702 492.488L134.716 491.135C135.262 489.525 135.707 487.869 136.042 486.173L140.172 486.99C139.8 488.869 139.308 490.704 138.702 492.488Z" fill="#FDAC3A"/>
<path d="M99.7854 479.751L104.956 479.746L104.95 471.163L104.95 471.162C104.934 467.823 104.952 465.223 105.255 463.102C105.578 460.839 106.185 459.476 107.136 458.525C108.748 456.913 110.794 457.073 111.884 458.163C112.542 458.821 112.909 459.876 112.778 460.978L112.39 464.238L115.65 463.85C116.752 463.719 117.807 464.086 118.465 464.744C119.555 465.834 119.716 467.881 118.103 469.493C117.153 470.443 115.79 471.05 113.527 471.373C111.516 471.661 109.076 471.691 105.985 471.68L105.989 476.851C109.07 476.863 111.867 476.833 114.258 476.492C117.093 476.087 119.706 475.202 121.759 473.149C125.086 469.823 125.523 464.49 122.121 461.088C121.002 459.969 119.604 459.237 118.124 458.89L117.812 458.816L117.739 458.504C117.391 457.024 116.66 455.627 115.54 454.507C112.139 451.106 106.806 451.543 103.48 454.869C101.426 456.922 100.542 459.535 100.137 462.37C99.7762 464.893 99.7628 467.869 99.7797 471.153L99.7797 471.155L99.7854 479.751Z" fill="#FDAC3A"/>
<path d="M96.8823 485.956L96.8776 480.785L105.473 480.78L105.475 480.78C108.759 480.763 111.735 480.776 114.258 481.137C117.093 481.542 119.706 482.426 121.759 484.48C125.086 487.806 125.523 493.139 122.121 496.54C121.002 497.659 119.604 498.391 118.124 498.739L117.812 498.812L117.739 499.124C117.391 500.604 116.66 502.002 115.54 503.121C112.139 506.523 106.806 506.086 103.48 502.759C101.426 500.706 100.542 498.093 100.137 495.258C99.7951 492.867 99.7651 490.07 99.7774 486.989L104.948 486.985C104.937 490.076 104.968 492.516 105.255 494.527C105.578 496.789 106.185 498.153 107.136 499.103C108.748 500.716 110.794 500.555 111.884 499.465C112.542 498.807 112.909 497.752 112.778 496.65L112.39 493.39L115.65 493.778C116.752 493.909 117.807 493.542 118.465 492.884C119.555 491.794 119.716 489.748 118.103 488.135C117.153 487.185 115.79 486.578 113.527 486.255C111.405 485.952 108.805 485.934 105.466 485.95L105.465 485.95L96.8823 485.956Z" fill="#FDAC3A"/>
<path d="M90.6727 477.882L95.8431 477.878L95.8487 486.473L95.8487 486.475C95.8657 489.759 95.8522 492.735 95.4917 495.258C95.0866 498.093 94.2024 500.706 92.1489 502.759C88.8227 506.086 83.4898 506.523 80.0881 503.121C78.9689 502.002 78.2371 500.604 77.8897 499.124L77.8165 498.812L77.5045 498.739C76.0241 498.391 74.6266 497.659 73.5074 496.54C70.1057 493.139 70.5428 487.806 73.869 484.48C75.9225 482.426 78.5354 481.542 81.3704 481.137C83.761 480.795 86.5586 480.765 89.6391 480.777L89.6435 485.948C86.5524 485.937 84.1123 485.968 82.1018 486.255C79.8389 486.578 78.4756 487.185 77.525 488.135C75.9129 489.748 76.0731 491.794 77.1634 492.884C77.821 493.542 78.8761 493.909 79.9781 493.778L83.2381 493.39L82.8505 496.65C82.7194 497.752 83.0864 498.807 83.7441 499.465C84.8344 500.555 86.8808 500.716 88.4929 499.103C89.4435 498.153 90.05 496.789 90.3734 494.527C90.6766 492.405 90.6941 489.804 90.678 486.465L90.6727 477.882Z" fill="#FDAC3A"/>
<path d="M98.7461 471.673L98.7508 476.843L90.1552 476.849L90.153 476.849C86.8695 476.866 83.8933 476.852 81.3704 476.492C78.5354 476.087 75.9225 475.202 73.869 473.149C70.5428 469.823 70.1057 464.49 73.5074 461.088C74.6266 459.969 76.0241 459.237 77.5045 458.89L77.8165 458.816L77.8897 458.504C78.2371 457.024 78.9689 455.627 80.0881 454.507C83.4898 451.106 88.8227 451.543 92.1489 454.869C94.2024 456.922 95.0866 459.535 95.4917 462.37C95.8333 464.761 95.8633 467.559 95.8511 470.639L90.6802 470.643C90.6915 467.552 90.6607 465.112 90.3734 463.102C90.05 460.839 89.4435 459.476 88.4929 458.525C86.8808 456.913 84.8344 457.073 83.7441 458.163C83.0864 458.821 82.7194 459.876 82.8505 460.978L83.2381 464.238L79.9781 463.85C78.8761 463.719 77.821 464.086 77.1634 464.744C76.0731 465.834 75.9129 467.881 77.525 469.493C78.4756 470.443 79.8389 471.05 82.1018 471.373C84.2234 471.676 86.8233 471.694 90.1618 471.678L90.1635 471.678L98.7461 471.673Z" fill="#FDAC3A"/>
<path d="M228 44.5C228 69.0767 208.077 89 183.5 89C158.923 89 139 69.0767 139 44.5C139 19.9233 158.923 0 183.5 0C208.077 0 228 19.9233 228 44.5Z" fill="#F0DF48"/>
<path fill-rule="evenodd" clip-rule="evenodd" d="M183.5 87.6094C207.309 87.6094 226.609 68.3086 226.609 44.5C226.609 20.6914 207.309 1.39062 183.5 1.39062C159.691 1.39062 140.391 20.6914 140.391 44.5C140.391 68.3086 159.691 87.6094 183.5 87.6094ZM183.5 89C208.077 89 228 69.0767 228 44.5C228 19.9233 208.077 0 183.5 0C158.923 0 139 19.9233 139 44.5C139 69.0767 158.923 89 183.5 89Z" fill="#FDAC3A"/>
<path fill-rule="evenodd" clip-rule="evenodd" d="M226.908 47.3478L222.707 47.0763C222.762 46.2252 222.79 45.3661 222.79 44.5C222.79 43.6338 222.762 42.7748 222.707 41.9237L226.908 41.6522C226.969 42.5937 227 43.5432 227 44.5C227 45.4568 226.969 46.4063 226.908 47.3478ZM226.172 36.0105L222.042 36.8274C221.707 35.1312 221.262 33.4747 220.716 31.8652L224.702 30.5123C225.308 32.2958 225.8 34.1314 226.172 36.0105ZM222.523 25.2563L218.749 27.121C217.987 25.5787 217.126 24.0932 216.175 22.6726L219.673 20.3307C220.726 21.9031 221.679 23.548 222.523 25.2563ZM216.206 15.8182L213.042 18.5951C211.91 17.3054 210.695 16.0903 209.405 14.9583L212.182 11.7944C213.609 13.0468 214.953 14.3912 216.206 15.8182ZM207.669 8.32691L205.327 11.825C203.907 10.874 202.421 10.0134 200.879 9.25142L202.744 5.47728C204.452 6.32131 206.097 7.2742 207.669 8.32691ZM197.488 3.29778L196.135 7.28414C194.525 6.7379 192.869 6.29318 191.173 5.95762L191.99 1.82798C193.869 2.19972 195.704 2.69247 197.488 3.29778ZM186.348 1.09173L186.076 5.29264C185.225 5.23764 184.366 5.20968 183.5 5.20968C182.634 5.20968 181.775 5.23764 180.924 5.29264L180.652 1.09173C181.594 1.03089 182.543 1 183.5 1C184.457 1 185.406 1.03089 186.348 1.09173ZM175.01 1.82798L175.827 5.95762C174.131 6.29318 172.475 6.7379 170.865 7.28414L169.512 3.29778C171.296 2.69247 173.131 2.19972 175.01 1.82798ZM164.256 5.47728L166.121 9.25142C164.579 10.0134 163.093 10.874 161.673 11.825L159.331 8.3269C160.903 7.2742 162.548 6.32131 164.256 5.47728ZM154.818 11.7944L157.595 14.9583C156.305 16.0903 155.09 17.3054 153.958 18.5951L150.794 15.8182C152.047 14.3912 153.391 13.0469 154.818 11.7944ZM147.327 20.3307L150.825 22.6726C149.874 24.0932 149.013 25.5787 148.251 27.121L144.477 25.2563C145.321 23.548 146.274 21.9031 147.327 20.3307ZM142.298 30.5123L146.284 31.8652C145.738 33.4747 145.293 35.1312 144.958 36.8274L140.828 36.0105C141.2 34.1314 141.692 32.2958 142.298 30.5123ZM140.092 41.6522C140.031 42.5937 140 43.5432 140 44.5C140 45.4568 140.031 46.4063 140.092 47.3478L144.293 47.0763C144.238 46.2252 144.21 45.3661 144.21 44.5C144.21 43.6338 144.238 42.7748 144.293 41.9237L140.092 41.6522ZM140.828 52.9895L144.958 52.1726C145.293 53.8688 145.738 55.5253 146.284 57.1348L142.298 58.4877C141.692 56.7042 141.2 54.8686 140.828 52.9895ZM144.477 63.7437L148.251 61.879C149.013 63.4213 149.874 64.9068 150.825 66.3274L147.327 68.6693C146.274 67.0969 145.321 65.452 144.477 63.7437ZM150.794 73.1818L153.958 70.4049C155.09 71.6946 156.305 72.9097 157.595 74.0417L154.818 77.2056C153.391 75.9532 152.047 74.6088 150.794 73.1818ZM159.331 80.6731C160.903 81.7258 162.548 82.6787 164.256 83.5227L166.121 79.7486C164.579 78.9866 163.093 78.126 161.673 77.175L159.331 80.6731ZM169.512 85.7022L170.865 81.7159C172.475 82.2621 174.131 82.7068 175.827 83.0424L175.01 87.172C173.131 86.8003 171.296 86.3075 169.512 85.7022ZM180.652 87.9083L180.924 83.7074C181.775 83.7624 182.634 83.7903 183.5 83.7903C184.366 83.7903 185.225 83.7624 186.076 83.7074L186.348 87.9083C185.406 87.9691 184.457 88 183.5 88C182.543 88 181.594 87.9691 180.652 87.9083ZM191.99 87.172L191.173 83.0424C192.869 82.7068 194.525 82.2621 196.135 81.7159L197.488 85.7022C195.704 86.3075 193.869 86.8003 191.99 87.172ZM202.744 83.5227L200.879 79.7486C202.421 78.9866 203.907 78.126 205.327 77.175L207.669 80.6731C206.097 81.7258 204.452 82.6787 202.744 83.5227ZM212.182 77.2056C213.609 75.9531 214.953 74.6088 216.206 73.1818L213.042 70.4049C211.91 71.6946 210.695 72.9097 209.405 74.0417L212.182 77.2056ZM219.673 68.6693C220.726 67.0969 221.679 65.452 222.523 63.7437L218.749 61.879C217.987 63.4213 217.126 64.9068 216.175 66.3274L219.673 68.6693ZM224.702 58.4877L220.716 57.1348C221.262 55.5253 221.707 53.8688 222.042 52.1726L226.172 52.9895C225.8 54.8686 225.308 56.7042 224.702 58.4877Z" fill="#FDAC3A"/>
<path d="M185.785 45.7508L190.956 45.7461L190.95 37.1634L190.95 37.1621C190.934 33.8234 190.952 31.2234 191.255 29.1018C191.578 26.8388 192.185 25.4755 193.136 24.5249C194.748 22.9128 196.794 23.073 197.884 24.1633C198.542 24.821 198.909 25.8761 198.778 26.9781L198.39 30.238L201.65 29.8504C202.752 29.7194 203.807 30.0864 204.465 30.744C205.555 31.8343 205.716 33.8807 204.103 35.4928C203.153 36.4435 201.79 37.05 199.527 37.3733C197.516 37.6606 195.076 37.6914 191.985 37.6802L191.989 42.851C195.07 42.8632 197.867 42.8332 200.258 42.4916C203.093 42.0865 205.706 41.2023 207.759 39.1488C211.086 35.8226 211.523 30.4897 208.121 27.0881C207.002 25.9688 205.604 25.237 204.124 24.8896L203.812 24.8164L203.739 24.5044C203.391 23.0241 202.66 21.6266 201.54 20.5073C198.139 17.1057 192.806 17.5428 189.48 20.8689C187.426 22.9225 186.542 25.5354 186.137 28.3704C185.776 30.8932 185.763 33.8694 185.78 37.153L185.78 37.1552L185.785 45.7508Z" fill="#FDAC3A"/>
<path d="M182.882 51.9556L182.878 46.7853L191.473 46.7797L191.475 46.7797C194.759 46.7627 197.735 46.7762 200.258 47.1367C203.093 47.5418 205.706 48.426 207.759 50.4795C211.086 53.8057 211.523 59.1386 208.121 62.5402C207.002 63.6595 205.604 64.3913 204.124 64.7387L203.812 64.8119L203.739 65.1239C203.391 66.6042 202.66 68.0017 201.54 69.121C198.139 72.5227 192.806 72.0855 189.48 68.7594C187.426 66.7058 186.542 64.0929 186.137 61.2579C185.795 58.8674 185.765 56.0697 185.777 52.9893L190.948 52.9849C190.937 56.076 190.968 58.5161 191.255 60.5266C191.578 62.7895 192.185 64.1528 193.136 65.1034C194.748 66.7155 196.794 66.5553 197.884 65.465C198.542 64.8073 198.909 63.7522 198.778 62.6502L198.39 59.3903L201.65 59.7779C202.752 59.9089 203.807 59.5419 204.465 58.8843C205.555 57.794 205.716 55.7476 204.103 54.1355C203.153 53.1849 201.79 52.5784 199.527 52.255C197.405 51.9518 194.805 51.9343 191.466 51.9503L191.465 51.9504L182.882 51.9556Z" fill="#FDAC3A"/>
<path d="M176.673 43.8822L181.843 43.8775L181.849 52.4731L181.849 52.4753C181.866 55.7589 181.852 58.7351 181.492 61.2579C181.087 64.093 180.202 66.7058 178.149 68.7594C174.823 72.0855 169.49 72.5227 166.088 69.121C164.969 68.0017 164.237 66.6042 163.89 65.1239L163.816 64.8119L163.504 64.7387C162.024 64.3913 160.627 63.6595 159.507 62.5402C156.106 59.1386 156.543 53.8057 159.869 50.4795C161.923 48.426 164.535 47.5418 167.37 47.1367C169.761 46.7951 172.559 46.7651 175.639 46.7773L175.644 51.9481C172.552 51.9369 170.112 51.9677 168.102 52.255C165.839 52.5784 164.476 53.1849 163.525 54.1355C161.913 55.7476 162.073 57.794 163.163 58.8843C163.821 59.5419 164.876 59.9089 165.978 59.7779L169.238 59.3903L168.85 62.6502C168.719 63.7522 169.086 64.8073 169.744 65.465C170.834 66.5553 172.881 66.7155 174.493 65.1034C175.444 64.1528 176.05 62.7895 176.373 60.5266C176.677 58.4048 176.694 55.8037 176.678 52.4649L176.673 43.8822Z" fill="#FDAC3A"/>
<path d="M184.746 37.6727L184.751 42.843L176.155 42.8486L176.153 42.8486C172.869 42.8656 169.893 42.8521 167.37 42.4916C164.535 42.0865 161.923 41.2023 159.869 39.1488C156.543 35.8226 156.106 30.4897 159.507 27.0881C160.627 25.9688 162.024 25.237 163.504 24.8896L163.816 24.8164L163.89 24.5044C164.237 23.0241 164.969 21.6266 166.088 20.5073C169.49 17.1057 174.823 17.5428 178.149 20.8689C180.202 22.9225 181.087 25.5354 181.492 28.3704C181.833 30.7609 181.863 33.5586 181.851 36.639L176.68 36.6435C176.691 33.5523 176.661 31.1122 176.373 29.1018C176.05 26.8388 175.444 25.4755 174.493 24.5249C172.881 22.9128 170.834 23.073 169.744 24.1633C169.086 24.821 168.719 25.8761 168.85 26.9781L169.238 30.238L165.978 29.8504C164.876 29.7194 163.821 30.0864 163.163 30.744C162.073 31.8343 161.913 33.8807 163.525 35.4928C164.476 36.4434 165.839 37.0499 168.102 37.3733C170.223 37.6765 172.823 37.694 176.162 37.678L176.163 37.678L184.746 37.6727Z" fill="#FDAC3A"/>
<path d="M231 591.5C231 616.077 211.077 636 186.5 636C161.923 636 142 616.077 142 591.5C142 566.923 161.923 547 186.5 547C211.077 547 231 566.923 231 591.5Z" fill="#F0DF48"/>
<path fill-rule="evenodd" clip-rule="evenodd" d="M186.5 634.609C210.309 634.609 229.609 615.309 229.609 591.5C229.609 567.691 210.309 548.391 186.5 548.391C162.691 548.391 143.391 567.691 143.391 591.5C143.391 615.309 162.691 634.609 186.5 634.609ZM186.5 636C211.077 636 231 616.077 231 591.5C231 566.923 211.077 547 186.5 547C161.923 547 142 566.923 142 591.5C142 616.077 161.923 636 186.5 636Z" fill="#FDAC3A"/>
<path fill-rule="evenodd" clip-rule="evenodd" d="M229.908 594.348L225.707 594.076C225.762 593.225 225.79 592.366 225.79 591.5C225.79 590.634 225.762 589.775 225.707 588.924L229.908 588.652C229.969 589.594 230 590.543 230 591.5C230 592.457 229.969 593.406 229.908 594.348ZM229.172 583.01L225.042 583.827C224.707 582.131 224.262 580.475 223.716 578.865L227.702 577.512C228.308 579.296 228.8 581.131 229.172 583.01ZM225.523 572.256L221.749 574.121C220.987 572.579 220.126 571.093 219.175 569.673L222.673 567.331C223.726 568.903 224.679 570.548 225.523 572.256ZM219.206 562.818L216.042 565.595C214.91 564.305 213.695 563.09 212.405 561.958L215.182 558.794C216.609 560.047 217.953 561.391 219.206 562.818ZM210.669 555.327L208.327 558.825C206.907 557.874 205.421 557.013 203.879 556.251L205.744 552.477C207.452 553.321 209.097 554.274 210.669 555.327ZM200.488 550.298L199.135 554.284C197.525 553.738 195.869 553.293 194.173 552.958L194.99 548.828C196.869 549.2 198.704 549.692 200.488 550.298ZM189.348 548.092L189.076 552.293C188.225 552.238 187.366 552.21 186.5 552.21C185.634 552.21 184.775 552.238 183.924 552.293L183.652 548.092C184.594 548.031 185.543 548 186.5 548C187.457 548 188.406 548.031 189.348 548.092ZM178.01 548.828L178.827 552.958C177.131 553.293 175.475 553.738 173.865 554.284L172.512 550.298C174.296 549.692 176.131 549.2 178.01 548.828ZM167.256 552.477L169.121 556.251C167.579 557.013 166.093 557.874 164.673 558.825L162.331 555.327C163.903 554.274 165.548 553.321 167.256 552.477ZM157.818 558.794L160.595 561.958C159.305 563.09 158.09 564.305 156.958 565.595L153.794 562.818C155.047 561.391 156.391 560.047 157.818 558.794ZM150.327 567.331L153.825 569.673C152.874 571.093 152.013 572.579 151.251 574.121L147.477 572.256C148.321 570.548 149.274 568.903 150.327 567.331ZM145.298 577.512L149.284 578.865C148.738 580.475 148.293 582.131 147.958 583.827L143.828 583.01C144.2 581.131 144.692 579.296 145.298 577.512ZM143.092 588.652C143.031 589.594 143 590.543 143 591.5C143 592.457 143.031 593.406 143.092 594.348L147.293 594.076C147.238 593.225 147.21 592.366 147.21 591.5C147.21 590.634 147.238 589.775 147.293 588.924L143.092 588.652ZM143.828 599.99L147.958 599.173C148.293 600.869 148.738 602.525 149.284 604.135L145.298 605.488C144.692 603.704 144.2 601.869 143.828 599.99ZM147.477 610.744L151.251 608.879C152.013 610.421 152.874 611.907 153.825 613.327L150.327 615.669C149.274 614.097 148.321 612.452 147.477 610.744ZM153.794 620.182L156.958 617.405C158.09 618.695 159.305 619.91 160.595 621.042L157.818 624.206C156.391 622.953 155.047 621.609 153.794 620.182ZM162.331 627.673C163.903 628.726 165.548 629.679 167.256 630.523L169.121 626.749C167.579 625.987 166.093 625.126 164.673 624.175L162.331 627.673ZM172.512 632.702L173.865 628.716C175.475 629.262 177.131 629.707 178.827 630.042L178.01 634.172C176.131 633.8 174.296 633.308 172.512 632.702ZM183.652 634.908L183.924 630.707C184.775 630.762 185.634 630.79 186.5 630.79C187.366 630.79 188.225 630.762 189.076 630.707L189.348 634.908C188.406 634.969 187.457 635 186.5 635C185.543 635 184.594 634.969 183.652 634.908ZM194.99 634.172L194.173 630.042C195.869 629.707 197.525 629.262 199.135 628.716L200.488 632.702C198.704 633.308 196.869 633.8 194.99 634.172ZM205.744 630.523L203.879 626.749C205.421 625.987 206.907 625.126 208.327 624.175L210.669 627.673C209.097 628.726 207.452 629.679 205.744 630.523ZM215.182 624.206C216.609 622.953 217.953 621.609 219.206 620.182L216.042 617.405C214.91 618.695 213.695 619.91 212.405 621.042L215.182 624.206ZM222.673 615.669C223.726 614.097 224.679 612.452 225.523 610.744L221.749 608.879C220.987 610.421 220.126 611.907 219.175 613.327L222.673 615.669ZM227.702 605.488L223.716 604.135C224.262 602.525 224.707 600.869 225.042 599.173L229.172 599.99C228.8 601.869 228.308 603.704 227.702 605.488Z" fill="#FDAC3A"/>
<path d="M188.785 592.751L193.956 592.746L193.95 584.163L193.95 584.162C193.934 580.823 193.952 578.223 194.255 576.102C194.578 573.839 195.185 572.476 196.136 571.525C197.748 569.913 199.794 570.073 200.884 571.163C201.542 571.821 201.909 572.876 201.778 573.978L201.39 577.238L204.65 576.85C205.752 576.719 206.807 577.086 207.465 577.744C208.555 578.834 208.716 580.881 207.103 582.493C206.153 583.443 204.79 584.05 202.527 584.373C200.516 584.661 198.076 584.691 194.985 584.68L194.989 589.851C198.07 589.863 200.867 589.833 203.258 589.492C206.093 589.087 208.706 588.202 210.759 586.149C214.086 582.823 214.523 577.49 211.121 574.088C210.002 572.969 208.604 572.237 207.124 571.89L206.812 571.816L206.739 571.504C206.391 570.024 205.66 568.627 204.54 567.507C201.139 564.106 195.806 564.543 192.48 567.869C190.426 569.922 189.542 572.535 189.137 575.37C188.776 577.893 188.763 580.869 188.78 584.153L188.78 584.155L188.785 592.751Z" fill="#FDAC3A"/>
<path d="M185.882 598.956L185.878 593.785L194.473 593.78L194.475 593.78C197.759 593.763 200.735 593.776 203.258 594.137C206.093 594.542 208.706 595.426 210.759 597.48C214.086 600.806 214.523 606.139 211.121 609.54C210.002 610.659 208.604 611.391 207.124 611.739L206.812 611.812L206.739 612.124C206.391 613.604 205.66 615.002 204.54 616.121C201.139 619.523 195.806 619.086 192.48 615.759C190.426 613.706 189.542 611.093 189.137 608.258C188.795 605.867 188.765 603.07 188.777 599.989L193.948 599.985C193.937 603.076 193.968 605.516 194.255 607.527C194.578 609.789 195.185 611.153 196.136 612.103C197.748 613.716 199.794 613.555 200.884 612.465C201.542 611.807 201.909 610.752 201.778 609.65L201.39 606.39L204.65 606.778C205.752 606.909 206.807 606.542 207.465 605.884C208.555 604.794 208.716 602.748 207.103 601.135C206.153 600.185 204.79 599.578 202.527 599.255C200.405 598.952 197.805 598.934 194.466 598.95L194.465 598.95L185.882 598.956Z" fill="#FDAC3A"/>
<path d="M179.673 590.882L184.843 590.878L184.849 599.473L184.849 599.475C184.866 602.759 184.852 605.735 184.492 608.258C184.087 611.093 183.202 613.706 181.149 615.759C177.823 619.086 172.49 619.523 169.088 616.121C167.969 615.002 167.237 613.604 166.89 612.124L166.816 611.812L166.504 611.739C165.024 611.391 163.627 610.659 162.507 609.54C159.106 606.139 159.543 600.806 162.869 597.48C164.923 595.426 167.535 594.542 170.37 594.137C172.761 593.795 175.559 593.765 178.639 593.777L178.644 598.948C175.552 598.937 173.112 598.968 171.102 599.255C168.839 599.578 167.476 600.185 166.525 601.135C164.913 602.748 165.073 604.794 166.163 605.884C166.821 606.542 167.876 606.909 168.978 606.778L172.238 606.39L171.85 609.65C171.719 610.752 172.086 611.807 172.744 612.465C173.834 613.555 175.881 613.716 177.493 612.103C178.444 611.153 179.05 609.789 179.373 607.527C179.677 605.405 179.694 602.804 179.678 599.465L179.673 590.882Z" fill="#FDAC3A"/>
<path d="M187.746 584.673L187.751 589.843L179.155 589.849L179.153 589.849C175.869 589.866 172.893 589.852 170.37 589.492C167.535 589.087 164.923 588.202 162.869 586.149C159.543 582.823 159.106 577.49 162.507 574.088C163.627 572.969 165.024 572.237 166.504 571.89L166.816 571.816L166.89 571.504C167.237 570.024 167.969 568.627 169.088 567.507C172.49 564.106 177.823 564.543 181.149 567.869C183.202 569.922 184.087 572.535 184.492 575.37C184.833 577.761 184.863 580.559 184.851 583.639L179.68 583.643C179.691 580.552 179.661 578.112 179.373 576.102C179.05 573.839 178.444 572.476 177.493 571.525C175.881 569.913 173.834 570.073 172.744 571.163C172.086 571.821 171.719 572.876 171.85 573.978L172.238 577.238L168.978 576.85C167.876 576.719 166.821 577.086 166.163 577.744C165.073 578.834 164.913 580.881 166.525 582.493C167.476 583.443 168.839 584.05 171.102 584.373C173.223 584.676 175.823 584.694 179.162 584.678L179.163 584.678L187.746 584.673Z" fill="#FDAC3A"/>
<path d="M92 671.5C92 696.077 72.0767 716 47.5 716C22.9233 716 3 696.077 3 671.5C3 646.923 22.9233 627 47.5 627C72.0767 627 92 646.923 92 671.5Z" fill="#F0DF48"/>
<path fill-rule="evenodd" clip-rule="evenodd" d="M47.5 714.609C71.3086 714.609 90.6094 695.309 90.6094 671.5C90.6094 647.691 71.3086 628.391 47.5 628.391C23.6914 628.391 4.39062 647.691 4.39062 671.5C4.39062 695.309 23.6914 714.609 47.5 714.609ZM47.5 716C72.0767 716 92 696.077 92 671.5C92 646.923 72.0767 627 47.5 627C22.9233 627 3 646.923 3 671.5C3 696.077 22.9233 716 47.5 716Z" fill="#FDAC3A"/>
<path fill-rule="evenodd" clip-rule="evenodd" d="M90.9083 674.348L86.7074 674.076C86.7624 673.225 86.7903 672.366 86.7903 671.5C86.7903 670.634 86.7624 669.775 86.7074 668.924L90.9083 668.652C90.9691 669.594 91 670.543 91 671.5C91 672.457 90.9691 673.406 90.9083 674.348ZM90.172 663.01L86.0424 663.827C85.7068 662.131 85.2621 660.475 84.7159 658.865L88.7022 657.512C89.3075 659.296 89.8003 661.131 90.172 663.01ZM86.5227 652.256L82.7486 654.121C81.9866 652.579 81.126 651.093 80.175 649.673L83.6731 647.331C84.7258 648.903 85.6787 650.548 86.5227 652.256ZM80.2056 642.818L77.0417 645.595C75.9097 644.305 74.6946 643.09 73.4049 641.958L76.1818 638.794C77.6088 640.047 78.9531 641.391 80.2056 642.818ZM71.6693 635.327L69.3274 638.825C67.9068 637.874 66.4213 637.013 64.879 636.251L66.7437 632.477C68.452 633.321 70.0969 634.274 71.6693 635.327ZM61.4877 630.298L60.1348 634.284C58.5253 633.738 56.8688 633.293 55.1726 632.958L55.9895 628.828C57.8686 629.2 59.7042 629.692 61.4877 630.298ZM50.3478 628.092L50.0763 632.293C49.2252 632.238 48.3661 632.21 47.5 632.21C46.6338 632.21 45.7748 632.238 44.9237 632.293L44.6522 628.092C45.5937 628.031 46.5432 628 47.5 628C48.4568 628 49.4063 628.031 50.3478 628.092ZM39.0105 628.828L39.8274 632.958C38.1312 633.293 36.4747 633.738 34.8652 634.284L33.5123 630.298C35.2958 629.692 37.1314 629.2 39.0105 628.828ZM28.2563 632.477L30.121 636.251C28.5787 637.013 27.0932 637.874 25.6726 638.825L23.3307 635.327C24.9031 634.274 26.548 633.321 28.2563 632.477ZM18.8182 638.794L21.5951 641.958C20.3054 643.09 19.0903 644.305 17.9583 645.595L14.7944 642.818C16.0468 641.391 17.3912 640.047 18.8182 638.794ZM11.3269 647.331L14.825 649.673C13.874 651.093 13.0134 652.579 12.2514 654.121L8.47728 652.256C9.32131 650.548 10.2742 648.903 11.3269 647.331ZM6.29778 657.512L10.2841 658.865C9.7379 660.475 9.29318 662.131 8.95762 663.827L4.82798 663.01C5.19972 661.131 5.69247 659.296 6.29778 657.512ZM4.09173 668.652C4.03089 669.594 4 670.543 4 671.5C4 672.457 4.03089 673.406 4.09173 674.348L8.29264 674.076C8.23764 673.225 8.20968 672.366 8.20968 671.5C8.20968 670.634 8.23764 669.775 8.29264 668.924L4.09173 668.652ZM4.82798 679.99L8.95762 679.173C9.29318 680.869 9.7379 682.525 10.2841 684.135L6.29778 685.488C5.69247 683.704 5.19972 681.869 4.82798 679.99ZM8.47728 690.744L12.2514 688.879C13.0134 690.421 13.874 691.907 14.825 693.327L11.3269 695.669C10.2742 694.097 9.32131 692.452 8.47728 690.744ZM14.7944 700.182L17.9583 697.405C19.0903 698.695 20.3054 699.91 21.5951 701.042L18.8182 704.206C17.3912 702.953 16.0469 701.609 14.7944 700.182ZM23.3307 707.673C24.9031 708.726 26.548 709.679 28.2563 710.523L30.121 706.749C28.5787 705.987 27.0932 705.126 25.6726 704.175L23.3307 707.673ZM33.5123 712.702L34.8652 708.716C36.4747 709.262 38.1312 709.707 39.8274 710.042L39.0105 714.172C37.1314 713.8 35.2958 713.308 33.5123 712.702ZM44.6522 714.908L44.9237 710.707C45.7748 710.762 46.6338 710.79 47.5 710.79C48.3661 710.79 49.2252 710.762 50.0763 710.707L50.3478 714.908C49.4063 714.969 48.4568 715 47.5 715C46.5432 715 45.5937 714.969 44.6522 714.908ZM55.9895 714.172L55.1726 710.042C56.8688 709.707 58.5253 709.262 60.1348 708.716L61.4877 712.702C59.7042 713.308 57.8686 713.8 55.9895 714.172ZM66.7437 710.523L64.879 706.749C66.4213 705.987 67.9068 705.126 69.3274 704.175L71.6693 707.673C70.0969 708.726 68.452 709.679 66.7437 710.523ZM76.1818 704.206C77.6088 702.953 78.9532 701.609 80.2056 700.182L77.0417 697.405C75.9097 698.695 74.6946 699.91 73.4049 701.042L76.1818 704.206ZM83.6731 695.669C84.7258 694.097 85.6787 692.452 86.5227 690.744L82.7486 688.879C81.9866 690.421 81.126 691.907 80.175 693.327L83.6731 695.669ZM88.7022 685.488L84.7159 684.135C85.2621 682.525 85.7068 680.869 86.0424 679.173L90.172 679.99C89.8003 681.869 89.3075 683.704 88.7022 685.488Z" fill="#FDAC3A"/>
<path d="M49.7854 672.751L54.9557 672.746L54.9504 664.163L54.9504 664.162C54.9343 660.823 54.9519 658.223 55.2551 656.102C55.5784 653.839 56.1849 652.476 57.1355 651.525C58.7476 649.913 60.7941 650.073 61.8843 651.163C62.542 651.821 62.909 652.876 62.778 653.978L62.3903 657.238L65.6503 656.85C66.7523 656.719 67.8074 657.086 68.4651 657.744C69.5553 658.834 69.7156 660.881 68.1035 662.493C67.1528 663.443 65.7895 664.05 63.5266 664.373C61.5161 664.661 59.076 664.691 55.9849 664.68L55.9893 669.851C59.0698 669.863 61.8674 669.833 64.258 669.492C67.093 669.087 69.7059 668.202 71.7594 666.149C75.0856 662.823 75.5227 657.49 72.121 654.088C71.0018 652.969 69.6043 652.237 68.124 651.89L67.8119 651.816L67.7387 651.504C67.3913 650.024 66.6596 648.627 65.5403 647.507C62.1386 644.106 56.8057 644.543 53.4796 647.869C51.426 649.922 50.5418 652.535 50.1367 655.37C49.7762 657.893 49.7628 660.869 49.7797 664.153L49.7797 664.155L49.7854 672.751Z" fill="#FDAC3A"/>
<path d="M46.8823 678.956L46.8776 673.785L55.4732 673.78L55.4754 673.78C58.7589 673.763 61.7352 673.776 64.258 674.137C67.093 674.542 69.7059 675.426 71.7594 677.48C75.0856 680.806 75.5227 686.139 72.121 689.54C71.0018 690.659 69.6043 691.391 68.124 691.739L67.8119 691.812L67.7387 692.124C67.3913 693.604 66.6596 695.002 65.5403 696.121C62.1386 699.523 56.8057 699.086 53.4796 695.759C51.426 693.706 50.5418 691.093 50.1367 688.258C49.7951 685.867 49.7651 683.07 49.7774 679.989L54.9482 679.985C54.9369 683.076 54.9678 685.516 55.2551 687.527C55.5784 689.789 56.1849 691.153 57.1355 692.103C58.7477 693.716 60.7941 693.555 61.8843 692.465C62.542 691.807 62.909 690.752 62.778 689.65L62.3903 686.39L65.6503 686.778C66.7523 686.909 67.8074 686.542 68.4651 685.884C69.5553 684.794 69.7156 682.748 68.1035 681.135C67.1528 680.185 65.7895 679.578 63.5266 679.255C61.405 678.952 58.8049 678.934 55.4663 678.95L55.4649 678.95L46.8823 678.956Z" fill="#FDAC3A"/>
<path d="M40.6727 670.882L45.8431 670.878L45.8487 679.473L45.8487 679.475C45.8657 682.759 45.8522 685.735 45.4917 688.258C45.0866 691.093 44.2024 693.706 42.1489 695.759C38.8227 699.086 33.4898 699.523 30.0881 696.121C28.9689 695.002 28.2371 693.604 27.8897 692.124L27.8165 691.812L27.5045 691.739C26.0241 691.391 24.6266 690.659 23.5074 689.54C20.1057 686.139 20.5428 680.806 23.869 677.48C25.9225 675.426 28.5354 674.542 31.3704 674.137C33.761 673.795 36.5586 673.765 39.6391 673.777L39.6435 678.948C36.5524 678.937 34.1123 678.968 32.1018 679.255C29.8389 679.578 28.4756 680.185 27.525 681.135C25.9129 682.748 26.0731 684.794 27.1634 685.884C27.821 686.542 28.8761 686.909 29.9781 686.778L33.2381 686.39L32.8505 689.65C32.7194 690.752 33.0864 691.807 33.7441 692.465C34.8344 693.555 36.8808 693.716 38.4929 692.103C39.4435 691.153 40.05 689.789 40.3734 687.527C40.6766 685.405 40.6941 682.804 40.678 679.465L40.6727 670.882Z" fill="#FDAC3A"/>
<path d="M48.7461 664.673L48.7508 669.843L40.1552 669.849L40.153 669.849C36.8695 669.866 33.8933 669.852 31.3704 669.492C28.5354 669.087 25.9225 668.202 23.869 666.149C20.5428 662.823 20.1057 657.49 23.5074 654.088C24.6266 652.969 26.0241 652.237 27.5045 651.89L27.8165 651.816L27.8897 651.504C28.2371 650.024 28.9689 648.627 30.0881 647.507C33.4898 644.106 38.8227 644.543 42.1489 647.869C44.2024 649.922 45.0866 652.535 45.4917 655.37C45.8333 657.761 45.8633 660.559 45.8511 663.639L40.6802 663.643C40.6915 660.552 40.6607 658.112 40.3734 656.102C40.05 653.839 39.4435 652.476 38.4929 651.525C36.8808 649.913 34.8344 650.073 33.7441 651.163C33.0864 651.821 32.7194 652.876 32.8505 653.978L33.2381 657.238L29.9781 656.85C28.8761 656.719 27.821 657.086 27.1634 657.744C26.0731 658.834 25.9129 660.881 27.525 662.493C28.4756 663.443 29.8389 664.05 32.1018 664.373C34.2234 664.676 36.8233 664.694 40.1618 664.678L40.1635 664.678L48.7461 664.673Z" fill="#FDAC3A"/>
<path d="M220 787.5C220 812.077 200.077 832 175.5 832C150.923 832 131 812.077 131 787.5C131 762.923 150.923 743 175.5 743C200.077 743 220 762.923 220 787.5Z" fill="#F0DF48"/>
<path fill-rule="evenodd" clip-rule="evenodd" d="M175.5 830.609C199.309 830.609 218.609 811.309 218.609 787.5C218.609 763.691 199.309 744.391 175.5 744.391C151.691 744.391 132.391 763.691 132.391 787.5C132.391 811.309 151.691 830.609 175.5 830.609ZM175.5 832C200.077 832 220 812.077 220 787.5C220 762.923 200.077 743 175.5 743C150.923 743 131 762.923 131 787.5C131 812.077 150.923 832 175.5 832Z" fill="#FDAC3A"/>
<path fill-rule="evenodd" clip-rule="evenodd" d="M218.908 790.348L214.707 790.076C214.762 789.225 214.79 788.366 214.79 787.5C214.79 786.634 214.762 785.775 214.707 784.924L218.908 784.652C218.969 785.594 219 786.543 219 787.5C219 788.457 218.969 789.406 218.908 790.348ZM218.172 779.01L214.042 779.827C213.707 778.131 213.262 776.475 212.716 774.865L216.702 773.512C217.308 775.296 217.8 777.131 218.172 779.01ZM214.523 768.256L210.749 770.121C209.987 768.579 209.126 767.093 208.175 765.673L211.673 763.331C212.726 764.903 213.679 766.548 214.523 768.256ZM208.206 758.818L205.042 761.595C203.91 760.305 202.695 759.09 201.405 757.958L204.182 754.794C205.609 756.047 206.953 757.391 208.206 758.818ZM199.669 751.327L197.327 754.825C195.907 753.874 194.421 753.013 192.879 752.251L194.744 748.477C196.452 749.321 198.097 750.274 199.669 751.327ZM189.488 746.298L188.135 750.284C186.525 749.738 184.869 749.293 183.173 748.958L183.99 744.828C185.869 745.2 187.704 745.692 189.488 746.298ZM178.348 744.092L178.076 748.293C177.225 748.238 176.366 748.21 175.5 748.21C174.634 748.21 173.775 748.238 172.924 748.293L172.652 744.092C173.594 744.031 174.543 744 175.5 744C176.457 744 177.406 744.031 178.348 744.092ZM167.01 744.828L167.827 748.958C166.131 749.293 164.475 749.738 162.865 750.284L161.512 746.298C163.296 745.692 165.131 745.2 167.01 744.828ZM156.256 748.477L158.121 752.251C156.579 753.013 155.093 753.874 153.673 754.825L151.331 751.327C152.903 750.274 154.548 749.321 156.256 748.477ZM146.818 754.794L149.595 757.958C148.305 759.09 147.09 760.305 145.958 761.595L142.794 758.818C144.047 757.391 145.391 756.047 146.818 754.794ZM139.327 763.331L142.825 765.673C141.874 767.093 141.013 768.579 140.251 770.121L136.477 768.256C137.321 766.548 138.274 764.903 139.327 763.331ZM134.298 773.512L138.284 774.865C137.738 776.475 137.293 778.131 136.958 779.827L132.828 779.01C133.2 777.131 133.692 775.296 134.298 773.512ZM132.092 784.652C132.031 785.594 132 786.543 132 787.5C132 788.457 132.031 789.406 132.092 790.348L136.293 790.076C136.238 789.225 136.21 788.366 136.21 787.5C136.21 786.634 136.238 785.775 136.293 784.924L132.092 784.652ZM132.828 795.99L136.958 795.173C137.293 796.869 137.738 798.525 138.284 800.135L134.298 801.488C133.692 799.704 133.2 797.869 132.828 795.99ZM136.477 806.744L140.251 804.879C141.013 806.421 141.874 807.907 142.825 809.327L139.327 811.669C138.274 810.097 137.321 808.452 136.477 806.744ZM142.794 816.182L145.958 813.405C147.09 814.695 148.305 815.91 149.595 817.042L146.818 820.206C145.391 818.953 144.047 817.609 142.794 816.182ZM151.331 823.673C152.903 824.726 154.548 825.679 156.256 826.523L158.121 822.749C156.579 821.987 155.093 821.126 153.673 820.175L151.331 823.673ZM161.512 828.702L162.865 824.716C164.475 825.262 166.131 825.707 167.827 826.042L167.01 830.172C165.131 829.8 163.296 829.308 161.512 828.702ZM172.652 830.908L172.924 826.707C173.775 826.762 174.634 826.79 175.5 826.79C176.366 826.79 177.225 826.762 178.076 826.707L178.348 830.908C177.406 830.969 176.457 831 175.5 831C174.543 831 173.594 830.969 172.652 830.908ZM183.99 830.172L183.173 826.042C184.869 825.707 186.525 825.262 188.135 824.716L189.488 828.702C187.704 829.308 185.869 829.8 183.99 830.172ZM194.744 826.523L192.879 822.749C194.421 821.987 195.907 821.126 197.327 820.175L199.669 823.673C198.097 824.726 196.452 825.679 194.744 826.523ZM204.182 820.206C205.609 818.953 206.953 817.609 208.206 816.182L205.042 813.405C203.91 814.695 202.695 815.91 201.405 817.042L204.182 820.206ZM211.673 811.669C212.726 810.097 213.679 808.452 214.523 806.744L210.749 804.879C209.987 806.421 209.126 807.907 208.175 809.327L211.673 811.669ZM216.702 801.488L212.716 800.135C213.262 798.525 213.707 796.869 214.042 795.173L218.172 795.99C217.8 797.869 217.308 799.704 216.702 801.488Z" fill="#FDAC3A"/>
<path d="M177.785 788.751L182.956 788.746L182.95 780.163L182.95 780.162C182.934 776.823 182.952 774.223 183.255 772.102C183.578 769.839 184.185 768.476 185.136 767.525C186.748 765.913 188.794 766.073 189.884 767.163C190.542 767.821 190.909 768.876 190.778 769.978L190.39 773.238L193.65 772.85C194.752 772.719 195.807 773.086 196.465 773.744C197.555 774.834 197.716 776.881 196.103 778.493C195.153 779.443 193.79 780.05 191.527 780.373C189.516 780.661 187.076 780.691 183.985 780.68L183.989 785.851C187.07 785.863 189.867 785.833 192.258 785.492C195.093 785.087 197.706 784.202 199.759 782.149C203.086 778.823 203.523 773.49 200.121 770.088C199.002 768.969 197.604 768.237 196.124 767.89L195.812 767.816L195.739 767.504C195.391 766.024 194.66 764.627 193.54 763.507C190.139 760.106 184.806 760.543 181.48 763.869C179.426 765.922 178.542 768.535 178.137 771.37C177.776 773.893 177.763 776.869 177.78 780.153L177.78 780.155L177.785 788.751Z" fill="#FDAC3A"/>
<path d="M174.882 794.956L174.878 789.785L183.473 789.78L183.475 789.78C186.759 789.763 189.735 789.776 192.258 790.137C195.093 790.542 197.706 791.426 199.759 793.48C203.086 796.806 203.523 802.139 200.121 805.54C199.002 806.659 197.604 807.391 196.124 807.739L195.812 807.812L195.739 808.124C195.391 809.604 194.66 811.002 193.54 812.121C190.139 815.523 184.806 815.086 181.48 811.759C179.426 809.706 178.542 807.093 178.137 804.258C177.795 801.867 177.765 799.07 177.777 795.989L182.948 795.985C182.937 799.076 182.968 801.516 183.255 803.527C183.578 805.789 184.185 807.153 185.136 808.103C186.748 809.716 188.794 809.555 189.884 808.465C190.542 807.807 190.909 806.752 190.778 805.65L190.39 802.39L193.65 802.778C194.752 802.909 195.807 802.542 196.465 801.884C197.555 800.794 197.716 798.748 196.103 797.135C195.153 796.185 193.79 795.578 191.527 795.255C189.405 794.952 186.805 794.934 183.466 794.95L183.465 794.95L174.882 794.956Z" fill="#FDAC3A"/>
<path d="M168.673 786.882L173.843 786.878L173.849 795.473L173.849 795.475C173.866 798.759 173.852 801.735 173.492 804.258C173.087 807.093 172.202 809.706 170.149 811.759C166.823 815.086 161.49 815.523 158.088 812.121C156.969 811.002 156.237 809.604 155.89 808.124L155.816 807.812L155.504 807.739C154.024 807.391 152.627 806.659 151.507 805.54C148.106 802.139 148.543 796.806 151.869 793.48C153.923 791.426 156.535 790.542 159.37 790.137C161.761 789.795 164.559 789.765 167.639 789.777L167.644 794.948C164.552 794.937 162.112 794.968 160.102 795.255C157.839 795.578 156.476 796.185 155.525 797.135C153.913 798.748 154.073 800.794 155.163 801.884C155.821 802.542 156.876 802.909 157.978 802.778L161.238 802.39L160.85 805.65C160.719 806.752 161.086 807.807 161.744 808.465C162.834 809.555 164.881 809.716 166.493 808.103C167.444 807.153 168.05 805.789 168.373 803.527C168.677 801.405 168.694 798.804 168.678 795.465L168.673 786.882Z" fill="#FDAC3A"/>
<path d="M176.746 780.673L176.751 785.843L168.155 785.849L168.153 785.849C164.869 785.866 161.893 785.852 159.37 785.492C156.535 785.087 153.923 784.202 151.869 782.149C148.543 778.823 148.106 773.49 151.507 770.088C152.627 768.969 154.024 768.237 155.504 767.89L155.816 767.816L155.89 767.504C156.237 766.024 156.969 764.627 158.088 763.507C161.49 760.106 166.823 760.543 170.149 763.869C172.202 765.922 173.087 768.535 173.492 771.37C173.833 773.761 173.863 776.559 173.851 779.639L168.68 779.643C168.691 776.552 168.661 774.112 168.373 772.102C168.05 769.839 167.444 768.476 166.493 767.525C164.881 765.913 162.834 766.073 161.744 767.163C161.086 767.821 160.719 768.876 160.85 769.978L161.238 773.238L157.978 772.85C156.876 772.719 155.821 773.086 155.163 773.744C154.073 774.834 153.913 776.881 155.525 778.493C156.476 779.443 157.839 780.05 160.102 780.373C162.223 780.676 164.823 780.694 168.162 780.678L168.163 780.678L176.746 780.673Z" fill="#FDAC3A"/>
</svg>
