<svg width="46" height="46" viewBox="0 0 46 46" fill="none" xmlns="http://www.w3.org/2000/svg">
<path d="M24.5816 22.4373L27.3914 19.6225L22.7201 14.957L22.7194 14.9563C20.8946 13.149 19.4899 11.7252 18.5008 10.4063C17.4458 8.99952 17.0342 7.92808 17.0342 6.89393C17.0342 5.14018 18.2345 4.11423 19.4205 4.11423C20.1359 4.11423 20.9095 4.48852 21.4376 5.1592L23 7.14323L24.5623 5.1592C25.0905 4.48852 25.864 4.11423 26.5794 4.11423C27.7655 4.11423 28.9658 5.14018 28.9658 6.89393C28.9658 7.92808 28.5541 8.99952 27.4991 10.4063C26.5618 11.6561 25.2513 13.0001 23.5639 14.6754L26.3789 17.4855C28.0611 15.8166 29.5665 14.2786 30.681 12.7925C32.0027 11.0301 32.943 9.1279 32.943 6.89393C32.943 3.27551 30.28 0.137039 26.5794 0.137039C25.3618 0.137039 24.2037 0.499131 23.2095 1.11537L23 1.24526L22.7904 1.11537C21.7963 0.499131 20.6381 0.137039 19.4205 0.13704C15.7199 0.13704 13.057 3.27551 13.057 6.89393C13.057 9.1279 13.9973 11.0301 15.319 12.7925C16.4951 14.3608 18.1067 15.987 19.9019 17.7638L19.9031 17.765L24.5816 22.4373Z" fill="black"/>
<path d="M26.3775 27.3914L23.5627 24.5817L28.235 19.9032L28.2362 19.902C30.013 18.1067 31.6392 16.4952 33.2075 15.319C34.9699 13.9974 36.8721 13.0571 39.1061 13.0571C42.7245 13.0571 45.863 15.72 45.863 19.4206C45.863 20.6382 45.5009 21.7964 44.8846 22.7905L44.7548 23L44.8846 23.2096C45.5009 24.2037 45.863 25.3619 45.863 26.5795C45.863 30.2801 42.7245 32.943 39.1061 32.943C36.8721 32.943 34.97 32.0027 33.2076 30.681C31.7214 29.5666 30.1834 28.0611 28.5145 26.3789L31.3247 23.564C32.9999 25.2514 34.3439 26.5619 35.5937 27.4992C37.0005 28.5542 38.0719 28.9658 39.1061 28.9658C40.8598 28.9658 41.8858 27.7656 41.8858 26.5795C41.8858 25.8641 41.5115 25.0905 40.8408 24.5624L38.8568 23L40.8408 21.4377C41.5115 20.9096 41.8858 20.136 41.8858 19.4206C41.8858 18.2345 40.8598 17.0343 39.1061 17.0343C38.0719 17.0343 37.0005 17.4459 35.5937 18.5009C34.2748 19.49 32.851 20.8947 31.0438 22.7195L31.043 22.7202L26.3775 27.3914Z" fill="black"/>
<path d="M18.6086 26.3776L21.4183 23.5628L26.0968 28.2351L26.098 28.2363C27.8933 30.0131 29.5048 31.6393 30.681 33.2076C32.0027 34.97 32.943 36.8722 32.943 39.1062C32.943 42.7246 30.28 45.8631 26.5794 45.8631C25.3618 45.8631 24.2037 45.501 23.2095 44.8847L23 44.7548L22.7904 44.8847C21.7963 45.501 20.6381 45.8631 19.4205 45.8631C15.7199 45.8631 13.057 42.7246 13.057 39.1062C13.057 36.8722 13.9973 34.97 15.319 33.2076C16.4335 31.7215 17.9389 30.1835 19.6211 28.5146L22.4361 31.3247C20.7486 33 19.4381 34.344 18.5008 35.5938C17.4458 37.0006 17.0342 38.072 17.0342 39.1062C17.0342 40.8599 18.2345 41.8859 19.4205 41.8859C20.1359 41.8859 20.9095 41.5116 21.4376 40.8409L23 38.8569L24.5623 40.8409C25.0905 41.5116 25.864 41.8859 26.5794 41.8859C27.7655 41.8859 28.9658 40.8599 28.9658 39.1062C28.9658 38.072 28.5541 37.0006 27.4991 35.5938C26.51 34.2748 25.1047 32.8505 23.2798 31.0431L18.6086 26.3776Z" fill="black"/>
<path d="M19.6224 18.6087L22.4373 21.4184L17.7649 26.0969L17.7637 26.0981C15.9869 27.8933 14.3607 29.5049 12.7924 30.681C11.03 32.0027 9.12782 32.943 6.89386 32.943C3.27544 32.943 0.136965 30.2801 0.136965 26.5795C0.136963 25.3619 0.499058 24.2037 1.1153 23.2096L1.24518 23L1.1153 22.7905C0.499053 21.7964 0.136964 20.6382 0.136963 19.4206C0.136964 15.72 3.27544 13.0571 6.89386 13.0571C9.12782 13.0571 11.03 13.9973 12.7924 15.319C14.2785 16.4335 15.8166 17.939 17.4855 19.6212L14.6753 22.4361C13 20.7487 11.656 19.4382 10.4062 18.5009C8.99945 17.4459 7.92801 17.0343 6.89386 17.0343C5.14011 17.0343 4.11416 18.2345 4.11416 19.4206C4.11416 20.136 4.48844 20.9096 5.15913 21.4377L7.14316 23L5.15913 24.5624C4.48844 25.0905 4.11416 25.8641 4.11416 26.5795C4.11416 27.7656 5.14011 28.9658 6.89385 28.9658C7.92801 28.9658 8.99945 28.5542 10.4062 27.4992C11.7251 26.5101 13.1488 25.1055 14.956 23.2808L14.9569 23.2799L19.6224 18.6087Z" fill="black"/>
</svg>
