<svg width="180" height="48" viewBox="0 0 180 48" fill="none" xmlns="http://www.w3.org/2000/svg">
<path d="M132.664 29H121.466C121.187 29 120.982 28.9413 120.85 28.824C120.732 28.692 120.674 28.4867 120.674 28.208V13.952C120.674 13.6733 120.732 13.4753 120.85 13.358C120.982 13.226 121.187 13.16 121.466 13.16H124.876C125.154 13.16 125.352 13.226 125.47 13.358C125.602 13.4753 125.668 13.6733 125.668 13.952V24.842H128.682V21.278C128.682 20.9993 128.74 20.8013 128.858 20.684C128.99 20.552 129.195 20.486 129.474 20.486H132.664C132.942 20.486 133.14 20.552 133.258 20.684C133.39 20.8013 133.456 20.9993 133.456 21.278V28.208C133.456 28.4867 133.39 28.692 133.258 28.824C133.14 28.9413 132.942 29 132.664 29Z" fill="#062010"/>
<path d="M149.456 24.842C149.456 25.5167 149.354 26.1327 149.148 26.69C148.958 27.2327 148.606 27.702 148.092 28.098C147.594 28.4793 146.904 28.78 146.024 29C145.144 29.22 144.022 29.33 142.658 29.33C141.294 29.33 140.172 29.22 139.292 29C138.412 28.78 137.716 28.4793 137.202 28.098C136.704 27.702 136.352 27.2327 136.146 26.69C135.956 26.1327 135.86 25.5167 135.86 24.842V13.952C135.86 13.6733 135.919 13.4753 136.036 13.358C136.168 13.226 136.374 13.16 136.652 13.16H140.106C140.385 13.16 140.583 13.226 140.7 13.358C140.832 13.4753 140.898 13.6733 140.898 13.952V23.984C140.898 24.2773 141.008 24.5267 141.228 24.732C141.448 24.9227 141.94 25.018 142.702 25.018C143.48 25.018 143.978 24.9227 144.198 24.732C144.418 24.5267 144.528 24.2773 144.528 23.984V13.952C144.528 13.6733 144.587 13.4753 144.704 13.358C144.836 13.226 145.042 13.16 145.32 13.16H148.664C148.943 13.16 149.141 13.226 149.258 13.358C149.39 13.4753 149.456 13.6733 149.456 13.952V24.842Z" fill="#062010"/>
<path d="M162.923 29H157.555C155.721 29 154.357 28.6333 153.463 27.9C152.583 27.1667 152.143 26.0373 152.143 24.512V17.67C152.143 16.1447 152.583 15.0153 153.463 14.282C154.357 13.534 155.721 13.16 157.555 13.16H162.923C163.201 13.16 163.399 13.226 163.517 13.358C163.649 13.4753 163.715 13.6733 163.715 13.952V16.614C163.715 16.8927 163.649 17.098 163.517 17.23C163.399 17.3473 163.201 17.406 162.923 17.406H158.501C158.046 17.406 157.709 17.5013 157.489 17.692C157.269 17.868 157.159 18.1393 157.159 18.506V23.742C157.159 24.1087 157.269 24.38 157.489 24.556C157.709 24.7173 158.046 24.798 158.501 24.798H162.923C163.201 24.798 163.399 24.864 163.517 24.996C163.649 25.1133 163.715 25.3113 163.715 25.59V28.208C163.715 28.4867 163.649 28.692 163.517 28.824C163.399 28.9413 163.201 29 162.923 29Z" fill="#062010"/>
<path d="M170.401 29H166.991C166.712 29 166.507 28.9413 166.375 28.824C166.258 28.692 166.199 28.4867 166.199 28.208V13.952C166.199 13.6733 166.258 13.4753 166.375 13.358C166.507 13.226 166.712 13.16 166.991 13.16H170.401C170.68 13.16 170.878 13.226 170.995 13.358C171.127 13.4753 171.193 13.6733 171.193 13.952V19.012H172.073L174.339 13.886C174.442 13.622 174.581 13.4387 174.757 13.336C174.933 13.2187 175.16 13.16 175.439 13.16H178.827C179.076 13.16 179.245 13.226 179.333 13.358C179.421 13.4753 179.414 13.6513 179.311 13.886L177.067 19.012C177.888 19.056 178.541 19.3493 179.025 19.892C179.524 20.42 179.773 21.124 179.773 22.004V28.208C179.773 28.4867 179.707 28.692 179.575 28.824C179.458 28.9413 179.26 29 178.981 29H175.593C175.314 29 175.109 28.9413 174.977 28.824C174.86 28.692 174.801 28.4867 174.801 28.208V23.918C174.801 23.6833 174.742 23.5 174.625 23.368C174.508 23.236 174.332 23.17 174.097 23.17H171.193V28.208C171.193 28.4867 171.127 28.692 170.995 28.824C170.878 28.9413 170.68 29 170.401 29Z" fill="#062010"/>
<path d="M12.342 29H5.412C3.57867 29 2.21467 28.6333 1.32 27.9C0.44 27.1667 0 26.0373 0 24.512V17.648C0 16.1227 0.44 14.9933 1.32 14.26C2.21467 13.5267 3.57867 13.16 5.412 13.16H10.912C11.1907 13.16 11.3887 13.226 11.506 13.358C11.638 13.4753 11.704 13.6733 11.704 13.952V16.614C11.704 16.8927 11.638 17.098 11.506 17.23C11.3887 17.3473 11.1907 17.406 10.912 17.406H6.336C5.88133 17.406 5.544 17.5013 5.324 17.692C5.104 17.868 4.994 18.1393 4.994 18.506V23.764C4.994 24.1307 5.07467 24.402 5.236 24.578C5.412 24.754 5.66867 24.842 6.006 24.842H8.14V21.41C8.14 21.1313 8.19867 20.9333 8.316 20.816C8.448 20.684 8.65333 20.618 8.932 20.618H12.342C12.6207 20.618 12.8187 20.684 12.936 20.816C13.068 20.9333 13.134 21.1313 13.134 21.41V28.208C13.134 28.4867 13.068 28.692 12.936 28.824C12.8187 28.9413 12.6207 29 12.342 29Z" fill="#062010"/>
<path d="M29.2382 24.842C29.2382 25.5167 29.1355 26.1327 28.9302 26.69C28.7395 27.2327 28.3875 27.702 27.8742 28.098C27.3755 28.4793 26.6788 28.78 25.7842 29C24.9042 29.22 23.7822 29.33 22.4182 29.33C21.0542 29.33 19.9248 29.22 19.0302 29C18.1355 28.78 17.4315 28.4793 16.9182 28.098C16.4195 27.702 16.0675 27.2327 15.8622 26.69C15.6715 26.1327 15.5762 25.5167 15.5762 24.842V17.34C15.5762 16.6653 15.6715 16.0567 15.8622 15.514C16.0675 14.9567 16.4195 14.48 16.9182 14.084C17.4315 13.688 18.1355 13.38 19.0302 13.16C19.9248 12.94 21.0542 12.83 22.4182 12.83C23.7822 12.83 24.9042 12.94 25.7842 13.16C26.6788 13.38 27.3755 13.688 27.8742 14.084C28.3875 14.48 28.7395 14.9567 28.9302 15.514C29.1355 16.0567 29.2382 16.6653 29.2382 17.34V24.842ZM20.5702 24.05C20.5702 24.3433 20.6802 24.5927 20.9002 24.798C21.1202 24.9887 21.6262 25.084 22.4182 25.084C23.2102 25.084 23.7162 24.9887 23.9362 24.798C24.1562 24.5927 24.2662 24.3433 24.2662 24.05V18.132C24.2662 17.8533 24.1562 17.6187 23.9362 17.428C23.7162 17.2227 23.2102 17.12 22.4182 17.12C21.6262 17.12 21.1202 17.2227 20.9002 17.428C20.6802 17.6187 20.5702 17.8533 20.5702 18.132V24.05Z" fill="#062010"/>
<path d="M45.4589 24.842C45.4589 25.5167 45.3562 26.1327 45.1509 26.69C44.9602 27.2327 44.6082 27.702 44.0949 28.098C43.5962 28.4793 42.8995 28.78 42.0049 29C41.1249 29.22 40.0029 29.33 38.6389 29.33C37.2749 29.33 36.1455 29.22 35.2509 29C34.3562 28.78 33.6522 28.4793 33.1389 28.098C32.6402 27.702 32.2882 27.2327 32.0829 26.69C31.8922 26.1327 31.7969 25.5167 31.7969 24.842V17.34C31.7969 16.6653 31.8922 16.0567 32.0829 15.514C32.2882 14.9567 32.6402 14.48 33.1389 14.084C33.6522 13.688 34.3562 13.38 35.2509 13.16C36.1455 12.94 37.2749 12.83 38.6389 12.83C40.0029 12.83 41.1249 12.94 42.0049 13.16C42.8995 13.38 43.5962 13.688 44.0949 14.084C44.6082 14.48 44.9602 14.9567 45.1509 15.514C45.3562 16.0567 45.4589 16.6653 45.4589 17.34V24.842ZM36.7909 24.05C36.7909 24.3433 36.9009 24.5927 37.1209 24.798C37.3409 24.9887 37.8469 25.084 38.6389 25.084C39.4309 25.084 39.9369 24.9887 40.1569 24.798C40.3769 24.5927 40.4869 24.3433 40.4869 24.05V18.132C40.4869 17.8533 40.3769 17.6187 40.1569 17.428C39.9369 17.2227 39.4309 17.12 38.6389 17.12C37.8469 17.12 37.3409 17.2227 37.1209 17.428C36.9009 17.6187 36.7909 17.8533 36.7909 18.132V24.05Z" fill="#062010"/>
<path d="M56.4656 29H49.0516C48.7729 29 48.5676 28.9413 48.4356 28.824C48.3182 28.692 48.2596 28.4867 48.2596 28.208V13.952C48.2596 13.6733 48.3182 13.4753 48.4356 13.358C48.5676 13.226 48.7729 13.16 49.0516 13.16H56.4656C58.2989 13.16 59.6556 13.5267 60.5356 14.26C61.4302 14.9933 61.8776 16.1227 61.8776 17.648V24.512C61.8776 26.0373 61.4302 27.1667 60.5356 27.9C59.6556 28.6333 58.2989 29 56.4656 29ZM53.2536 17.362V24.842H55.8716C56.2236 24.842 56.4802 24.754 56.6416 24.578C56.8176 24.402 56.9056 24.1307 56.9056 23.764V18.418C56.9056 18.0513 56.8176 17.7873 56.6416 17.626C56.4802 17.45 56.2236 17.362 55.8716 17.362H53.2536Z" fill="#062010"/>
<path d="M27.8264 43.4997V47.8076H26V37.1993H28.0694C29.0833 37.1993 29.8488 37.2611 30.3662 37.3848C30.8888 37.5084 31.3487 37.742 31.7458 38.0856C32.4409 38.681 32.7884 39.4322 32.7884 40.3392C32.7884 41.3102 32.4174 42.0797 31.6753 42.6477C30.9332 43.2157 29.9325 43.4997 28.673 43.4997H27.8264ZM27.8264 42.0156H28.5084C30.1859 42.0156 31.0247 41.4499 31.0247 40.3186C31.0247 39.2238 30.1598 38.6765 28.43 38.6765H27.8264V42.0156Z" fill="#062010"/>
<path d="M53.1702 42.4553C53.1702 40.9621 53.7947 39.6796 55.0437 38.6077C56.2874 37.5359 57.782 37 59.5274 37C61.252 37 62.7309 37.5405 63.9642 38.6215C65.2027 39.7025 65.822 41.001 65.822 42.5172C65.822 44.0425 65.2001 45.3365 63.9564 46.3991C62.7074 47.4664 61.1997 48 59.4334 48C57.8708 48 56.4677 47.5259 55.2239 46.5778C53.8548 45.5288 53.1702 44.1547 53.1702 42.4553ZM55.0123 42.476C55.0123 43.6486 55.4617 44.6127 56.3606 45.3685C57.2542 46.1243 58.2863 46.5022 59.4569 46.5022C60.7268 46.5022 61.7981 46.1174 62.6708 45.3479C63.5435 44.5692 63.9799 43.6211 63.9799 42.5034C63.9799 41.3721 63.5487 40.4239 62.6865 39.659C61.8294 38.8894 60.7686 38.5047 59.5039 38.5047C58.2445 38.5047 57.181 38.8894 56.3135 39.659C55.446 40.4193 55.0123 41.3583 55.0123 42.476Z" fill="#062010"/>
<path d="M89.0493 41.4316L93.7604 37.1993H96.1982L90.7268 42.0019L96.2296 47.8076H93.7839L89.4255 43.0874L89.0493 43.4172V47.8076H87.2228V37.1993H89.0493V41.4316Z" fill="#062010"/>
<path d="M123.651 38.7039H118.798V41.253H123.51V42.7577H118.798V46.3029H123.651V47.8076H116.972V37.1993H123.651V38.7039Z" fill="#062010"/>
<path d="M149.253 43.2867L153 47.8076H150.766L147.309 43.4653H146.98V47.8076H145.153V37.1993H147.293C148.892 37.1993 150.047 37.4626 150.758 37.9894C151.542 38.5757 151.934 39.3498 151.934 40.3117C151.934 41.0629 151.688 41.7087 151.197 42.2492C150.706 42.7897 150.058 43.1355 149.253 43.2867ZM146.98 42.0706H147.56C149.29 42.0706 150.155 41.4912 150.155 40.3323C150.155 39.2467 149.313 38.7039 147.63 38.7039H146.98V42.0706Z" fill="#062010"/>
<path fill-rule="evenodd" clip-rule="evenodd" d="M92.4447 22.3003L95.2544 19.4854L90.5832 14.8199L90.5824 14.8192C88.7577 13.012 87.353 11.5882 86.3639 10.2692C85.3089 8.86248 84.8972 7.79105 84.8972 6.7569C84.8972 5.00314 86.0975 3.9772 87.2836 3.9772C87.999 3.9772 88.7726 4.35148 89.3007 5.02217L90.863 7.00619L92.4254 5.02217C92.9535 4.35148 93.7271 3.9772 94.4425 3.9772C95.6286 3.9772 96.8288 5.00315 96.8288 6.75689C96.8288 7.79104 96.4172 8.86248 95.3622 10.2692C94.4249 11.5191 93.1144 12.8631 91.4269 14.5383L94.2419 17.3485C95.9241 15.6796 97.4295 14.1415 98.544 12.6554C99.8657 10.893 100.806 8.99086 100.806 6.7569C100.806 3.13847 98.1431 2.44818e-06 94.4425 2.53247e-06C93.2249 2.78535e-06 92.0667 0.362094 91.0726 0.978335L90.863 1.10822L90.6535 0.978335C89.6593 0.362094 88.5012 2.78535e-06 87.2836 2.95394e-06C83.583 2.99609e-06 80.9201 3.13848 80.9201 6.7569C80.9201 8.99086 81.8603 10.893 83.182 12.6554C84.3582 14.2238 85.9697 15.85 87.765 17.6267L87.7662 17.6279L92.4447 22.3003ZM94.2406 27.2544L91.4258 24.4446L92.7264 23.144L96.0981 19.7662L96.0993 19.765C97.8761 17.9697 99.5023 16.3582 101.071 15.182C102.833 13.8603 104.735 12.92 106.969 12.92C110.588 12.92 113.726 15.583 113.726 19.2835C113.726 20.5011 113.364 21.6593 112.748 22.6535L112.618 22.863L112.748 23.0726C113.364 24.0667 113.726 25.2249 113.726 26.4425C113.726 30.143 110.588 32.806 106.969 32.806C104.735 32.806 102.833 31.8657 101.071 30.544C99.5845 29.4295 98.0465 27.9241 96.3775 26.2419L99.1877 23.4269C100.863 25.1144 102.207 26.4249 103.457 27.3622C104.864 28.4171 105.935 28.8288 106.969 28.8288C108.723 28.8288 109.749 27.6285 109.749 26.4425C109.749 25.727 109.375 24.9535 108.704 24.4254L106.72 22.863L108.704 21.3007C109.375 20.7725 109.749 19.999 109.749 19.2835C109.749 18.0975 108.723 16.8972 106.969 16.8972C105.935 16.8972 104.864 17.3089 103.457 18.3639C102.138 19.353 100.714 20.7577 98.9068 22.5824L98.9061 22.5831L94.2406 27.2544ZM86.4717 26.2406L89.2814 23.4257L93.9599 28.0981L93.9611 28.0993C95.7563 29.8761 97.3679 31.5022 98.544 33.0706C99.2666 34.0341 99.8752 35.0394 100.278 36.1179C98.9621 35.0509 97.2434 34.4051 95.363 34.4051C95.0865 34.4051 94.8135 34.419 94.5447 34.4463C93.6462 33.4037 92.5128 32.2628 91.1429 30.9061L86.4717 26.2406ZM86.363 34.4051C84.4827 34.4051 82.7639 35.0509 81.4476 36.1179C81.8508 35.0394 82.4594 34.0341 83.182 33.0706C84.2965 31.5845 85.8019 30.0464 87.4842 28.3775L90.2991 31.1877C89.0557 32.4221 88.017 33.4767 87.1814 34.4463C86.9126 34.419 86.6396 34.4051 86.363 34.4051ZM87.4855 18.4716L90.3003 21.2814L88.9997 22.582L85.628 25.9599L85.6268 25.9611C83.85 27.7563 82.2238 29.3678 80.6555 30.544C78.8931 31.8657 76.9909 32.806 74.7569 32.806C71.1385 32.806 68 30.143 68 26.4425C68 25.2249 68.3621 24.0667 68.9784 23.0725L69.1082 22.863L68.9784 22.6535C68.3621 21.6593 68 20.5011 68 19.2835C68 15.583 71.1385 12.92 74.7569 12.92C76.9909 12.92 78.8931 13.8603 80.6555 15.182C82.1416 16.2965 83.6796 17.8019 85.3485 19.4841L82.5383 22.2991C80.8631 20.6116 79.5191 19.3012 78.2693 18.3639C76.8625 17.3089 75.7911 16.8972 74.7569 16.8972C73.0032 16.8972 71.9772 18.0975 71.9772 19.2835C71.9772 19.999 72.3515 20.7725 73.0222 21.3007L75.0062 22.863L73.0222 24.4254C72.3515 24.9535 71.9772 25.727 71.9772 26.4425C71.9772 27.6285 73.0032 28.8288 74.7569 28.8288C75.7911 28.8288 76.8625 28.4171 78.2693 27.3622C79.5881 26.3731 81.0119 24.9684 82.8191 23.1438L82.82 23.1429L87.4855 18.4716Z" fill="#062010"/>
</svg>
