<svg width="214" height="57" viewBox="0 0 214 57" fill="none" xmlns="http://www.w3.org/2000/svg">
<path d="M157.538 34.4375H144.24C143.909 34.4375 143.666 34.3679 143.509 34.2285C143.37 34.0718 143.3 33.828 143.3 33.497V16.568C143.3 16.2371 143.37 16.002 143.509 15.8627C143.666 15.7059 143.909 15.6275 144.24 15.6275H148.29C148.621 15.6275 148.856 15.7059 148.995 15.8627C149.152 16.002 149.23 16.2371 149.23 16.568V29.4999H152.809V25.2677C152.809 24.9367 152.879 24.7016 153.018 24.5623C153.175 24.4055 153.419 24.3272 153.75 24.3272H157.538C157.869 24.3272 158.104 24.4055 158.243 24.5623C158.4 24.7016 158.478 24.9367 158.478 25.2677V33.497C158.478 33.828 158.4 34.0718 158.243 34.2285C158.104 34.3679 157.869 34.4375 157.538 34.4375Z" fill="white"/>
<path d="M177.48 29.4999C177.48 30.3011 177.358 31.0326 177.114 31.6944C176.887 32.3388 176.469 32.8962 175.86 33.3664C175.268 33.8192 174.449 34.1763 173.404 34.4375C172.359 34.6988 171.027 34.8294 169.407 34.8294C167.787 34.8294 166.455 34.6988 165.41 34.4375C164.365 34.1763 163.537 33.8192 162.928 33.3664C162.336 32.8962 161.918 32.3388 161.674 31.6944C161.447 31.0326 161.334 30.3011 161.334 29.4999V16.568C161.334 16.2371 161.404 16.002 161.543 15.8627C161.7 15.7059 161.944 15.6275 162.275 15.6275H166.376C166.707 15.6275 166.942 15.7059 167.082 15.8627C167.239 16.002 167.317 16.2371 167.317 16.568V28.481C167.317 28.8294 167.448 29.1255 167.709 29.3693C167.97 29.5957 168.553 29.7089 169.459 29.7089C170.382 29.7089 170.974 29.5957 171.236 29.3693C171.497 29.1255 171.628 28.8294 171.628 28.481V16.568C171.628 16.2371 171.697 16.002 171.837 15.8627C171.993 15.7059 172.237 15.6275 172.568 15.6275H176.539C176.87 15.6275 177.105 15.7059 177.244 15.8627C177.401 16.002 177.48 16.2371 177.48 16.568V29.4999Z" fill="white"/>
<path d="M193.47 34.4375H187.096C184.919 34.4375 183.299 34.0021 182.237 33.1313C181.192 32.2605 180.669 30.9194 180.669 29.108V20.9832C180.669 19.1718 181.192 17.8307 182.237 16.9599C183.299 16.0717 184.919 15.6275 187.096 15.6275H193.47C193.801 15.6275 194.037 15.7059 194.176 15.8627C194.333 16.002 194.411 16.2371 194.411 16.568V19.7292C194.411 20.0601 194.333 20.3039 194.176 20.4607C194.037 20.6 193.801 20.6697 193.47 20.6697H188.219C187.679 20.6697 187.279 20.7829 187.018 21.0093C186.756 21.2183 186.626 21.5405 186.626 21.9759V28.1937C186.626 28.6291 186.756 28.9513 187.018 29.1603C187.279 29.3519 187.679 29.4477 188.219 29.4477H193.47C193.801 29.4477 194.037 29.526 194.176 29.6828C194.333 29.8221 194.411 30.0572 194.411 30.3882V33.497C194.411 33.828 194.333 34.0718 194.176 34.2285C194.037 34.3679 193.801 34.4375 193.47 34.4375Z" fill="white"/>
<path d="M202.351 34.4375H198.302C197.971 34.4375 197.727 34.3679 197.57 34.2285C197.431 34.0718 197.361 33.828 197.361 33.497V16.568C197.361 16.2371 197.431 16.002 197.57 15.8627C197.727 15.7059 197.971 15.6275 198.302 15.6275H202.351C202.682 15.6275 202.917 15.7059 203.057 15.8627C203.213 16.002 203.292 16.2371 203.292 16.568V22.5768H204.337L207.028 16.4897C207.149 16.1762 207.315 15.9584 207.524 15.8365C207.733 15.6972 208.003 15.6275 208.334 15.6275H212.357C212.653 15.6275 212.853 15.7059 212.958 15.8627C213.062 16.002 213.054 16.211 212.932 16.4897L210.267 22.5768C211.242 22.629 212.017 22.9774 212.592 23.6218C213.184 24.2488 213.48 25.0848 213.48 26.1298V33.497C213.48 33.828 213.402 34.0718 213.245 34.2285C213.106 34.3679 212.871 34.4375 212.54 34.4375H208.517C208.186 34.4375 207.942 34.3679 207.785 34.2285C207.646 34.0718 207.576 33.828 207.576 33.497V28.4027C207.576 28.124 207.506 27.9063 207.367 27.7495C207.228 27.5928 207.019 27.5144 206.74 27.5144H203.292V33.497C203.292 33.828 203.213 34.0718 203.057 34.2285C202.917 34.3679 202.682 34.4375 202.351 34.4375Z" fill="white"/>
<path d="M14.6561 34.4375H6.42675C4.24967 34.4375 2.62992 34.0021 1.5675 33.1313C0.5225 32.2604 0 30.9194 0 29.108V20.957C0 19.1457 0.5225 17.8046 1.5675 16.9338C2.62992 16.0629 4.24967 15.6275 6.42675 15.6275H12.958C13.2889 15.6275 13.524 15.7059 13.6634 15.8627C13.8201 16.002 13.8985 16.2371 13.8985 16.568V19.7292C13.8985 20.0601 13.8201 20.3039 13.6634 20.4607C13.524 20.6 13.2889 20.6697 12.958 20.6697H7.524C6.98408 20.6697 6.5835 20.7829 6.32225 21.0093C6.061 21.2183 5.93038 21.5405 5.93038 21.9759V28.2198C5.93038 28.6552 6.02617 28.9774 6.21775 29.1864C6.42675 29.3954 6.73154 29.4999 7.13213 29.4999H9.66625V25.4244C9.66625 25.0935 9.73592 24.8584 9.87525 24.719C10.032 24.5623 10.2758 24.4839 10.6068 24.4839H14.6561C14.987 24.4839 15.2222 24.5623 15.3615 24.719C15.5183 24.8584 15.5966 25.0935 15.5966 25.4244V33.497C15.5966 33.8279 15.5183 34.0718 15.3615 34.2285C15.2222 34.3679 14.987 34.4375 14.6561 34.4375Z" fill="white"/>
<path d="M34.7203 29.4999C34.7203 30.3011 34.5984 31.0326 34.3546 31.6944C34.1282 32.3388 33.7102 32.8962 33.1006 33.3664C32.5084 33.8192 31.6811 34.1763 30.6187 34.4375C29.5737 34.6988 28.2413 34.8294 26.6216 34.8294C25.0018 34.8294 23.6607 34.6988 22.5983 34.4375C21.5359 34.1763 20.6999 33.8192 20.0903 33.3664C19.4982 32.8962 19.0802 32.3388 18.8363 31.6944C18.6099 31.0326 18.4967 30.3011 18.4967 29.4999V20.5913C18.4967 19.7901 18.6099 19.0673 18.8363 18.4229C19.0802 17.7611 19.4982 17.195 20.0903 16.7248C20.6999 16.2545 21.5359 15.8888 22.5983 15.6275C23.6607 15.3663 25.0018 15.2357 26.6216 15.2357C28.2413 15.2357 29.5737 15.3663 30.6187 15.6275C31.6811 15.8888 32.5084 16.2545 33.1006 16.7248C33.7102 17.195 34.1282 17.7611 34.3546 18.4229C34.5984 19.0673 34.7203 19.7901 34.7203 20.5913V29.4999ZM24.4271 28.5594C24.4271 28.9077 24.5577 29.2038 24.819 29.4477C25.0802 29.6741 25.6811 29.7873 26.6216 29.7873C27.5621 29.7873 28.163 29.6741 28.4242 29.4477C28.6855 29.2038 28.8161 28.9077 28.8161 28.5594V21.5318C28.8161 21.2009 28.6855 20.9222 28.4242 20.6958C28.163 20.4519 27.5621 20.33 26.6216 20.33C25.6811 20.33 25.0802 20.4519 24.819 20.6958C24.5577 20.9222 24.4271 21.2009 24.4271 21.5318V28.5594Z" fill="white"/>
<path d="M53.9824 29.4999C53.9824 30.3011 53.8605 31.0326 53.6167 31.6944C53.3902 32.3388 52.9722 32.8962 52.3627 33.3664C51.7705 33.8192 50.9432 34.1763 49.8808 34.4375C48.8358 34.6988 47.5034 34.8294 45.8837 34.8294C44.2639 34.8294 42.9228 34.6988 41.8604 34.4375C40.798 34.1763 39.962 33.8192 39.3524 33.3664C38.7602 32.8962 38.3422 32.3388 38.0984 31.6944C37.872 31.0326 37.7588 30.3011 37.7588 29.4999V20.5913C37.7588 19.7901 37.872 19.0673 38.0984 18.4229C38.3422 17.7611 38.7602 17.195 39.3524 16.7248C39.962 16.2545 40.798 15.8888 41.8604 15.6275C42.9228 15.3663 44.2639 15.2357 45.8837 15.2357C47.5034 15.2357 48.8358 15.3663 49.8808 15.6275C50.9432 15.8888 51.7705 16.2545 52.3627 16.7248C52.9722 17.195 53.3902 17.7611 53.6167 18.4229C53.8605 19.0673 53.9824 19.7901 53.9824 20.5913V29.4999ZM43.6892 28.5594C43.6892 28.9077 43.8198 29.2038 44.081 29.4477C44.3423 29.6741 44.9432 29.7873 45.8837 29.7873C46.8242 29.7873 47.425 29.6741 47.6863 29.4477C47.9475 29.2038 48.0782 28.9077 48.0782 28.5594V21.5318C48.0782 21.2009 47.9475 20.9222 47.6863 20.6958C47.425 20.4519 46.8242 20.33 45.8837 20.33C44.9432 20.33 44.3423 20.4519 44.081 20.6958C43.8198 20.9222 43.6892 21.2009 43.6892 21.5318V28.5594Z" fill="white"/>
<path d="M67.0529 34.4375H58.2487C57.9178 34.4375 57.674 34.3679 57.5172 34.2285C57.3779 34.0718 57.3082 33.8279 57.3082 33.497V16.568C57.3082 16.2371 57.3779 16.002 57.5172 15.8627C57.674 15.7059 57.9178 15.6275 58.2487 15.6275H67.0529C69.23 15.6275 70.841 16.0629 71.886 16.9338C72.9484 17.8046 73.4796 19.1457 73.4796 20.957V29.108C73.4796 30.9194 72.9484 32.2604 71.886 33.1313C70.841 34.0021 69.23 34.4375 67.0529 34.4375ZM63.2386 20.6174V29.4999H66.3475C66.7655 29.4999 67.0703 29.3954 67.2619 29.1864C67.4709 28.9774 67.5754 28.6552 67.5754 28.2198V21.8714C67.5754 21.436 67.4709 21.1225 67.2619 20.9309C67.0703 20.7219 66.7655 20.6174 66.3475 20.6174H63.2386Z" fill="white"/>
<path d="M33.0439 51.6559V56.7715H30.875V44.1741H33.3325C34.5364 44.1741 35.4455 44.2475 36.0599 44.3944C36.6804 44.5413 37.2265 44.8187 37.6982 45.2266C38.5235 45.9337 38.9362 46.8258 38.9362 47.9028C38.9362 49.0559 38.4956 49.9697 37.6144 50.6442C36.7332 51.3186 35.5448 51.6559 34.0492 51.6559H33.0439ZM33.0439 49.8935H33.8537C35.8458 49.8935 36.8418 49.2218 36.8418 47.8783C36.8418 46.5783 35.8147 45.9283 33.7607 45.9283H33.0439V49.8935Z" fill="white"/>
<path d="M63.1396 50.4157C63.1396 48.6425 63.8812 47.1195 65.3643 45.8467C66.8413 44.5739 68.6161 43.9375 70.6888 43.9375C72.7367 43.9375 74.4929 44.5793 75.9575 45.863C77.4282 47.1467 78.1636 48.6887 78.1636 50.4891C78.1636 52.3004 77.4251 53.837 75.9482 55.099C74.465 56.3663 72.6747 57 70.5771 57C68.7216 57 67.0554 56.437 65.5784 55.3111C63.9525 54.0655 63.1396 52.4337 63.1396 50.4157ZM65.3271 50.4402C65.3271 51.8327 65.8608 52.9776 66.9282 53.8751C67.9894 54.7726 69.215 55.2213 70.6051 55.2213C72.1131 55.2213 73.3852 54.7644 74.4216 53.8506C75.4579 52.926 75.9761 51.8 75.9761 50.4728C75.9761 49.1293 75.4641 48.0034 74.4402 47.095C73.4225 46.1812 72.1627 45.7243 70.6609 45.7243C69.1653 45.7243 67.9025 46.1812 66.8723 47.095C65.8422 47.9979 65.3271 49.113 65.3271 50.4402Z" fill="white"/>
<path d="M105.746 49.2L111.34 44.1741H114.235L107.738 49.8772L114.273 56.7715H111.368L106.193 51.1663L105.746 51.558V56.7715H103.577V44.1741H105.746V49.2Z" fill="white"/>
<path d="M146.835 45.9609H141.073V48.9879H146.668V50.7747H141.073V54.9847H146.835V56.7715H138.904V44.1741H146.835V45.9609Z" fill="white"/>
<path d="M177.238 51.403L181.688 56.7715H179.035L174.929 51.6151H174.539V56.7715H172.37V44.1741H174.911C176.81 44.1741 178.181 44.4869 179.025 45.1124C179.956 45.8086 180.422 46.7279 180.422 47.8701C180.422 48.7622 180.13 49.5291 179.547 50.1709C178.963 50.8128 178.194 51.2235 177.238 51.403ZM174.539 49.9588H175.227C177.281 49.9588 178.308 49.2707 178.308 47.8946C178.308 46.6055 177.309 45.9609 175.311 45.9609H174.539V49.9588Z" fill="white"/>
<path fill-rule="evenodd" clip-rule="evenodd" d="M109.778 26.4816L113.115 23.139L107.567 17.5987L107.567 17.5978C105.4 15.4517 103.732 13.7609 102.557 12.1947C101.304 10.5242 100.815 9.25186 100.815 8.02381C100.815 5.94123 102.241 4.72292 103.649 4.72292C104.499 4.72292 105.417 5.16738 106.045 5.96382L107.9 8.31985L109.755 5.96382C110.382 5.16738 111.301 4.72292 112.15 4.72292C113.559 4.72292 114.984 5.94123 114.984 8.02381C114.984 9.25186 114.495 10.5242 113.243 12.1947C112.13 13.6789 110.573 15.2749 108.569 17.2642L111.912 20.6013C113.91 18.6195 115.698 16.7931 117.021 15.0283C118.591 12.9355 119.707 10.6766 119.707 8.02381C119.707 3.72694 116.545 -2.95029e-07 112.15 0C110.705 1.68586e-07 109.329 0.429984 108.149 1.16177L107.9 1.31601L107.651 1.16177C106.47 0.429984 105.095 5.05761e-07 103.649 3.37173e-07C99.2548 6.74349e-07 96.0925 3.72694 96.0925 8.02381C96.0925 10.6766 97.2091 12.9355 98.7786 15.0283C100.175 16.8907 102.089 18.8218 104.221 20.9318L104.222 20.9332L109.778 26.4816ZM111.911 32.3646L108.568 29.028L110.113 27.4835L114.116 23.4723L114.118 23.4709C116.228 21.339 118.159 19.4253 120.021 18.0286C122.114 16.4591 124.373 15.3425 127.026 15.3425C131.323 15.3425 135.05 18.5048 135.05 22.8992C135.05 24.3451 134.62 25.7204 133.888 26.901L133.734 27.1498L133.888 27.3987C134.62 28.5792 135.05 29.9545 135.05 31.4004C135.05 35.7949 131.323 38.9571 127.026 38.9571C124.373 38.9571 122.114 37.8405 120.021 36.271C118.257 34.9475 116.43 33.1599 114.448 31.1622L117.785 27.8195C119.775 29.8233 121.371 31.3795 122.855 32.4926C124.525 33.7454 125.798 34.2342 127.026 34.2342C129.108 34.2342 130.327 32.8089 130.327 31.4004C130.327 30.5509 129.882 29.6323 129.086 29.0051L126.73 27.1498L129.086 25.2945C129.882 24.6674 130.327 23.7488 130.327 22.8992C130.327 21.4908 129.108 20.0654 127.026 20.0654C125.798 20.0654 124.525 20.5543 122.855 21.8071C121.289 22.9817 119.598 24.6497 117.452 26.8166L117.451 26.8175L111.911 32.3646ZM102.685 31.1607L106.022 27.818L111.577 33.3665L111.579 33.3679C113.711 35.4778 115.624 37.4089 117.021 39.2713C117.879 40.4155 118.602 41.6093 119.081 42.89C117.517 41.623 115.477 40.856 113.244 40.856C112.915 40.856 112.591 40.8726 112.272 40.9049C111.205 39.6669 109.859 38.3121 108.232 36.701L102.685 31.1607ZM102.556 40.856C100.323 40.856 98.2821 41.623 96.719 42.89C97.1978 41.6093 97.9206 40.4155 98.7786 39.2713C100.102 37.5066 101.89 35.6801 103.887 33.6983L107.23 37.0354C105.754 38.5013 104.52 39.7536 103.528 40.9049C103.209 40.8726 102.884 40.856 102.556 40.856ZM103.889 21.9351L107.232 25.2716L105.687 26.8162L101.683 30.8273L101.682 30.8288C99.5718 32.9606 97.6407 34.8743 95.7783 36.271C93.6855 37.8405 91.4266 38.9571 88.7738 38.9571C84.4769 38.9571 80.75 35.7948 80.75 31.4004C80.75 29.9545 81.18 28.5792 81.9118 27.3987L82.066 27.1498L81.9118 26.901C81.18 25.7204 80.75 24.3451 80.75 22.8992C80.75 18.5048 84.4769 15.3425 88.7738 15.3425C91.4266 15.3425 93.6855 16.4591 95.7783 18.0286C97.5431 19.3521 99.3695 21.1398 101.351 23.1374L98.0142 26.4802C96.0249 24.4763 94.4289 22.9201 92.9447 21.8071C91.2742 20.5543 90.0019 20.0654 88.7738 20.0654C86.6912 20.0654 85.4729 21.4908 85.4729 22.8992C85.4729 23.7488 85.9174 24.6674 86.7138 25.2945L89.0699 27.1498L86.7138 29.0051C85.9174 29.6323 85.4729 30.5509 85.4729 31.4004C85.4729 32.8089 86.6912 34.2342 88.7738 34.2342C90.0019 34.2342 91.2742 33.7454 92.9447 32.4926C94.5109 31.318 96.2016 29.65 98.3476 27.4832L98.3487 27.4822L103.889 21.9351Z" fill="white"/>
</svg>
