<svg width="1318" height="90" viewBox="0 0 1318 90" fill="none" xmlns="http://www.w3.org/2000/svg">
<path d="M13.1559 77.84L9.03586 68H6.31586L13.1559 82.78L19.9959 68H17.2759L13.1559 77.84ZM23.0845 82H30.1445V79.92H23.0845V82ZM23.0845 70.08H30.1445V68H23.0845V70.08ZM23.0845 75.52H29.7445V73.48H23.0845V75.52ZM21.6245 68V82H23.9445V68H21.6245ZM35.9302 75.32L40.3902 82H43.2302L38.4902 75.32H35.9302ZM33.0502 68V82H35.4102V68H33.0502ZM34.4502 70.04H37.2702C37.8036 70.04 38.2702 70.1333 38.6702 70.32C39.0836 70.5067 39.4036 70.7733 39.6302 71.12C39.8569 71.4667 39.9702 71.8933 39.9702 72.4C39.9702 72.8933 39.8569 73.32 39.6302 73.68C39.4036 74.0267 39.0836 74.2933 38.6702 74.48C38.2702 74.6667 37.8036 74.76 37.2702 74.76H34.4502V76.7H37.3702C38.3836 76.7 39.2636 76.52 40.0102 76.16C40.7702 75.8 41.3569 75.2933 41.7702 74.64C42.1836 73.9867 42.3902 73.22 42.3902 72.34C42.3902 71.46 42.1836 70.7 41.7702 70.06C41.3569 69.4067 40.7702 68.9 40.0102 68.54C39.2636 68.18 38.3836 68 37.3702 68H34.4502V70.04ZM52.6448 68L49.3848 74L46.1248 68H43.4448L48.1848 76.12V82H50.5848V76.1L55.3448 68H52.6448ZM62.8526 68V77.4C62.8526 78.1733 62.9726 78.8667 63.2126 79.48C63.4526 80.08 63.7992 80.5933 64.2526 81.02C64.7192 81.4467 65.2659 81.7733 65.8926 82C66.5192 82.2267 67.2059 82.34 67.9526 82.34C68.6992 82.34 69.3859 82.2267 70.0126 82C70.6392 81.7733 71.1792 81.4467 71.6326 81.02C72.0859 80.5933 72.4326 80.08 72.6726 79.48C72.9259 78.8667 73.0526 78.1733 73.0526 77.4V68H70.6926V77.3C70.6926 78.1667 70.4592 78.8667 69.9926 79.4C69.5259 79.92 68.8459 80.18 67.9526 80.18C67.0459 80.18 66.3592 79.92 65.8926 79.4C65.4392 78.8667 65.2126 78.1667 65.2126 77.3V68H62.8526ZM86.2976 68V77.4L76.0776 67.3V82H78.3976V72.6L88.6176 82.7V68H86.2976ZM91.7221 68V82H99.6421V79.88H94.0821V68H91.7221ZM101.251 68V77.4C101.251 78.1733 101.371 78.8667 101.611 79.48C101.851 80.08 102.198 80.5933 102.651 81.02C103.118 81.4467 103.664 81.7733 104.291 82C104.918 82.2267 105.604 82.34 106.351 82.34C107.098 82.34 107.784 82.2267 108.411 82C109.038 81.7733 109.578 81.4467 110.031 81.02C110.484 80.5933 110.831 80.08 111.071 79.48C111.324 78.8667 111.451 78.1733 111.451 77.4V68H109.091V77.3C109.091 78.1667 108.858 78.8667 108.391 79.4C107.924 79.92 107.244 80.18 106.351 80.18C105.444 80.18 104.758 79.92 104.291 79.4C103.838 78.8667 103.611 78.1667 103.611 77.3V68H101.251ZM116.216 75C116.216 74 116.436 73.1333 116.876 72.4C117.329 71.6533 117.916 71.08 118.636 70.68C119.369 70.2667 120.163 70.06 121.016 70.06C121.683 70.06 122.283 70.1467 122.816 70.32C123.349 70.4933 123.829 70.7333 124.256 71.04C124.696 71.3333 125.076 71.6667 125.396 72.04V69.24C124.809 68.76 124.176 68.3933 123.496 68.14C122.816 67.8867 121.963 67.76 120.936 67.76C119.909 67.76 118.949 67.9333 118.056 68.28C117.176 68.6267 116.409 69.1267 115.756 69.78C115.103 70.4333 114.589 71.2067 114.216 72.1C113.856 72.98 113.676 73.9467 113.676 75C113.676 76.0533 113.856 77.0267 114.216 77.92C114.589 78.8 115.103 79.5667 115.756 80.22C116.409 80.8733 117.176 81.3733 118.056 81.72C118.949 82.0667 119.909 82.24 120.936 82.24C121.963 82.24 122.816 82.1133 123.496 81.86C124.176 81.6067 124.809 81.24 125.396 80.76V77.96C125.076 78.3333 124.696 78.6733 124.256 78.98C123.829 79.2733 123.349 79.5067 122.816 79.68C122.283 79.8533 121.683 79.94 121.016 79.94C120.163 79.94 119.369 79.74 118.636 79.34C117.916 78.9267 117.329 78.3467 116.876 77.6C116.436 76.8533 116.216 75.9867 116.216 75ZM128.304 68V82H130.724V68H128.304ZM135.924 68L130.004 74.62L136.164 82H139.064L132.864 74.56L138.764 68H135.924ZM148.992 68L145.732 74L142.472 68H139.792L144.532 76.12V82H146.932V76.1L151.692 68H148.992Z" fill="#DFDFDF"/>
<path d="M324.784 68V77.4C324.784 78.1733 324.904 78.8667 325.144 79.48C325.384 80.08 325.731 80.5933 326.184 81.02C326.651 81.4467 327.198 81.7733 327.824 82C328.451 82.2267 329.138 82.34 329.884 82.34C330.631 82.34 331.318 82.2267 331.944 82C332.571 81.7733 333.111 81.4467 333.564 81.02C334.018 80.5933 334.364 80.08 334.604 79.48C334.858 78.8667 334.984 78.1733 334.984 77.4V68H332.624V77.3C332.624 78.1667 332.391 78.8667 331.924 79.4C331.458 79.92 330.778 80.18 329.884 80.18C328.978 80.18 328.291 79.92 327.824 79.4C327.371 78.8667 327.144 78.1667 327.144 77.3V68H324.784ZM348.229 68V77.4L338.009 67.3V82H340.329V72.6L350.549 82.7V68H348.229ZM353.654 68V82H361.574V79.88H356.014V68H353.654ZM363.183 68V77.4C363.183 78.1733 363.303 78.8667 363.543 79.48C363.783 80.08 364.129 80.5933 364.583 81.02C365.049 81.4467 365.596 81.7733 366.223 82C366.849 82.2267 367.536 82.34 368.283 82.34C369.029 82.34 369.716 82.2267 370.343 82C370.969 81.7733 371.509 81.4467 371.963 81.02C372.416 80.5933 372.763 80.08 373.003 79.48C373.256 78.8667 373.383 78.1733 373.383 77.4V68H371.023V77.3C371.023 78.1667 370.789 78.8667 370.323 79.4C369.856 79.92 369.176 80.18 368.283 80.18C367.376 80.18 366.689 79.92 366.223 79.4C365.769 78.8667 365.543 78.1667 365.543 77.3V68H363.183ZM378.148 75C378.148 74 378.368 73.1333 378.808 72.4C379.261 71.6533 379.848 71.08 380.568 70.68C381.301 70.2667 382.094 70.06 382.948 70.06C383.614 70.06 384.214 70.1467 384.748 70.32C385.281 70.4933 385.761 70.7333 386.188 71.04C386.628 71.3333 387.008 71.6667 387.328 72.04V69.24C386.741 68.76 386.108 68.3933 385.428 68.14C384.748 67.8867 383.894 67.76 382.868 67.76C381.841 67.76 380.881 67.9333 379.988 68.28C379.108 68.6267 378.341 69.1267 377.688 69.78C377.034 70.4333 376.521 71.2067 376.148 72.1C375.788 72.98 375.608 73.9467 375.608 75C375.608 76.0533 375.788 77.0267 376.148 77.92C376.521 78.8 377.034 79.5667 377.688 80.22C378.341 80.8733 379.108 81.3733 379.988 81.72C380.881 82.0667 381.841 82.24 382.868 82.24C383.894 82.24 384.748 82.1133 385.428 81.86C386.108 81.6067 386.741 81.24 387.328 80.76V77.96C387.008 78.3333 386.628 78.6733 386.188 78.98C385.761 79.2733 385.281 79.5067 384.748 79.68C384.214 79.8533 383.614 79.94 382.948 79.94C382.094 79.94 381.301 79.74 380.568 79.34C379.848 78.9267 379.261 78.3467 378.808 77.6C378.368 76.8533 378.148 75.9867 378.148 75ZM390.236 68V82H392.656V68H390.236ZM397.856 68L391.936 74.62L398.096 82H400.996L394.796 74.56L400.696 68H397.856ZM410.924 68L407.664 74L404.404 68H401.724L406.464 76.12V82H408.864V76.1L413.624 68H410.924Z" fill="#DFDFDF"/>
<path d="M647.551 75C647.551 74.04 647.751 73.1867 648.151 72.44C648.564 71.68 649.131 71.0867 649.851 70.66C650.571 70.2333 651.391 70.02 652.311 70.02C653.258 70.02 654.084 70.2333 654.791 70.66C655.511 71.0867 656.071 71.68 656.471 72.44C656.871 73.1867 657.071 74.04 657.071 75C657.071 75.96 656.864 76.82 656.451 77.58C656.051 78.3267 655.491 78.9133 654.771 79.34C654.064 79.7667 653.244 79.98 652.311 79.98C651.391 79.98 650.571 79.7667 649.851 79.34C649.131 78.9133 648.564 78.3267 648.151 77.58C647.751 76.82 647.551 75.96 647.551 75ZM645.051 75C645.051 76.04 645.231 77.0067 645.591 77.9C645.951 78.7933 646.451 79.5667 647.091 80.22C647.744 80.8733 648.518 81.3867 649.411 81.76C650.304 82.12 651.271 82.3 652.311 82.3C653.364 82.3 654.331 82.12 655.211 81.76C656.104 81.3867 656.878 80.8733 657.531 80.22C658.184 79.5667 658.691 78.7933 659.051 77.9C659.411 77.0067 659.591 76.04 659.591 75C659.591 73.9467 659.411 72.98 659.051 72.1C658.691 71.22 658.178 70.46 657.511 69.82C656.858 69.1667 656.091 68.66 655.211 68.3C654.331 67.94 653.364 67.76 652.311 67.76C651.284 67.76 650.324 67.94 649.431 68.3C648.551 68.66 647.778 69.1667 647.111 69.82C646.458 70.46 645.951 71.22 645.591 72.1C645.231 72.98 645.051 73.9467 645.051 75ZM661.886 68V82H664.306V68H661.886ZM669.506 68L663.586 74.62L669.746 82H672.646L666.446 74.56L672.346 68H669.506Z" fill="#DFDFDF"/>
<path d="M919.769 68V82H927.689V79.88H922.129V68H919.769ZM929.298 68V77.4C929.298 78.1733 929.418 78.8667 929.658 79.48C929.898 80.08 930.245 80.5933 930.698 81.02C931.165 81.4467 931.711 81.7733 932.338 82C932.965 82.2267 933.651 82.34 934.398 82.34C935.145 82.34 935.831 82.2267 936.458 82C937.085 81.7733 937.625 81.4467 938.078 81.02C938.531 80.5933 938.878 80.08 939.118 79.48C939.371 78.8667 939.498 78.1733 939.498 77.4V68H937.138V77.3C937.138 78.1667 936.905 78.8667 936.438 79.4C935.971 79.92 935.291 80.18 934.398 80.18C933.491 80.18 932.805 79.92 932.338 79.4C931.885 78.8667 931.658 78.1667 931.658 77.3V68H929.298ZM944.263 75C944.263 74 944.483 73.1333 944.923 72.4C945.376 71.6533 945.963 71.08 946.683 70.68C947.416 70.2667 948.21 70.06 949.063 70.06C949.73 70.06 950.33 70.1467 950.863 70.32C951.396 70.4933 951.876 70.7333 952.303 71.04C952.743 71.3333 953.123 71.6667 953.443 72.04V69.24C952.856 68.76 952.223 68.3933 951.543 68.14C950.863 67.8867 950.01 67.76 948.983 67.76C947.956 67.76 946.996 67.9333 946.103 68.28C945.223 68.6267 944.456 69.1267 943.803 69.78C943.15 70.4333 942.636 71.2067 942.263 72.1C941.903 72.98 941.723 73.9467 941.723 75C941.723 76.0533 941.903 77.0267 942.263 77.92C942.636 78.8 943.15 79.5667 943.803 80.22C944.456 80.8733 945.223 81.3733 946.103 81.72C946.996 82.0667 947.956 82.24 948.983 82.24C950.01 82.24 950.863 82.1133 951.543 81.86C952.223 81.6067 952.856 81.24 953.443 80.76V77.96C953.123 78.3333 952.743 78.6733 952.303 78.98C951.876 79.2733 951.396 79.5067 950.863 79.68C950.33 79.8533 949.73 79.94 949.063 79.94C948.21 79.94 947.416 79.74 946.683 79.34C945.963 78.9267 945.376 78.3467 944.923 77.6C944.483 76.8533 944.263 75.9867 944.263 75ZM956.351 68V82H958.771V68H956.351ZM963.971 68L958.051 74.62L964.211 82H967.111L960.911 74.56L966.811 68H963.971ZM977.039 68L973.779 74L970.519 68H967.839L972.579 76.12V82H974.979V76.1L979.739 68H977.039Z" fill="#DFDFDF"/>
<path d="M1187.04 77.84L1182.92 68H1180.2L1187.04 82.78L1193.88 68H1191.16L1187.04 77.84ZM1196.97 82H1204.03V79.92H1196.97V82ZM1196.97 70.08H1204.03V68H1196.97V70.08ZM1196.97 75.52H1203.63V73.48H1196.97V75.52ZM1195.51 68V82H1197.83V68H1195.51ZM1209.82 75.32L1214.28 82H1217.12L1212.38 75.32H1209.82ZM1206.94 68V82H1209.3V68H1206.94ZM1208.34 70.04H1211.16C1211.69 70.04 1212.16 70.1333 1212.56 70.32C1212.97 70.5067 1213.29 70.7733 1213.52 71.12C1213.74 71.4667 1213.86 71.8933 1213.86 72.4C1213.86 72.8933 1213.74 73.32 1213.52 73.68C1213.29 74.0267 1212.97 74.2933 1212.56 74.48C1212.16 74.6667 1211.69 74.76 1211.16 74.76H1208.34V76.7H1211.25C1212.27 76.7 1213.15 76.52 1213.9 76.16C1214.66 75.8 1215.24 75.2933 1215.65 74.64C1216.07 73.9867 1216.28 73.22 1216.28 72.34C1216.28 71.46 1216.07 70.7 1215.65 70.06C1215.24 69.4067 1214.66 68.9 1213.9 68.54C1213.15 68.18 1212.27 68 1211.25 68H1208.34V70.04ZM1226.53 68L1223.27 74L1220.01 68H1217.33L1222.07 76.12V82H1224.47V76.1L1229.23 68H1226.53ZM1236.84 68V82H1244.76V79.88H1239.2V68H1236.84ZM1246.37 68V77.4C1246.37 78.1733 1246.49 78.8667 1246.73 79.48C1246.97 80.08 1247.31 80.5933 1247.77 81.02C1248.23 81.4467 1248.78 81.7733 1249.41 82C1250.03 82.2267 1250.72 82.34 1251.47 82.34C1252.21 82.34 1252.9 82.2267 1253.53 82C1254.15 81.7733 1254.69 81.4467 1255.15 81.02C1255.6 80.5933 1255.95 80.08 1256.19 79.48C1256.44 78.8667 1256.57 78.1733 1256.57 77.4V68H1254.21V77.3C1254.21 78.1667 1253.97 78.8667 1253.51 79.4C1253.04 79.92 1252.36 80.18 1251.47 80.18C1250.56 80.18 1249.87 79.92 1249.41 79.4C1248.95 78.8667 1248.73 78.1667 1248.73 77.3V68H1246.37ZM1261.33 75C1261.33 74 1261.55 73.1333 1261.99 72.4C1262.44 71.6533 1263.03 71.08 1263.75 70.68C1264.48 70.2667 1265.28 70.06 1266.13 70.06C1266.8 70.06 1267.4 70.1467 1267.93 70.32C1268.46 70.4933 1268.94 70.7333 1269.37 71.04C1269.81 71.3333 1270.19 71.6667 1270.51 72.04V69.24C1269.92 68.76 1269.29 68.3933 1268.61 68.14C1267.93 67.8867 1267.08 67.76 1266.05 67.76C1265.02 67.76 1264.06 67.9333 1263.17 68.28C1262.29 68.6267 1261.52 69.1267 1260.87 69.78C1260.22 70.4333 1259.7 71.2067 1259.33 72.1C1258.97 72.98 1258.79 73.9467 1258.79 75C1258.79 76.0533 1258.97 77.0267 1259.33 77.92C1259.7 78.8 1260.22 79.5667 1260.87 80.22C1261.52 80.8733 1262.29 81.3733 1263.17 81.72C1264.06 82.0667 1265.02 82.24 1266.05 82.24C1267.08 82.24 1267.93 82.1133 1268.61 81.86C1269.29 81.6067 1269.92 81.24 1270.51 80.76V77.96C1270.19 78.3333 1269.81 78.6733 1269.37 78.98C1268.94 79.2733 1268.46 79.5067 1267.93 79.68C1267.4 79.8533 1266.8 79.94 1266.13 79.94C1265.28 79.94 1264.48 79.74 1263.75 79.34C1263.03 78.9267 1262.44 78.3467 1261.99 77.6C1261.55 76.8533 1261.33 75.9867 1261.33 75ZM1273.42 68V82H1275.84V68H1273.42ZM1281.04 68L1275.12 74.62L1281.28 82H1284.18L1277.98 74.56L1283.88 68H1281.04ZM1294.11 68L1290.85 74L1287.59 68H1284.91L1289.65 76.12V82H1292.05V76.1L1296.81 68H1294.11Z" fill="#DFDFDF"/>
<line y1="42" x2="1318" y2="42" stroke="url(#paint0_linear_382_193)" stroke-width="6"/>
<circle cx="79" cy="42" r="10" fill="#D9D9D9"/>
<circle cx="369" cy="42" r="10" fill="#D9D9D9"/>
<circle cx="659" cy="42" r="10" fill="#D9D9D9"/>
<circle cx="949" cy="42" r="10" fill="#D9D9D9"/>
<circle cx="1239" cy="42" r="10" fill="#D9D9D9"/>
<path d="M67.5028 14C67.5028 13.2533 67.5761 12.5667 67.7228 11.94C67.8695 11.3133 68.0761 10.7733 68.3428 10.32C68.6228 9.86667 68.9561 9.52 69.3428 9.28C69.7295 9.02667 70.1561 8.9 70.6228 8.9C71.1161 8.9 71.5495 9.02667 71.9228 9.28C72.3095 9.52 72.6361 9.86667 72.9028 10.32C73.1828 10.7733 73.3961 11.3133 73.5428 11.94C73.6895 12.5667 73.7628 13.2533 73.7628 14C73.7628 14.7467 73.6895 15.4333 73.5428 16.06C73.3961 16.6867 73.1828 17.2267 72.9028 17.68C72.6361 18.1333 72.3095 18.4867 71.9228 18.74C71.5495 18.98 71.1161 19.1 70.6228 19.1C70.1561 19.1 69.7295 18.98 69.3428 18.74C68.9561 18.4867 68.6228 18.1333 68.3428 17.68C68.0761 17.2267 67.8695 16.6867 67.7228 16.06C67.5761 15.4333 67.5028 14.7467 67.5028 14ZM65.1828 14C65.1828 15.4533 65.4095 16.72 65.8628 17.8C66.3295 18.88 66.9695 19.72 67.7828 20.32C68.6095 20.92 69.5561 21.22 70.6228 21.22C71.7161 21.22 72.6695 20.92 73.4828 20.32C74.3095 19.72 74.9495 18.88 75.4028 17.8C75.8561 16.72 76.0828 15.4533 76.0828 14C76.0828 12.5467 75.8561 11.28 75.4028 10.2C74.9495 9.12 74.3095 8.28 73.4828 7.68C72.6695 7.08 71.7161 6.78 70.6228 6.78C69.5561 6.78 68.6095 7.08 67.7828 7.68C66.9695 8.28 66.3295 9.12 65.8628 10.2C65.4095 11.28 65.1828 12.5467 65.1828 14ZM78.5628 19.98C78.5628 20.3533 78.6961 20.68 78.9628 20.96C79.2428 21.24 79.5761 21.38 79.9628 21.38C80.3761 21.38 80.7161 21.24 80.9828 20.96C81.2495 20.68 81.3828 20.3533 81.3828 19.98C81.3828 19.5933 81.2495 19.2667 80.9828 19C80.7161 18.72 80.3761 18.58 79.9628 18.58C79.5761 18.58 79.2428 18.72 78.9628 19C78.6961 19.2667 78.5628 19.5933 78.5628 19.98ZM84.6347 10.38C84.6347 10.9667 84.7414 11.4867 84.9547 11.94C85.1814 12.38 85.488 12.7533 85.8747 13.06C86.2614 13.3667 86.708 13.6 87.2147 13.76C87.7214 13.92 88.2614 14 88.8347 14C89.408 14 89.948 13.92 90.4547 13.76C90.9614 13.6 91.408 13.3667 91.7947 13.06C92.1814 12.7533 92.488 12.38 92.7147 11.94C92.9414 11.4867 93.0547 10.9667 93.0547 10.38C93.0547 9.66 92.8614 9.03333 92.4747 8.5C92.1014 7.95333 91.5947 7.52667 90.9547 7.22C90.328 6.91333 89.6214 6.76 88.8347 6.76C88.048 6.76 87.3347 6.91333 86.6947 7.22C86.068 7.52667 85.568 7.95333 85.1947 8.5C84.8214 9.03333 84.6347 9.66 84.6347 10.38ZM86.8747 10.62C86.8747 10.2333 86.9547 9.88667 87.1147 9.58C87.288 9.27333 87.5214 9.04 87.8147 8.88C88.1214 8.70667 88.4614 8.62 88.8347 8.62C89.2214 8.62 89.5614 8.70667 89.8547 8.88C90.148 9.04 90.3747 9.27333 90.5347 9.58C90.708 9.88667 90.7947 10.2333 90.7947 10.62C90.7947 11.02 90.708 11.3667 90.5347 11.66C90.3614 11.9533 90.1214 12.1867 89.8147 12.36C89.5214 12.52 89.1947 12.6 88.8347 12.6C88.4747 12.6 88.148 12.52 87.8547 12.36C87.5614 12.1867 87.3214 11.9533 87.1347 11.66C86.9614 11.3667 86.8747 11.02 86.8747 10.62ZM84.1347 17.2C84.1347 17.7867 84.2547 18.3267 84.4947 18.82C84.7347 19.3 85.068 19.7267 85.4947 20.1C85.9347 20.46 86.4347 20.74 86.9947 20.94C87.568 21.14 88.1814 21.24 88.8347 21.24C89.488 21.24 90.0947 21.14 90.6547 20.94C91.228 20.74 91.728 20.46 92.1547 20.1C92.5947 19.7267 92.9347 19.3 93.1747 18.82C93.428 18.3267 93.5547 17.7867 93.5547 17.2C93.5547 16.52 93.4147 15.9267 93.1347 15.42C92.868 14.9133 92.508 14.4933 92.0547 14.16C91.6014 13.8133 91.0947 13.56 90.5347 13.4C89.9747 13.24 89.408 13.16 88.8347 13.16C88.2614 13.16 87.6947 13.24 87.1347 13.4C86.5747 13.56 86.068 13.8133 85.6147 14.16C85.1614 14.4933 84.8014 14.9133 84.5347 15.42C84.268 15.9267 84.1347 16.52 84.1347 17.2ZM86.4547 16.88C86.4547 16.44 86.5614 16.04 86.7747 15.68C87.0014 15.32 87.2947 15.04 87.6547 14.84C88.028 14.6267 88.4214 14.52 88.8347 14.52C89.248 14.52 89.6347 14.6267 89.9947 14.84C90.368 15.04 90.668 15.32 90.8947 15.68C91.1214 16.04 91.2347 16.44 91.2347 16.88C91.2347 17.3867 91.1214 17.82 90.8947 18.18C90.668 18.5267 90.368 18.7933 89.9947 18.98C89.6347 19.1667 89.248 19.26 88.8347 19.26C88.4214 19.26 88.028 19.1667 87.6547 18.98C87.2947 18.7933 87.0014 18.5267 86.7747 18.18C86.5614 17.82 86.4547 17.3867 86.4547 16.88Z" fill="#1A8A47"/>
<path d="M356.151 14C356.151 13.2533 356.225 12.5667 356.371 11.94C356.518 11.3133 356.725 10.7733 356.991 10.32C357.271 9.86667 357.605 9.52 357.991 9.28C358.378 9.02667 358.805 8.9 359.271 8.9C359.765 8.9 360.198 9.02667 360.571 9.28C360.958 9.52 361.285 9.86667 361.551 10.32C361.831 10.7733 362.045 11.3133 362.191 11.94C362.338 12.5667 362.411 13.2533 362.411 14C362.411 14.7467 362.338 15.4333 362.191 16.06C362.045 16.6867 361.831 17.2267 361.551 17.68C361.285 18.1333 360.958 18.4867 360.571 18.74C360.198 18.98 359.765 19.1 359.271 19.1C358.805 19.1 358.378 18.98 357.991 18.74C357.605 18.4867 357.271 18.1333 356.991 17.68C356.725 17.2267 356.518 16.6867 356.371 16.06C356.225 15.4333 356.151 14.7467 356.151 14ZM353.831 14C353.831 15.4533 354.058 16.72 354.511 17.8C354.978 18.88 355.618 19.72 356.431 20.32C357.258 20.92 358.205 21.22 359.271 21.22C360.365 21.22 361.318 20.92 362.131 20.32C362.958 19.72 363.598 18.88 364.051 17.8C364.505 16.72 364.731 15.4533 364.731 14C364.731 12.5467 364.505 11.28 364.051 10.2C363.598 9.12 362.958 8.28 362.131 7.68C361.318 7.08 360.365 6.78 359.271 6.78C358.205 6.78 357.258 7.08 356.431 7.68C355.618 8.28 354.978 9.12 354.511 10.2C354.058 11.28 353.831 12.5467 353.831 14ZM367.211 19.98C367.211 20.3533 367.345 20.68 367.611 20.96C367.891 21.24 368.225 21.38 368.611 21.38C369.025 21.38 369.365 21.24 369.631 20.96C369.898 20.68 370.031 20.3533 370.031 19.98C370.031 19.5933 369.898 19.2667 369.631 19C369.365 18.72 369.025 18.58 368.611 18.58C368.225 18.58 367.891 18.72 367.611 19C367.345 19.2667 367.211 19.5933 367.211 19.98ZM380.663 11.72C380.663 12.2933 380.536 12.8 380.283 13.24C380.043 13.68 379.71 14.0267 379.283 14.28C378.856 14.5333 378.376 14.66 377.843 14.66C377.296 14.66 376.81 14.5333 376.383 14.28C375.956 14.0267 375.616 13.68 375.363 13.24C375.123 12.8 375.003 12.2933 375.003 11.72C375.003 11.1467 375.123 10.6467 375.363 10.22C375.616 9.78 375.956 9.44 376.383 9.2C376.81 8.94667 377.296 8.82 377.843 8.82C378.376 8.82 378.856 8.94667 379.283 9.2C379.71 9.44 380.043 9.78 380.283 10.22C380.536 10.6467 380.663 11.1467 380.663 11.72ZM377.343 20.98L381.783 15.02C382.13 14.5667 382.41 14.0667 382.623 13.52C382.85 12.9733 382.963 12.3733 382.963 11.72C382.963 10.68 382.736 9.79333 382.283 9.06C381.83 8.31333 381.216 7.74667 380.443 7.36C379.67 6.96 378.803 6.76 377.843 6.76C376.883 6.76 376.016 6.96 375.243 7.36C374.47 7.74667 373.85 8.31333 373.383 9.06C372.93 9.79333 372.703 10.68 372.703 11.72C372.703 12.3867 372.816 13 373.043 13.56C373.27 14.12 373.576 14.6067 373.963 15.02C374.363 15.42 374.816 15.7267 375.323 15.94C375.83 16.1533 376.363 16.26 376.923 16.26C377.39 16.26 377.796 16.2067 378.143 16.1C378.49 15.9933 378.823 15.7667 379.143 15.42L378.783 15.48L374.343 20.98H377.343Z" fill="#1A8A47"/>
<path d="M645.928 10.28L649.168 9.38V21H651.508V6.78L645.928 8.04V10.28ZM655.58 19.98C655.58 20.3533 655.714 20.68 655.98 20.96C656.26 21.24 656.594 21.38 656.98 21.38C657.394 21.38 657.734 21.24 658 20.96C658.267 20.68 658.4 20.3533 658.4 19.98C658.4 19.5933 658.267 19.2667 658 19C657.734 18.72 657.394 18.58 656.98 18.58C656.594 18.58 656.26 18.72 655.98 19C655.714 19.2667 655.58 19.5933 655.58 19.98ZM663.192 14C663.192 13.2533 663.266 12.5667 663.412 11.94C663.559 11.3133 663.766 10.7733 664.032 10.32C664.312 9.86667 664.646 9.52 665.032 9.28C665.419 9.02667 665.846 8.9 666.312 8.9C666.806 8.9 667.239 9.02667 667.612 9.28C667.999 9.52 668.326 9.86667 668.592 10.32C668.872 10.7733 669.086 11.3133 669.232 11.94C669.379 12.5667 669.452 13.2533 669.452 14C669.452 14.7467 669.379 15.4333 669.232 16.06C669.086 16.6867 668.872 17.2267 668.592 17.68C668.326 18.1333 667.999 18.4867 667.612 18.74C667.239 18.98 666.806 19.1 666.312 19.1C665.846 19.1 665.419 18.98 665.032 18.74C664.646 18.4867 664.312 18.1333 664.032 17.68C663.766 17.2267 663.559 16.6867 663.412 16.06C663.266 15.4333 663.192 14.7467 663.192 14ZM660.872 14C660.872 15.4533 661.099 16.72 661.552 17.8C662.019 18.88 662.659 19.72 663.472 20.32C664.299 20.92 665.246 21.22 666.312 21.22C667.406 21.22 668.359 20.92 669.172 20.32C669.999 19.72 670.639 18.88 671.092 17.8C671.546 16.72 671.772 15.4533 671.772 14C671.772 12.5467 671.546 11.28 671.092 10.2C670.639 9.12 669.999 8.28 669.172 7.68C668.359 7.08 667.406 6.78 666.312 6.78C665.246 6.78 664.299 7.08 663.472 7.68C662.659 8.28 662.019 9.12 661.552 10.2C661.099 11.28 660.872 12.5467 660.872 14Z" fill="#1A8A47"/>
<path d="M937.941 10.28L941.181 9.38V21H943.521V6.78L937.941 8.04V10.28ZM947.594 19.98C947.594 20.3533 947.727 20.68 947.994 20.96C948.274 21.24 948.607 21.38 948.994 21.38C949.407 21.38 949.747 21.24 950.014 20.96C950.281 20.68 950.414 20.3533 950.414 19.98C950.414 19.5933 950.281 19.2667 950.014 19C949.747 18.72 949.407 18.58 948.994 18.58C948.607 18.58 948.274 18.72 947.994 19C947.727 19.2667 947.594 19.5933 947.594 19.98ZM953.586 10.28L956.826 9.38V21H959.166V6.78L953.586 8.04V10.28Z" fill="#1A8A47"/>
<path d="M1226.64 10.28L1229.88 9.38V21H1232.22V6.78L1226.64 8.04V10.28ZM1236.3 19.98C1236.3 20.3533 1236.43 20.68 1236.7 20.96C1236.98 21.24 1237.31 21.38 1237.7 21.38C1238.11 21.38 1238.45 21.24 1238.72 20.96C1238.98 20.68 1239.12 20.3533 1239.12 19.98C1239.12 19.5933 1238.98 19.2667 1238.72 19C1238.45 18.72 1238.11 18.58 1237.7 18.58C1237.31 18.58 1236.98 18.72 1236.7 19C1236.43 19.2667 1236.3 19.5933 1236.3 19.98ZM1241.19 21H1251.87V18.8H1245.79L1249.77 14.9C1250.34 14.3667 1250.8 13.76 1251.15 13.08C1251.51 12.4 1251.69 11.6933 1251.69 10.96C1251.69 10.4933 1251.59 10.0133 1251.39 9.52C1251.2 9.02667 1250.91 8.57333 1250.51 8.16C1250.12 7.74667 1249.63 7.41333 1249.03 7.16C1248.43 6.89333 1247.72 6.76 1246.91 6.76C1245.84 6.76 1244.93 6.98667 1244.19 7.44C1243.45 7.88 1242.89 8.49333 1242.51 9.28C1242.13 10.0533 1241.95 10.94 1241.95 11.94H1244.29C1244.29 11.3267 1244.39 10.7867 1244.59 10.32C1244.8 9.85333 1245.1 9.5 1245.49 9.26C1245.87 9.00667 1246.33 8.88 1246.87 8.88C1247.25 8.88 1247.59 8.94667 1247.89 9.08C1248.18 9.2 1248.43 9.36667 1248.63 9.58C1248.84 9.79333 1248.99 10.0333 1249.09 10.3C1249.19 10.5533 1249.25 10.8133 1249.25 11.08C1249.25 11.4533 1249.19 11.8067 1249.07 12.14C1248.95 12.4733 1248.77 12.8067 1248.53 13.14C1248.29 13.4733 1248 13.82 1247.67 14.18L1241.19 21Z" fill="#1A8A47"/>
<defs>
<linearGradient id="paint0_linear_382_193" x1="0" y1="45.1035" x2="1318" y2="45.1035" gradientUnits="userSpaceOnUse">
<stop stop-color="#C12218" stop-opacity="0"/>
<stop offset="0.0599395" stop-color="#C12218"/>
<stop offset="0.499243" stop-color="#F0DF48"/>
<stop offset="0.941581" stop-color="#09DB6A"/>
<stop offset="1" stop-color="#09DB6A" stop-opacity="0"/>
</linearGradient>
</defs>
</svg>
