<?xml version="1.0" encoding="utf-8"?>
<!-- Generator: Adobe Illustrator 26.2.1, SVG Export Plug-In . SVG Version: 6.00 Build 0)  -->
<svg version="1.1" id="AW" xmlns="http://www.w3.org/2000/svg" xmlns:xlink="http://www.w3.org/1999/xlink" x="0px" y="0px"
	 viewBox="0 0 3200 2000" style="enable-background:new 0 0 3200 2000;" xml:space="preserve">
<style type="text/css">
	.st0{opacity:0.75;fill:#1A8A47;enable-background:new    ;}
	.st1{fill:#FDAC3A;}
	.st2{fill:#FDDB3A;}
</style>
<g>
	<g>
		<g>
			
				<ellipse transform="matrix(0.9998 -0.0176 0.0176 0.9998 -26.5259 28.4363)" class="st0" cx="1602.24" cy="1521.19" rx="1387.49" ry="308.31"/>
			<g>
				<g>
					<g>
						<g>
							<path class="st1" d="M2117.12,1201.75v-67.14h-146.64c-34.82-4.89-73.91-7.55-115.11-7.35
								c-38.13,0.19-74.18,2.81-106.48,7.35h-146.61v67.35c-0.04,0.78-0.04,1.56,0,2.34c2.39,41.84,119.58,75.19,261.74,74.49
								C2006.2,1278.09,2119.51,1243.6,2117.12,1201.75z"/>
							<ellipse class="st2" cx="1859.7" cy="1135.89" rx="257.45" ry="75.78"/>
							<path class="st2" d="M1859.63,1188c-58.78,0-114.66-6.44-157.35-18.13c-18.76-5.14-34.04-11.03-45.42-17.53
								c-5.94-3.4-9.49-9.52-9.48-16.38c0.01-6.96,3.62-13.17,9.67-16.6c11.08-6.3,25.83-12.04,43.83-17.05
								c41.8-11.64,96.81-18.22,154.91-18.5c60.26-0.34,117.68,6.16,161.33,18.12c18.62,5.1,33.82,10.95,45.18,17.4
								c6.06,3.44,9.69,9.65,9.69,16.59c0,6.92-3.6,13.11-9.64,16.54c-11.08,6.3-25.82,12.04-43.82,17.05
								c-41.8,11.65-96.82,18.22-154.91,18.51C1862.29,1187.99,1860.95,1188,1859.63,1188z M1859.79,1093.22
								c-1.31,0-2.63,0-3.95,0.01c-57.29,0.28-111.42,6.73-152.43,18.16c-17.26,4.81-31.28,10.25-41.7,16.17
								c-3.06,1.74-4.89,4.89-4.9,8.41c0,3.43,1.76,6.49,4.72,8.18c10.69,6.11,25.24,11.7,43.23,16.63
								c42.85,11.73,99.35,18.14,158.8,17.78c57.29-0.28,111.42-6.73,152.43-18.16c17.25-4.81,31.28-10.25,41.69-16.16
								c3.05-1.73,4.87-4.85,4.87-8.33c0-3.51-1.84-6.64-4.91-8.39c-10.68-6.06-25.15-11.61-43.01-16.5
								C1972.73,1099.53,1917.74,1093.22,1859.79,1093.22z"/>
						</g>
						<g>
							<path class="st1" d="M2117.12,1119.31v-67.14h-146.64c-34.82-4.89-73.91-7.55-115.11-7.35
								c-38.13,0.19-74.18,2.81-106.48,7.35h-146.61v67.35c-0.04,0.78-0.04,1.56,0,2.34c2.39,41.84,119.58,75.19,261.74,74.49
								C2006.2,1195.64,2119.51,1161.15,2117.12,1119.31z"/>
							<ellipse class="st2" cx="1859.7" cy="1053.44" rx="257.45" ry="75.78"/>
							<path class="st2" d="M1859.63,1105.55c-58.78,0-114.66-6.44-157.35-18.13c-18.76-5.13-34.04-11.03-45.42-17.53
								c-5.94-3.4-9.49-9.52-9.48-16.39c0.01-6.96,3.62-13.16,9.67-16.6c11.08-6.3,25.83-12.04,43.83-17.05
								c41.8-11.65,96.82-18.22,154.91-18.5c60.29-0.32,117.68,6.16,161.33,18.12c18.62,5.1,33.82,10.95,45.18,17.4
								c6.06,3.44,9.69,9.65,9.69,16.59c0,6.92-3.6,13.11-9.64,16.54c-11.08,6.3-25.82,12.04-43.82,17.05
								c-41.8,11.65-96.82,18.22-154.91,18.51C1862.29,1105.55,1860.95,1105.55,1859.63,1105.55z M1859.79,1010.77
								c-1.31,0-2.63,0-3.95,0.01c-57.28,0.28-111.41,6.73-152.43,18.16c-17.26,4.81-31.28,10.25-41.7,16.17
								c-3.06,1.74-4.89,4.88-4.9,8.41c0,3.43,1.76,6.49,4.72,8.18c10.69,6.11,25.24,11.7,43.23,16.63
								c42.85,11.73,99.35,18.13,158.8,17.78c57.29-0.28,111.42-6.73,152.43-18.16c17.25-4.81,31.28-10.25,41.69-16.16
								c3.05-1.73,4.87-4.85,4.87-8.33c0-3.51-1.84-6.64-4.91-8.39c-10.68-6.06-25.15-11.61-43.01-16.5
								C1972.73,1017.09,1917.74,1010.77,1859.79,1010.77z"/>
						</g>
						<g>
							<path class="st1" d="M2117.12,1036.86v-67.14h-146.64c-34.82-4.89-73.91-7.55-115.11-7.35
								c-38.13,0.19-74.18,2.81-106.48,7.35h-146.61v67.35c-0.04,0.78-0.04,1.56,0,2.34c2.39,41.84,119.58,75.19,261.74,74.49
								C2006.2,1113.19,2119.51,1078.7,2117.12,1036.86z"/>
							<ellipse class="st2" cx="1859.7" cy="970.99" rx="257.45" ry="75.78"/>
							<path class="st2" d="M1859.63,1023.1c-58.78,0-114.66-6.44-157.35-18.13c-18.76-5.14-34.04-11.03-45.42-17.53
								c-5.94-3.4-9.49-9.52-9.48-16.39c0.01-6.96,3.62-13.16,9.67-16.6c11.08-6.3,25.83-12.04,43.83-17.05
								c41.8-11.65,96.81-18.22,154.91-18.5c60.29-0.33,117.68,6.16,161.33,18.12c18.62,5.1,33.82,10.95,45.18,17.4
								c6.07,3.44,9.69,9.65,9.69,16.59c0,6.92-3.6,13.1-9.64,16.54c-11.08,6.3-25.82,12.03-43.82,17.05
								c-41.8,11.65-96.82,18.22-154.91,18.51C1862.29,1023.1,1860.95,1023.1,1859.63,1023.1z M1859.79,928.32
								c-1.31,0-2.63,0-3.95,0.01c-57.29,0.28-111.42,6.73-152.43,18.16c-17.26,4.81-31.28,10.25-41.7,16.17
								c-3.06,1.74-4.89,4.88-4.9,8.41c0,3.43,1.76,6.49,4.72,8.18c10.69,6.11,25.24,11.7,43.23,16.63
								c42.85,11.73,99.35,18.13,158.8,17.78c57.29-0.28,111.42-6.73,152.43-18.16c17.26-4.81,31.28-10.25,41.69-16.16
								c3.05-1.73,4.87-4.85,4.87-8.33c0-3.51-1.84-6.64-4.91-8.39c-10.68-6.06-25.15-11.61-43.01-16.5
								C1972.73,934.64,1917.74,928.32,1859.79,928.32z"/>
						</g>
						<g>
							<path class="st1" d="M2117.12,954.41v-67.14h-146.64c-34.82-4.89-73.91-7.55-115.11-7.35c-38.13,0.19-74.18,2.81-106.48,7.35
								h-146.61v67.35c-0.04,0.78-0.04,1.56,0,2.34c2.39,41.84,119.58,75.19,261.74,74.49
								C2006.2,1030.75,2119.51,996.26,2117.12,954.41z"/>
							<ellipse class="st2" cx="1859.7" cy="888.54" rx="257.45" ry="75.78"/>
							<path class="st2" d="M1859.63,940.66c-58.78,0-114.66-6.44-157.35-18.13c-18.76-5.14-34.04-11.03-45.42-17.53
								c-5.94-3.4-9.49-9.52-9.48-16.39c0.01-6.96,3.62-13.16,9.67-16.6c11.08-6.3,25.83-12.04,43.83-17.05
								c41.8-11.65,96.81-18.22,154.91-18.5c60.29-0.27,117.68,6.16,161.33,18.12c18.62,5.1,33.82,10.95,45.18,17.39
								c6.07,3.44,9.69,9.65,9.69,16.59c0,6.92-3.6,13.1-9.64,16.54c-11.08,6.3-25.82,12.03-43.82,17.05
								c-41.8,11.65-96.82,18.22-154.91,18.51C1862.29,940.65,1860.95,940.66,1859.63,940.66z M1859.79,845.87
								c-1.31,0-2.63,0-3.95,0.01c-57.29,0.28-111.42,6.73-152.43,18.16c-17.26,4.81-31.28,10.25-41.7,16.17
								c-3.06,1.74-4.89,4.88-4.9,8.41c0,3.43,1.76,6.49,4.72,8.18c10.69,6.11,25.24,11.7,43.23,16.63
								c42.85,11.73,99.35,18.12,158.8,17.78c57.29-0.28,111.42-6.73,152.43-18.16c17.26-4.81,31.28-10.25,41.69-16.16
								c3.05-1.73,4.87-4.85,4.87-8.33c0-3.51-1.84-6.64-4.91-8.39c-10.68-6.06-25.15-11.61-43.01-16.5
								C1972.73,852.19,1917.74,845.87,1859.79,845.87z"/>
						</g>
						<g>
							<path class="st1" d="M2117.12,870.21v-67.14h-146.64c-34.82-4.89-73.91-7.55-115.11-7.35c-38.13,0.19-74.18,2.81-106.48,7.35
								h-146.61v67.35c-0.04,0.78-0.04,1.56,0,2.34c2.39,41.84,119.58,75.19,261.74,74.49S2119.51,912.05,2117.12,870.21z"/>
							<ellipse class="st2" cx="1859.7" cy="804.34" rx="257.45" ry="75.78"/>
							<path class="st2" d="M1859.63,856.45c-58.78,0-114.66-6.44-157.35-18.13c-18.76-5.13-34.04-11.03-45.42-17.53
								c-5.94-3.39-9.49-9.52-9.48-16.39c0.01-6.96,3.62-13.16,9.67-16.6c11.08-6.3,25.83-12.04,43.83-17.05
								c41.8-11.65,96.82-18.22,154.91-18.5c60.29-0.28,117.68,6.16,161.33,18.12c18.62,5.1,33.82,10.95,45.18,17.4
								c6.06,3.44,9.69,9.64,9.69,16.59c0,6.92-3.6,13.11-9.64,16.54c-11.08,6.3-25.82,12.04-43.82,17.05
								c-41.8,11.65-96.82,18.22-154.91,18.51C1862.29,856.45,1860.95,856.45,1859.63,856.45z M1859.79,761.67
								c-1.31,0-2.63,0-3.95,0.01c-57.28,0.28-111.41,6.73-152.43,18.16c-17.26,4.81-31.28,10.25-41.7,16.17
								c-3.06,1.74-4.89,4.88-4.9,8.41c0,3.43,1.76,6.49,4.72,8.18c10.69,6.11,25.24,11.7,43.23,16.63
								c42.85,11.73,99.35,18.11,158.8,17.78c57.29-0.28,111.42-6.73,152.43-18.16c17.25-4.81,31.28-10.25,41.69-16.16
								c3.05-1.73,4.87-4.85,4.87-8.33c0-3.51-1.84-6.64-4.91-8.39c-10.68-6.06-25.15-11.61-43.01-16.5
								C1972.73,767.99,1917.74,761.67,1859.79,761.67z"/>
						</g>
						<g>
							<path class="st1" d="M2117.12,787.76v-67.14h-146.64c-34.82-4.89-73.91-7.55-115.11-7.35c-38.13,0.19-74.18,2.81-106.48,7.35
								h-146.61v67.35c-0.04,0.78-0.04,1.56,0,2.34c2.39,41.84,119.58,75.19,261.74,74.49
								C2006.2,864.1,2119.51,829.61,2117.12,787.76z"/>
							<ellipse class="st2" cx="1859.7" cy="721.9" rx="257.45" ry="75.78"/>
							<path class="st2" d="M1859.63,774.01c-58.78,0-114.66-6.44-157.35-18.13c-18.76-5.13-34.04-11.03-45.42-17.53
								c-5.94-3.39-9.49-9.52-9.48-16.39c0.01-6.96,3.62-13.16,9.67-16.6c11.08-6.3,25.83-12.04,43.83-17.05
								c41.8-11.65,96.81-18.22,154.91-18.5c60.29-0.3,117.68,6.16,161.33,18.12c18.62,5.1,33.82,10.95,45.18,17.4
								c6.06,3.44,9.69,9.64,9.69,16.59c0,6.92-3.6,13.11-9.64,16.54c-11.08,6.3-25.82,12.04-43.82,17.05
								c-41.8,11.65-96.82,18.22-154.91,18.51C1862.29,774,1860.95,774.01,1859.63,774.01z M1859.79,679.22
								c-1.31,0-2.63,0-3.95,0.01c-57.29,0.28-111.42,6.73-152.43,18.16c-17.26,4.81-31.28,10.25-41.7,16.17
								c-3.06,1.74-4.89,4.88-4.9,8.41c0,3.43,1.76,6.49,4.72,8.18c10.69,6.11,25.24,11.7,43.23,16.63
								c42.85,11.73,99.35,18.11,158.8,17.78c57.29-0.28,111.42-6.73,152.43-18.16c17.25-4.81,31.28-10.25,41.69-16.16
								c3.05-1.73,4.87-4.85,4.87-8.33c0-3.51-1.84-6.64-4.91-8.39c-10.68-6.06-25.15-11.61-43.01-16.5
								C1972.73,685.54,1917.74,679.22,1859.79,679.22z"/>
						</g>
					</g>
				</g>
				<g>
					<g>
						<g>
							<path class="st1" d="M1413.4,1232.43v-67.14h-146.64c-34.82-4.89-73.91-7.55-115.11-7.35c-38.13,0.19-74.18,2.81-106.48,7.35
								H898.56v67.35c-0.04,0.78-0.04,1.56,0,2.34c2.39,41.84,119.58,75.19,261.74,74.49
								C1302.48,1308.76,1415.79,1274.27,1413.4,1232.43z"/>
							<ellipse class="st2" cx="1155.98" cy="1166.56" rx="257.45" ry="75.78"/>
							<path class="st2" d="M1155.91,1218.67c-58.78,0-114.66-6.44-157.35-18.13c-18.76-5.14-34.04-11.03-45.42-17.53
								c-5.94-3.4-9.49-9.52-9.48-16.38c0.01-6.96,3.62-13.17,9.67-16.6c11.08-6.3,25.83-12.04,43.83-17.05
								c41.8-11.64,96.81-18.22,154.91-18.5c60.26-0.34,117.68,6.16,161.33,18.12c18.62,5.1,33.82,10.95,45.18,17.4
								c6.06,3.44,9.69,9.65,9.69,16.59c0,6.92-3.6,13.11-9.64,16.54c-11.08,6.3-25.82,12.04-43.82,17.05
								c-41.8,11.65-96.82,18.22-154.91,18.51C1158.57,1218.67,1157.23,1218.67,1155.91,1218.67z M1156.06,1123.89
								c-1.31,0-2.63,0-3.95,0.01c-57.29,0.28-111.42,6.73-152.43,18.16c-17.26,4.81-31.28,10.25-41.7,16.17
								c-3.06,1.74-4.89,4.89-4.9,8.41c0,3.43,1.76,6.49,4.72,8.18c10.69,6.11,25.24,11.7,43.23,16.63
								c42.85,11.73,99.35,18.14,158.8,17.78c57.29-0.28,111.42-6.73,152.43-18.16c17.25-4.81,31.28-10.25,41.69-16.16
								c3.05-1.73,4.87-4.85,4.87-8.33c0-3.51-1.84-6.64-4.91-8.39c-10.68-6.06-25.15-11.61-43.01-16.5
								C1269.01,1130.21,1214.02,1123.89,1156.06,1123.89z"/>
						</g>
						<g>
							<path class="st1" d="M1413.4,1149.98v-67.14h-146.64c-34.82-4.89-73.91-7.55-115.11-7.35c-38.13,0.19-74.18,2.81-106.48,7.35
								H898.56v67.35c-0.04,0.78-0.04,1.56,0,2.34c2.39,41.84,119.58,75.19,261.74,74.49
								C1302.48,1226.31,1415.79,1191.82,1413.4,1149.98z"/>
							<ellipse class="st2" cx="1155.98" cy="1084.11" rx="257.45" ry="75.78"/>
							<path class="st2" d="M1155.91,1136.22c-58.78,0-114.66-6.44-157.35-18.13c-18.76-5.13-34.04-11.03-45.42-17.53
								c-5.94-3.4-9.49-9.52-9.48-16.39c0.01-6.96,3.62-13.16,9.67-16.6c11.08-6.3,25.83-12.04,43.83-17.05
								c41.8-11.65,96.82-18.22,154.91-18.5c60.29-0.32,117.68,6.16,161.33,18.12c18.62,5.1,33.82,10.95,45.18,17.4
								c6.06,3.44,9.69,9.64,9.69,16.59c0,6.92-3.6,13.11-9.64,16.54c-11.08,6.3-25.82,12.04-43.82,17.05
								c-41.8,11.65-96.82,18.22-154.91,18.51C1158.57,1136.22,1157.23,1136.22,1155.91,1136.22z M1156.06,1041.44
								c-1.31,0-2.63,0-3.95,0.01c-57.28,0.28-111.41,6.73-152.43,18.16c-17.26,4.81-31.28,10.25-41.7,16.17
								c-3.06,1.74-4.89,4.88-4.9,8.41c0,3.43,1.76,6.49,4.72,8.18c10.69,6.11,25.24,11.7,43.23,16.63
								c42.85,11.73,99.35,18.13,158.8,17.78c57.29-0.28,111.42-6.73,152.43-18.16c17.25-4.81,31.28-10.25,41.69-16.16
								c3.05-1.73,4.87-4.85,4.87-8.33c0-3.51-1.84-6.64-4.91-8.39c-10.68-6.06-25.15-11.61-43.01-16.5
								C1269.01,1047.76,1214.02,1041.44,1156.06,1041.44z"/>
						</g>
						<g>
							<path class="st1" d="M1413.4,1067.53v-67.14h-146.64c-34.82-4.89-73.91-7.55-115.11-7.35c-38.13,0.19-74.18,2.81-106.48,7.35
								H898.56v67.35c-0.04,0.78-0.04,1.56,0,2.34c2.39,41.84,119.58,75.19,261.74,74.49S1415.79,1109.38,1413.4,1067.53z"/>
							<ellipse class="st2" cx="1155.98" cy="1001.67" rx="257.45" ry="75.78"/>
							<path class="st2" d="M1155.91,1053.78c-58.78,0-114.66-6.44-157.35-18.13c-18.76-5.14-34.04-11.03-45.42-17.53
								c-5.94-3.39-9.49-9.52-9.48-16.39c0.01-6.96,3.62-13.16,9.67-16.6c11.08-6.3,25.83-12.04,43.83-17.05
								c41.8-11.65,96.81-18.22,154.91-18.5c60.29-0.33,117.68,6.16,161.33,18.12c18.62,5.1,33.82,10.95,45.18,17.4
								c6.07,3.44,9.69,9.65,9.69,16.59c0,6.92-3.6,13.1-9.64,16.54c-11.08,6.3-25.82,12.03-43.82,17.05
								c-41.8,11.65-96.82,18.22-154.91,18.51C1158.57,1053.77,1157.23,1053.78,1155.91,1053.78z M1156.06,958.99
								c-1.31,0-2.63,0-3.95,0.01c-57.29,0.28-111.42,6.73-152.43,18.16c-17.26,4.81-31.28,10.25-41.7,16.17
								c-3.06,1.74-4.89,4.88-4.9,8.41c0,3.43,1.76,6.49,4.72,8.18c10.69,6.11,25.24,11.7,43.23,16.63
								c42.85,11.73,99.35,18.13,158.8,17.78c57.29-0.28,111.42-6.73,152.43-18.16c17.26-4.81,31.28-10.25,41.69-16.16
								c3.05-1.73,4.87-4.85,4.87-8.33c0-3.51-1.84-6.64-4.91-8.39c-10.68-6.06-25.15-11.61-43.01-16.5
								C1269.01,965.31,1214.02,958.99,1156.06,958.99z"/>
						</g>
						<g>
							<path class="st1" d="M1413.4,985.09v-67.14h-146.64c-34.82-4.89-73.91-7.55-115.11-7.35c-38.13,0.19-74.18,2.81-106.48,7.35
								H898.56v67.35c-0.04,0.78-0.04,1.56,0,2.34c2.39,41.84,119.58,75.19,261.74,74.49
								C1302.48,1061.42,1415.79,1026.93,1413.4,985.09z"/>
							<ellipse class="st2" cx="1155.98" cy="919.22" rx="257.45" ry="75.78"/>
							<path class="st2" d="M1155.91,971.33c-58.78,0-114.66-6.44-157.35-18.13c-18.76-5.14-34.04-11.03-45.42-17.53
								c-5.94-3.4-9.49-9.52-9.48-16.39c0.01-6.96,3.62-13.16,9.67-16.6c11.08-6.3,25.83-12.04,43.83-17.05
								c41.8-11.65,96.81-18.22,154.91-18.5c60.29-0.27,117.68,6.16,161.33,18.12c18.62,5.1,33.82,10.95,45.18,17.4
								c6.07,3.44,9.69,9.64,9.69,16.59c0,6.92-3.6,13.1-9.64,16.54c-11.08,6.3-25.82,12.03-43.82,17.05
								c-41.8,11.65-96.82,18.22-154.91,18.51C1158.57,971.33,1157.23,971.33,1155.91,971.33z M1156.06,876.55
								c-1.31,0-2.63,0-3.95,0.01c-57.29,0.28-111.42,6.73-152.43,18.16c-17.26,4.81-31.28,10.25-41.7,16.17
								c-3.06,1.74-4.89,4.88-4.9,8.41c0,3.43,1.76,6.49,4.72,8.18c10.69,6.11,25.24,11.7,43.23,16.63
								c42.85,11.73,99.35,18.12,158.8,17.78c57.29-0.28,111.42-6.73,152.43-18.16c17.26-4.81,31.28-10.25,41.69-16.16
								c3.05-1.73,4.87-4.85,4.87-8.33c0-3.51-1.84-6.64-4.91-8.39c-10.68-6.06-25.15-11.61-43.01-16.5
								C1269.01,882.87,1214.02,876.55,1156.06,876.55z"/>
						</g>
						<g>
							<path class="st1" d="M1413.4,900.88v-67.14h-146.64c-34.82-4.89-73.91-7.55-115.11-7.35c-38.13,0.19-74.18,2.81-106.48,7.35
								H898.56v67.35c-0.04,0.78-0.04,1.56,0,2.34c2.39,41.84,119.58,75.19,261.74,74.49S1415.79,942.73,1413.4,900.88z"/>
							<ellipse class="st2" cx="1155.98" cy="835.02" rx="257.45" ry="75.78"/>
							<path class="st2" d="M1155.91,887.13c-58.78,0-114.66-6.44-157.35-18.13c-18.76-5.13-34.04-11.03-45.42-17.53
								c-5.94-3.39-9.49-9.52-9.48-16.39c0.01-6.96,3.62-13.16,9.67-16.6c11.08-6.3,25.83-12.04,43.83-17.05
								c41.8-11.65,96.82-18.22,154.91-18.5c60.29-0.28,117.68,6.16,161.33,18.12c18.62,5.1,33.82,10.95,45.18,17.4
								c6.06,3.44,9.69,9.64,9.69,16.59c0,6.92-3.6,13.11-9.64,16.54c-11.08,6.3-25.82,12.04-43.82,17.05
								c-41.8,11.65-96.82,18.22-154.91,18.51C1158.57,887.12,1157.23,887.13,1155.91,887.13z M1156.06,792.34
								c-1.31,0-2.63,0-3.95,0.01c-57.28,0.28-111.41,6.73-152.43,18.16c-17.26,4.81-31.28,10.25-41.7,16.17
								c-3.06,1.74-4.89,4.88-4.9,8.41c0,3.43,1.76,6.49,4.72,8.18c10.69,6.11,25.24,11.7,43.23,16.63
								c42.85,11.73,99.35,18.11,158.8,17.78c57.29-0.28,111.42-6.73,152.43-18.16c17.25-4.81,31.28-10.25,41.69-16.16
								c3.05-1.73,4.87-4.85,4.87-8.33c0-3.51-1.84-6.64-4.91-8.39c-10.68-6.06-25.15-11.61-43.01-16.5
								C1269.01,798.66,1214.02,792.34,1156.06,792.34z"/>
						</g>
						<g>
							<path class="st1" d="M1413.4,818.44V751.3h-146.64c-34.82-4.89-73.91-7.55-115.11-7.35c-38.13,0.19-74.18,2.81-106.48,7.35
								H898.56v67.35c-0.04,0.78-0.04,1.56,0,2.34c2.39,41.84,119.58,75.19,261.74,74.49S1415.79,860.28,1413.4,818.44z"/>
							<ellipse class="st2" cx="1155.98" cy="752.57" rx="257.45" ry="75.78"/>
							<path class="st2" d="M1155.91,804.68c-58.78,0-114.66-6.44-157.35-18.13c-18.76-5.13-34.04-11.03-45.42-17.53
								c-5.94-3.39-9.49-9.52-9.48-16.39c0.01-6.96,3.62-13.16,9.67-16.6c11.08-6.3,25.83-12.04,43.83-17.05
								c41.8-11.65,96.81-18.22,154.91-18.5c60.29-0.3,117.68,6.16,161.33,18.12c18.62,5.1,33.82,10.95,45.18,17.4
								c6.06,3.44,9.69,9.64,9.69,16.59c0,6.92-3.6,13.11-9.64,16.54c-11.08,6.3-25.82,12.04-43.82,17.05
								c-41.8,11.65-96.82,18.22-154.91,18.51C1158.57,804.68,1157.23,804.68,1155.91,804.68z M1156.06,709.9
								c-1.31,0-2.63,0-3.95,0.01c-57.29,0.28-111.42,6.73-152.43,18.16c-17.26,4.81-31.28,10.25-41.7,16.17
								c-3.06,1.74-4.89,4.88-4.9,8.41c0,3.43,1.76,6.49,4.72,8.18c10.69,6.11,25.24,11.7,43.23,16.63
								c42.85,11.73,99.35,18.11,158.8,17.78c57.29-0.28,111.42-6.73,152.43-18.16c17.25-4.81,31.28-10.25,41.69-16.16
								c3.05-1.73,4.87-4.85,4.87-8.33c0-3.51-1.84-6.64-4.91-8.39c-10.68-6.06-25.15-11.61-43.01-16.5
								C1269.01,716.22,1214.02,709.9,1156.06,709.9z"/>
						</g>
					</g>
				</g>
				<g>
					<g>
						<path class="st1" d="M2532.24,1392.41v-67.14H2385.6c-34.82-4.89-73.91-7.55-115.11-7.35c-38.13,0.19-74.18,2.81-106.48,7.35
							H2017.4v67.35c-0.04,0.78-0.04,1.56,0,2.34c2.39,41.84,119.58,75.19,261.74,74.49
							C2421.32,1468.74,2534.63,1434.25,2532.24,1392.41z"/>
						<ellipse class="st2" cx="2274.82" cy="1326.54" rx="257.45" ry="75.78"/>
						<path class="st2" d="M2274.75,1378.65c-58.78,0-114.66-6.44-157.35-18.13c-18.76-5.14-34.04-11.03-45.42-17.53
							c-5.94-3.4-9.49-9.52-9.48-16.38c0.01-6.96,3.62-13.17,9.67-16.6c11.08-6.3,25.83-12.04,43.83-17.05
							c41.8-11.64,96.81-18.22,154.91-18.5c60.26-0.34,117.68,6.16,161.33,18.12c18.62,5.1,33.82,10.95,45.18,17.4
							c6.06,3.44,9.69,9.65,9.69,16.59c0,6.92-3.6,13.11-9.64,16.54c-11.08,6.3-25.82,12.04-43.82,17.05
							c-41.8,11.65-96.82,18.22-154.91,18.51C2277.41,1378.65,2276.07,1378.65,2274.75,1378.65z M2274.9,1283.87
							c-1.31,0-2.63,0-3.95,0.01c-57.29,0.28-111.42,6.73-152.43,18.16c-17.25,4.81-31.28,10.25-41.7,16.17
							c-3.06,1.74-4.89,4.89-4.9,8.41c0,3.43,1.76,6.49,4.72,8.18c10.69,6.11,25.24,11.7,43.23,16.63
							c42.85,11.73,99.35,18.14,158.8,17.78c57.28-0.28,111.42-6.73,152.43-18.16c17.25-4.81,31.28-10.25,41.69-16.16
							c3.05-1.73,4.87-4.85,4.87-8.33c0-3.51-1.84-6.64-4.91-8.39c-10.68-6.06-25.15-11.61-43.01-16.5
							C2387.85,1290.19,2332.86,1283.87,2274.9,1283.87z"/>
					</g>
					<g>
						<path class="st1" d="M2532.24,1309.96v-67.14H2385.6c-34.82-4.89-73.91-7.55-115.11-7.35c-38.13,0.19-74.18,2.81-106.48,7.35
							H2017.4v67.35c-0.04,0.78-0.04,1.56,0,2.34c2.39,41.84,119.58,75.19,261.74,74.49
							C2421.32,1386.3,2534.63,1351.8,2532.24,1309.96z"/>
						<ellipse class="st2" cx="2274.82" cy="1244.09" rx="257.45" ry="75.78"/>
						<path class="st2" d="M2274.75,1296.2c-58.78,0-114.66-6.44-157.35-18.13c-18.76-5.13-34.04-11.03-45.42-17.53
							c-5.94-3.4-9.49-9.52-9.48-16.39c0.01-6.96,3.62-13.16,9.67-16.6c11.08-6.3,25.83-12.04,43.83-17.05
							c41.8-11.65,96.82-18.22,154.91-18.5c60.29-0.32,117.68,6.16,161.33,18.12c18.62,5.1,33.82,10.95,45.18,17.4
							c6.06,3.44,9.69,9.65,9.69,16.59c0,6.92-3.6,13.11-9.64,16.54c-11.08,6.3-25.82,12.04-43.82,17.05
							c-41.8,11.65-96.82,18.22-154.91,18.51C2277.41,1296.2,2276.07,1296.2,2274.75,1296.2z M2274.9,1201.42
							c-1.31,0-2.63,0-3.95,0.01c-57.28,0.28-111.41,6.73-152.43,18.16c-17.25,4.81-31.28,10.25-41.7,16.17
							c-3.06,1.74-4.89,4.88-4.9,8.41c0,3.43,1.76,6.49,4.72,8.18c10.69,6.11,25.24,11.7,43.23,16.63
							c42.85,11.73,99.35,18.13,158.8,17.78c57.28-0.28,111.42-6.73,152.43-18.16c17.25-4.81,31.28-10.25,41.69-16.16
							c3.05-1.73,4.87-4.85,4.87-8.33c0-3.51-1.84-6.64-4.91-8.39c-10.68-6.06-25.15-11.61-43.01-16.5
							C2387.85,1207.74,2332.86,1201.42,2274.9,1201.42z"/>
					</g>
					<g>
						<path class="st1" d="M2532.24,1227.51v-67.14H2385.6c-34.82-4.89-73.91-7.55-115.11-7.35c-38.13,0.19-74.18,2.81-106.48,7.35
							H2017.4v67.35c-0.04,0.78-0.04,1.56,0,2.34c2.39,41.84,119.58,75.19,261.74,74.49
							C2421.32,1303.85,2534.63,1269.36,2532.24,1227.51z"/>
						<ellipse class="st2" cx="2274.82" cy="1161.65" rx="257.45" ry="75.78"/>
						<path class="st2" d="M2274.75,1213.76c-58.78,0-114.66-6.44-157.35-18.13c-18.76-5.14-34.04-11.03-45.42-17.53
							c-5.94-3.39-9.49-9.52-9.48-16.39c0.01-6.96,3.62-13.16,9.67-16.6c11.08-6.3,25.83-12.04,43.83-17.05
							c41.8-11.65,96.81-18.22,154.91-18.5c60.29-0.33,117.68,6.16,161.33,18.12c18.62,5.1,33.82,10.95,45.18,17.4
							c6.07,3.44,9.69,9.65,9.69,16.59c0,6.92-3.6,13.1-9.64,16.54c-11.08,6.3-25.82,12.03-43.82,17.05
							c-41.8,11.65-96.82,18.22-154.91,18.51C2277.41,1213.75,2276.07,1213.76,2274.75,1213.76z M2274.9,1118.97
							c-1.31,0-2.63,0-3.95,0.01c-57.29,0.28-111.42,6.73-152.43,18.16c-17.25,4.81-31.28,10.25-41.7,16.17
							c-3.06,1.74-4.89,4.88-4.9,8.41c0,3.43,1.76,6.49,4.72,8.18c10.69,6.11,25.24,11.7,43.23,16.63
							c42.85,11.73,99.35,18.13,158.8,17.78c57.28-0.28,111.42-6.73,152.43-18.16c17.26-4.81,31.28-10.25,41.69-16.16
							c3.05-1.73,4.87-4.85,4.87-8.33c0-3.51-1.84-6.64-4.91-8.39c-10.68-6.06-25.15-11.61-43.01-16.5
							C2387.85,1125.29,2332.86,1118.97,2274.9,1118.97z"/>
					</g>
				</g>
				<g>
					<g>
						<path class="st1" d="M1016.3,1507.6v-67.14H869.66c-34.82-4.89-73.91-7.55-115.11-7.35c-38.13,0.19-74.18,2.81-106.48,7.35
							h-146.6v67.35c-0.04,0.78-0.04,1.56,0,2.34c2.39,41.84,119.58,75.19,261.74,74.49
							C905.38,1583.94,1018.69,1549.45,1016.3,1507.6z"/>
						<ellipse class="st2" cx="758.88" cy="1441.73" rx="257.45" ry="75.78"/>
						<path class="st2" d="M758.81,1493.84c-58.78,0-114.66-6.44-157.35-18.13c-18.76-5.14-34.04-11.03-45.42-17.53
							c-5.94-3.39-9.49-9.52-9.48-16.38c0.01-6.96,3.62-13.17,9.67-16.6c11.08-6.3,25.83-12.04,43.83-17.05
							c41.8-11.64,96.81-18.22,154.91-18.5c60.26-0.34,117.68,6.16,161.33,18.12c18.62,5.1,33.82,10.95,45.18,17.4
							c6.06,3.44,9.69,9.64,9.69,16.59c0,6.92-3.6,13.11-9.64,16.54c-11.08,6.3-25.82,12.04-43.82,17.05
							c-41.8,11.65-96.82,18.22-154.91,18.51C761.47,1493.84,760.13,1493.84,758.81,1493.84z M758.97,1399.06
							c-1.31,0-2.63,0-3.95,0.01c-57.29,0.28-111.42,6.73-152.43,18.16c-17.26,4.81-31.28,10.25-41.7,16.17
							c-3.06,1.74-4.89,4.89-4.9,8.41c0,3.43,1.76,6.49,4.72,8.18c10.69,6.11,25.24,11.7,43.23,16.63
							c42.85,11.73,99.35,18.14,158.8,17.78c57.28-0.28,111.42-6.73,152.43-18.16c17.25-4.81,31.28-10.25,41.69-16.16
							c3.05-1.73,4.87-4.85,4.87-8.33c0-3.51-1.84-6.64-4.91-8.39c-10.68-6.06-25.15-11.61-43.01-16.5
							C871.91,1405.38,816.92,1399.06,758.97,1399.06z"/>
					</g>
					<g>
						<path class="st1" d="M1016.3,1425.15v-67.14H869.66c-34.82-4.89-73.91-7.55-115.11-7.35c-38.13,0.19-74.18,2.81-106.48,7.35
							h-146.6v67.35c-0.04,0.78-0.04,1.56,0,2.34c2.39,41.84,119.58,75.19,261.74,74.49C905.38,1501.49,1018.69,1467,1016.3,1425.15
							z"/>
						<ellipse class="st2" cx="758.88" cy="1359.29" rx="257.45" ry="75.78"/>
						<path class="st2" d="M758.81,1411.4c-58.78,0-114.66-6.44-157.35-18.13c-18.76-5.13-34.04-11.03-45.42-17.53
							c-5.94-3.4-9.49-9.52-9.48-16.39c0.01-6.96,3.62-13.16,9.67-16.6c11.08-6.3,25.83-12.04,43.83-17.05
							c41.8-11.65,96.82-18.22,154.91-18.5c60.29-0.32,117.68,6.16,161.33,18.12c18.62,5.1,33.82,10.95,45.18,17.4
							c6.06,3.44,9.69,9.64,9.69,16.59c0,6.92-3.6,13.11-9.64,16.54c-11.08,6.3-25.82,12.04-43.82,17.05
							c-41.8,11.65-96.82,18.22-154.91,18.51C761.47,1411.39,760.13,1411.4,758.81,1411.4z M758.97,1316.61
							c-1.31,0-2.63,0-3.95,0.01c-57.28,0.28-111.41,6.73-152.43,18.16c-17.26,4.81-31.28,10.25-41.7,16.17
							c-3.06,1.74-4.89,4.88-4.9,8.41c0,3.43,1.76,6.49,4.72,8.18c10.69,6.11,25.24,11.7,43.23,16.63
							c42.85,11.73,99.35,18.13,158.8,17.78c57.28-0.28,111.42-6.73,152.43-18.16c17.25-4.81,31.28-10.25,41.69-16.16
							c3.05-1.73,4.87-4.85,4.87-8.33c0-3.51-1.84-6.64-4.91-8.39c-10.68-6.06-25.15-11.61-43.01-16.5
							C871.91,1322.93,816.92,1316.61,758.97,1316.61z"/>
					</g>
					<g>
						<path class="st1" d="M1016.3,1342.71v-67.14H869.66c-34.82-4.89-73.91-7.55-115.11-7.35c-38.13,0.19-74.18,2.81-106.48,7.35
							h-146.6v67.35c-0.04,0.78-0.04,1.56,0,2.34c2.39,41.84,119.58,75.19,261.74,74.49
							C905.38,1419.04,1018.69,1384.55,1016.3,1342.71z"/>
						<ellipse class="st2" cx="758.88" cy="1276.84" rx="257.45" ry="75.78"/>
						<path class="st2" d="M758.81,1328.95c-58.78,0-114.66-6.44-157.35-18.13c-18.76-5.13-34.04-11.03-45.42-17.53
							c-5.94-3.4-9.49-9.52-9.48-16.39c0.01-6.96,3.62-13.16,9.67-16.6c11.08-6.3,25.83-12.04,43.83-17.05
							c41.8-11.65,96.81-18.22,154.91-18.5c60.29-0.33,117.68,6.16,161.33,18.12c18.62,5.1,33.82,10.95,45.18,17.4
							c6.07,3.44,9.69,9.65,9.69,16.59c0,6.92-3.6,13.1-9.64,16.54c-11.08,6.3-25.82,12.03-43.82,17.05
							c-41.8,11.65-96.82,18.22-154.91,18.51C761.47,1328.95,760.13,1328.95,758.81,1328.95z M758.97,1234.17
							c-1.31,0-2.63,0-3.95,0.01c-57.29,0.28-111.42,6.73-152.43,18.16c-17.26,4.81-31.28,10.25-41.7,16.17
							c-3.06,1.74-4.89,4.88-4.9,8.41c0,3.43,1.76,6.49,4.72,8.18c10.69,6.11,25.24,11.7,43.23,16.63
							c42.85,11.73,99.35,18.13,158.8,17.78c57.28-0.28,111.42-6.73,152.43-18.16c17.26-4.81,31.28-10.25,41.69-16.16
							c3.05-1.73,4.87-4.85,4.87-8.33c0-3.51-1.84-6.64-4.91-8.39c-10.68-6.06-25.15-11.61-43.01-16.5
							C871.91,1240.49,816.92,1234.17,758.97,1234.17z"/>
					</g>
					<g>
						<path class="st1" d="M1016.3,1259.33v-67.14H869.66c-34.82-4.89-73.91-7.55-115.11-7.35c-38.13,0.19-74.18,2.81-106.48,7.35
							h-146.6v67.35c-0.04,0.78-0.04,1.56,0,2.34c2.39,41.84,119.58,75.19,261.74,74.49
							C905.38,1335.66,1018.69,1301.17,1016.3,1259.33z"/>
						<ellipse class="st2" cx="758.88" cy="1193.46" rx="257.45" ry="75.78"/>
						<path class="st2" d="M758.81,1245.57c-58.78,0-114.66-6.44-157.35-18.13c-18.76-5.14-34.04-11.03-45.42-17.53
							c-5.94-3.4-9.49-9.52-9.48-16.39c0.01-6.96,3.62-13.16,9.67-16.6c11.08-6.3,25.83-12.04,43.83-17.05
							c41.8-11.65,96.81-18.22,154.91-18.5c60.29-0.33,117.68,6.16,161.33,18.12c18.62,5.1,33.82,10.95,45.18,17.4
							c6.07,3.44,9.69,9.65,9.69,16.59c0,6.92-3.6,13.1-9.64,16.54c-11.08,6.3-25.82,12.03-43.82,17.05
							c-41.8,11.65-96.82,18.22-154.91,18.51C761.47,1245.57,760.13,1245.57,758.81,1245.57z M758.97,1150.79
							c-1.31,0-2.63,0-3.95,0.01c-57.29,0.28-111.42,6.73-152.43,18.16c-17.26,4.81-31.28,10.25-41.7,16.17
							c-3.06,1.74-4.89,4.88-4.9,8.41c0,3.43,1.76,6.49,4.72,8.18c10.69,6.11,25.24,11.7,43.23,16.63
							c42.85,11.73,99.35,18.13,158.8,17.78c57.28-0.28,111.42-6.73,152.43-18.16c17.26-4.81,31.28-10.25,41.69-16.16
							c3.05-1.73,4.87-4.85,4.87-8.33c0-3.51-1.84-6.64-4.91-8.39c-10.68-6.06-25.15-11.61-43.01-16.5
							C871.91,1157.11,816.92,1150.79,758.97,1150.79z"/>
					</g>
				</g>
				<g>
					<g>
						<path class="st1" d="M2703.03,1494.56v-67.14h-146.64c-34.82-4.89-73.91-7.55-115.11-7.35c-38.13,0.19-74.18,2.81-106.48,7.35
							h-146.6v67.35c-0.04,0.78-0.04,1.56,0,2.34c2.39,41.84,119.58,75.19,261.74,74.49
							C2592.11,1570.9,2705.42,1536.41,2703.03,1494.56z"/>
						<ellipse class="st2" cx="2445.61" cy="1428.7" rx="257.45" ry="75.78"/>
						<path class="st2" d="M2445.54,1480.81c-58.78,0-114.66-6.44-157.35-18.13c-18.76-5.13-34.04-11.03-45.42-17.53
							c-5.94-3.39-9.49-9.52-9.48-16.38c0.01-6.96,3.62-13.17,9.67-16.6c11.08-6.3,25.83-12.04,43.83-17.05
							c41.8-11.64,96.81-18.22,154.91-18.5c60.26-0.34,117.68,6.16,161.33,18.12c18.62,5.1,33.82,10.95,45.18,17.4
							c6.06,3.44,9.69,9.65,9.69,16.59c0,6.92-3.6,13.11-9.64,16.54c-11.08,6.3-25.82,12.04-43.82,17.05
							c-41.8,11.65-96.82,18.22-154.91,18.51C2448.2,1480.8,2446.86,1480.81,2445.54,1480.81z M2445.7,1386.03
							c-1.31,0-2.63,0-3.95,0.01c-57.29,0.28-111.42,6.73-152.43,18.16c-17.26,4.81-31.28,10.25-41.7,16.17
							c-3.06,1.74-4.89,4.89-4.9,8.41c0,3.43,1.76,6.49,4.72,8.18c10.69,6.11,25.24,11.7,43.23,16.63
							c42.85,11.73,99.35,18.14,158.8,17.78c57.29-0.28,111.42-6.73,152.43-18.16c17.25-4.81,31.28-10.25,41.69-16.16
							c3.05-1.73,4.87-4.85,4.87-8.33c0-3.51-1.84-6.64-4.91-8.39c-10.68-6.06-25.15-11.61-43.01-16.5
							C2558.64,1392.34,2503.65,1386.03,2445.7,1386.03z"/>
					</g>
					<g>
						<path class="st1" d="M2703.03,1412.12v-67.14h-146.64c-34.82-4.89-73.91-7.55-115.11-7.35c-38.13,0.19-74.18,2.81-106.48,7.35
							h-146.6v67.35c-0.04,0.78-0.04,1.56,0,2.34c2.39,41.84,119.58,75.19,261.74,74.49
							C2592.11,1488.45,2705.42,1453.96,2703.03,1412.12z"/>
						<ellipse class="st2" cx="2445.61" cy="1346.25" rx="257.45" ry="75.78"/>
						<path class="st2" d="M2445.54,1398.36c-58.78,0-114.66-6.44-157.35-18.13c-18.76-5.13-34.04-11.03-45.42-17.53
							c-5.94-3.4-9.49-9.52-9.48-16.39c0.01-6.96,3.62-13.16,9.67-16.6c11.08-6.3,25.83-12.04,43.83-17.05
							c41.8-11.65,96.82-18.22,154.91-18.5c60.29-0.32,117.68,6.16,161.33,18.12c18.62,5.1,33.82,10.95,45.18,17.4
							c6.06,3.44,9.69,9.65,9.69,16.59c0,6.92-3.6,13.11-9.64,16.54c-11.08,6.3-25.82,12.04-43.82,17.05
							c-41.8,11.65-96.82,18.22-154.91,18.51C2448.2,1398.36,2446.86,1398.36,2445.54,1398.36z M2445.7,1303.58
							c-1.31,0-2.63,0-3.95,0.01c-57.28,0.28-111.41,6.73-152.43,18.16c-17.26,4.81-31.28,10.25-41.7,16.17
							c-3.06,1.74-4.89,4.88-4.9,8.41c0,3.43,1.76,6.49,4.72,8.18c10.69,6.11,25.24,11.7,43.23,16.63
							c42.85,11.73,99.35,18.13,158.8,17.78c57.29-0.28,111.42-6.73,152.43-18.16c17.25-4.81,31.28-10.25,41.69-16.16
							c3.05-1.73,4.87-4.85,4.87-8.33c0-3.51-1.84-6.64-4.91-8.39c-10.68-6.06-25.15-11.61-43.01-16.5
							C2558.64,1309.9,2503.65,1303.58,2445.7,1303.58z"/>
					</g>
				</g>
				<g>
					<g>
						<g>
							<path class="st1" d="M1859.67,1467.36v-67.14h-146.64c-34.82-4.89-73.91-7.55-115.11-7.35
								c-38.13,0.19-74.18,2.81-106.48,7.35h-146.61v67.35c-0.04,0.78-0.04,1.56,0,2.34c2.39,41.84,119.58,75.19,261.74,74.49
								C1748.74,1543.69,1862.06,1509.2,1859.67,1467.36z"/>
							<ellipse class="st2" cx="1602.25" cy="1401.49" rx="257.45" ry="75.78"/>
							<path class="st2" d="M1602.17,1453.6c-58.78,0-114.66-6.44-157.35-18.13c-18.76-5.13-34.04-11.03-45.42-17.53
								c-5.94-3.39-9.49-9.52-9.48-16.38c0.01-6.96,3.62-13.17,9.67-16.6c11.08-6.3,25.83-12.04,43.83-17.05
								c41.8-11.64,96.81-18.22,154.91-18.5c60.26-0.34,117.68,6.16,161.33,18.12c18.62,5.1,33.82,10.95,45.18,17.4
								c6.06,3.44,9.69,9.65,9.69,16.59c0,6.92-3.6,13.11-9.64,16.54c-11.08,6.3-25.82,12.04-43.82,17.05
								c-41.8,11.65-96.82,18.22-154.91,18.51C1604.84,1453.6,1603.5,1453.6,1602.17,1453.6z M1602.33,1358.82
								c-1.31,0-2.63,0-3.95,0.01c-57.29,0.28-111.42,6.73-152.43,18.16c-17.26,4.81-31.28,10.25-41.7,16.17
								c-3.06,1.74-4.89,4.89-4.9,8.41c0,3.43,1.76,6.49,4.72,8.18c10.69,6.11,25.24,11.7,43.23,16.63
								c42.85,11.73,99.35,18.14,158.8,17.78c57.28-0.28,111.42-6.73,152.43-18.16c17.25-4.81,31.28-10.25,41.69-16.16
								c3.05-1.73,4.87-4.85,4.87-8.33c0-3.51-1.84-6.64-4.91-8.39c-10.68-6.06-25.15-11.61-43.01-16.5
								C1715.28,1365.14,1660.29,1358.82,1602.33,1358.82z"/>
						</g>
						<g>
							<path class="st1" d="M1859.67,1384.91v-67.14h-146.64c-34.82-4.89-73.91-7.55-115.11-7.35
								c-38.13,0.19-74.18,2.81-106.48,7.35h-146.61v67.35c-0.04,0.78-0.04,1.56,0,2.34c2.39,41.84,119.58,75.19,261.74,74.49
								C1748.74,1461.25,1862.06,1426.76,1859.67,1384.91z"/>
							<ellipse class="st2" cx="1602.25" cy="1319.05" rx="257.45" ry="75.78"/>
							<path class="st2" d="M1602.17,1371.16c-58.78,0-114.66-6.44-157.35-18.13c-18.76-5.13-34.04-11.03-45.42-17.53
								c-5.94-3.4-9.49-9.52-9.48-16.39c0.01-6.96,3.62-13.16,9.67-16.6c11.08-6.3,25.83-12.04,43.83-17.05
								c41.8-11.65,96.82-18.22,154.91-18.5c60.29-0.32,117.68,6.16,161.33,18.12c18.62,5.1,33.82,10.95,45.18,17.4
								c6.06,3.44,9.69,9.64,9.69,16.59c0,6.92-3.6,13.11-9.64,16.54c-11.08,6.3-25.82,12.04-43.82,17.05
								c-41.8,11.65-96.82,18.22-154.91,18.51C1604.84,1371.15,1603.5,1371.16,1602.17,1371.16z M1602.33,1276.37
								c-1.31,0-2.63,0-3.95,0.01c-57.28,0.28-111.41,6.73-152.43,18.16c-17.26,4.81-31.28,10.25-41.7,16.17
								c-3.06,1.74-4.89,4.88-4.9,8.41c0,3.43,1.76,6.49,4.72,8.18c10.69,6.11,25.24,11.7,43.23,16.63
								c42.85,11.73,99.35,18.13,158.8,17.78c57.28-0.28,111.42-6.73,152.43-18.16c17.25-4.81,31.28-10.25,41.69-16.16
								c3.05-1.73,4.87-4.85,4.87-8.33c0-3.51-1.84-6.64-4.91-8.39c-10.68-6.06-25.15-11.61-43.01-16.5
								C1715.27,1282.69,1660.28,1276.37,1602.33,1276.37z"/>
						</g>
						<g>
							<path class="st1" d="M1859.67,1302.47v-67.14h-146.64c-34.82-4.89-73.91-7.55-115.11-7.35
								c-38.13,0.19-74.18,2.81-106.48,7.35h-146.61v67.35c-0.04,0.78-0.04,1.56,0,2.34c2.39,41.84,119.58,75.19,261.74,74.49
								C1748.74,1378.8,1862.06,1344.31,1859.67,1302.47z"/>
							<ellipse class="st2" cx="1602.25" cy="1236.6" rx="257.45" ry="75.78"/>
							<path class="st2" d="M1602.17,1288.71c-58.78,0-114.66-6.44-157.35-18.13c-18.76-5.13-34.04-11.03-45.42-17.53
								c-5.94-3.4-9.49-9.52-9.48-16.39c0.01-6.96,3.62-13.16,9.67-16.6c11.08-6.3,25.83-12.04,43.83-17.05
								c41.8-11.65,96.81-18.22,154.91-18.5c60.29-0.33,117.68,6.16,161.33,18.12c18.62,5.1,33.82,10.95,45.18,17.4
								c6.07,3.44,9.69,9.65,9.69,16.59c0,6.92-3.6,13.1-9.64,16.54c-11.08,6.3-25.82,12.03-43.82,17.05
								c-41.8,11.65-96.82,18.22-154.91,18.51C1604.84,1288.7,1603.5,1288.71,1602.17,1288.71z M1602.33,1193.93
								c-1.31,0-2.63,0-3.95,0.01c-57.29,0.28-111.42,6.73-152.43,18.16c-17.26,4.81-31.28,10.25-41.7,16.17
								c-3.06,1.74-4.89,4.88-4.9,8.41c0,3.43,1.76,6.49,4.72,8.18c10.69,6.11,25.24,11.7,43.23,16.63
								c42.85,11.73,99.35,18.13,158.8,17.78c57.28-0.28,111.42-6.73,152.43-18.16c17.26-4.81,31.28-10.25,41.69-16.16
								c3.05-1.73,4.87-4.85,4.87-8.33c0-3.51-1.84-6.64-4.91-8.39c-10.68-6.06-25.15-11.61-43.01-16.5
								C1715.27,1200.25,1660.28,1193.93,1602.33,1193.93z"/>
						</g>
						<g>
							<path class="st1" d="M1859.67,1220.02v-67.14h-146.64c-34.82-4.89-73.91-7.55-115.11-7.35
								c-38.13,0.19-74.18,2.81-106.48,7.35h-146.61v67.35c-0.04,0.78-0.04,1.56,0,2.34c2.39,41.84,119.58,75.19,261.74,74.49
								C1748.74,1296.35,1862.06,1261.86,1859.67,1220.02z"/>
							<ellipse class="st2" cx="1602.25" cy="1154.15" rx="257.45" ry="75.78"/>
							<path class="st2" d="M1602.17,1206.26c-58.78,0-114.66-6.44-157.35-18.13c-18.76-5.13-34.04-11.03-45.42-17.53
								c-5.94-3.4-9.49-9.52-9.48-16.39c0.01-6.96,3.62-13.16,9.67-16.6c11.08-6.3,25.83-12.04,43.83-17.05
								c41.8-11.65,96.81-18.22,154.91-18.5c60.29-0.27,117.68,6.16,161.33,18.12c18.62,5.1,33.82,10.95,45.18,17.39
								c6.07,3.44,9.69,9.65,9.69,16.59c0,6.92-3.6,13.1-9.64,16.54c-11.08,6.3-25.82,12.03-43.82,17.05
								c-41.8,11.65-96.82,18.22-154.91,18.51C1604.84,1206.26,1603.5,1206.26,1602.17,1206.26z M1602.33,1111.48
								c-1.31,0-2.63,0-3.95,0.01c-57.29,0.28-111.42,6.73-152.43,18.16c-17.26,4.81-31.28,10.25-41.7,16.17
								c-3.06,1.74-4.89,4.88-4.9,8.41c0,3.43,1.76,6.49,4.72,8.18c10.69,6.11,25.24,11.7,43.23,16.63
								c42.85,11.73,99.35,18.12,158.8,17.78c57.28-0.28,111.42-6.73,152.43-18.16c17.26-4.81,31.28-10.25,41.69-16.16
								c3.05-1.73,4.87-4.85,4.87-8.33c0-3.51-1.84-6.64-4.91-8.39c-10.68-6.06-25.15-11.61-43.01-16.5
								C1715.27,1117.8,1660.28,1111.48,1602.33,1111.48z"/>
						</g>
						<g>
							<path class="st1" d="M1859.67,1135.82v-67.14h-146.64c-34.82-4.89-73.91-7.55-115.11-7.35
								c-38.13,0.19-74.18,2.81-106.48,7.35h-146.61v67.35c-0.04,0.78-0.04,1.56,0,2.34c2.39,41.84,119.58,75.19,261.74,74.49
								C1748.74,1212.15,1862.06,1177.66,1859.67,1135.82z"/>
							<ellipse class="st2" cx="1602.25" cy="1069.95" rx="257.45" ry="75.78"/>
							<path class="st2" d="M1602.17,1122.06c-58.78,0-114.66-6.44-157.35-18.13c-18.76-5.13-34.04-11.03-45.42-17.53
								c-5.94-3.39-9.49-9.52-9.48-16.39c0.01-6.96,3.62-13.16,9.67-16.6c11.08-6.3,25.83-12.04,43.83-17.05
								c41.8-11.65,96.82-18.22,154.91-18.5c60.29-0.28,117.68,6.16,161.33,18.12c18.62,5.1,33.82,10.95,45.18,17.4
								c6.06,3.44,9.69,9.64,9.69,16.59c0,6.92-3.6,13.11-9.64,16.54c-11.08,6.3-25.82,12.04-43.82,17.05
								c-41.8,11.65-96.82,18.22-154.91,18.51C1604.84,1122.06,1603.5,1122.06,1602.17,1122.06z M1602.33,1027.28
								c-1.31,0-2.63,0-3.95,0.01c-57.28,0.28-111.41,6.73-152.43,18.16c-17.26,4.81-31.28,10.25-41.7,16.17
								c-3.06,1.74-4.89,4.88-4.9,8.41c0,3.43,1.76,6.49,4.72,8.18c10.69,6.11,25.24,11.7,43.23,16.63
								c42.85,11.73,99.35,18.11,158.8,17.78c57.28-0.28,111.42-6.73,152.43-18.16c17.25-4.81,31.28-10.25,41.69-16.16
								c3.05-1.73,4.87-4.85,4.87-8.33c0-3.51-1.84-6.64-4.91-8.39c-10.68-6.06-25.15-11.61-43.01-16.5
								C1715.27,1033.6,1660.28,1027.28,1602.33,1027.28z"/>
						</g>
						<g>
							<path class="st1" d="M1859.67,1053.37v-67.14h-146.64c-34.82-4.89-73.91-7.55-115.11-7.35
								c-38.13,0.19-74.18,2.81-106.48,7.35h-146.61v67.35c-0.04,0.78-0.04,1.56,0,2.34c2.39,41.84,119.58,75.19,261.74,74.49
								C1748.74,1129.71,1862.06,1095.21,1859.67,1053.37z"/>
							<ellipse class="st2" cx="1602.25" cy="987.5" rx="257.45" ry="75.78"/>
							<path class="st2" d="M1602.17,1039.61c-58.78,0-114.66-6.44-157.35-18.13c-18.76-5.13-34.04-11.03-45.42-17.53
								c-5.94-3.39-9.49-9.52-9.48-16.39c0.01-6.96,3.62-13.16,9.67-16.6c11.08-6.3,25.83-12.04,43.83-17.05
								c41.8-11.65,96.81-18.22,154.91-18.5c60.29-0.3,117.68,6.16,161.33,18.12c18.62,5.1,33.82,10.95,45.18,17.4
								c6.06,3.44,9.69,9.64,9.69,16.59c0,6.92-3.6,13.11-9.64,16.54c-11.08,6.3-25.82,12.04-43.82,17.05
								c-41.8,11.65-96.82,18.22-154.91,18.51C1604.84,1039.61,1603.5,1039.61,1602.17,1039.61z M1602.33,944.83
								c-1.31,0-2.63,0-3.95,0.01c-57.29,0.28-111.42,6.73-152.43,18.16c-17.26,4.81-31.28,10.25-41.7,16.17
								c-3.06,1.74-4.89,4.88-4.9,8.41c0,3.43,1.76,6.49,4.72,8.18c10.69,6.11,25.24,11.7,43.23,16.63
								c42.85,11.73,99.35,18.11,158.8,17.78c57.28-0.28,111.42-6.73,152.43-18.16c17.25-4.81,31.28-10.25,41.69-16.16
								c3.05-1.73,4.87-4.85,4.87-8.33c0-3.51-1.84-6.64-4.91-8.39c-10.68-6.06-25.15-11.61-43.01-16.5
								C1715.27,951.15,1660.28,944.83,1602.33,944.83z"/>
						</g>
					</g>
					<g>
						<g>
							<path class="st1" d="M1859.67,961.19v-67.14h-146.64c-34.82-4.89-73.91-7.55-115.11-7.35c-38.13,0.19-74.18,2.81-106.48,7.35
								h-146.61v67.35c-0.04,0.78-0.04,1.56,0,2.34c2.39,41.84,119.58,75.19,261.74,74.49S1862.06,1003.03,1859.67,961.19z"/>
							<ellipse class="st2" cx="1602.25" cy="895.32" rx="257.45" ry="75.78"/>
							<path class="st2" d="M1602.17,947.43c-58.78,0-114.66-6.44-157.35-18.13c-18.76-5.13-34.04-11.03-45.42-17.53
								c-5.94-3.39-9.49-9.52-9.48-16.38c0.01-6.96,3.62-13.17,9.67-16.6c11.08-6.3,25.83-12.04,43.83-17.05
								c41.8-11.64,96.81-18.22,154.91-18.5c60.26-0.34,117.68,6.16,161.33,18.12c18.62,5.1,33.82,10.95,45.18,17.4
								c6.06,3.44,9.69,9.64,9.69,16.59c0,6.92-3.6,13.11-9.64,16.54c-11.08,6.3-25.82,12.04-43.82,17.05
								c-41.8,11.65-96.82,18.22-154.91,18.51C1604.84,947.43,1603.5,947.43,1602.17,947.43z M1602.33,852.65
								c-1.31,0-2.63,0-3.95,0.01c-57.29,0.28-111.42,6.73-152.43,18.16c-17.26,4.81-31.28,10.25-41.7,16.17
								c-3.06,1.74-4.89,4.89-4.9,8.41c0,3.43,1.76,6.49,4.72,8.18c10.69,6.11,25.24,11.7,43.23,16.63
								c42.85,11.73,99.35,18.14,158.8,17.78c57.28-0.28,111.42-6.73,152.43-18.16c17.25-4.81,31.28-10.25,41.69-16.16
								c3.05-1.73,4.87-4.85,4.87-8.33c0-3.51-1.84-6.64-4.91-8.39c-10.68-6.06-25.15-11.61-43.01-16.5
								C1715.28,858.97,1660.29,852.65,1602.33,852.65z"/>
						</g>
						<g>
							<path class="st1" d="M1859.67,878.74V811.6h-146.64c-34.82-4.89-73.91-7.55-115.11-7.35c-38.13,0.19-74.18,2.81-106.48,7.35
								h-146.61v67.35c-0.04,0.78-0.04,1.56,0,2.34c2.39,41.84,119.58,75.19,261.74,74.49
								C1748.74,955.08,1862.06,920.58,1859.67,878.74z"/>
							<ellipse class="st2" cx="1602.25" cy="812.87" rx="257.45" ry="75.78"/>
							<path class="st2" d="M1602.17,864.98c-58.78,0-114.66-6.44-157.35-18.13c-18.76-5.13-34.04-11.03-45.42-17.53
								c-5.94-3.39-9.49-9.52-9.48-16.39c0.01-6.96,3.62-13.16,9.67-16.6c11.08-6.3,25.83-12.04,43.83-17.05
								c41.8-11.65,96.82-18.22,154.91-18.5c60.29-0.32,117.68,6.16,161.33,18.12c18.62,5.1,33.82,10.95,45.18,17.4
								c6.06,3.44,9.69,9.64,9.69,16.59c0,6.92-3.6,13.11-9.64,16.54c-11.08,6.3-25.82,12.04-43.82,17.05
								c-41.8,11.65-96.82,18.22-154.91,18.51C1604.84,864.98,1603.5,864.98,1602.17,864.98z M1602.33,770.2
								c-1.31,0-2.63,0-3.95,0.01c-57.28,0.28-111.41,6.73-152.43,18.16c-17.26,4.81-31.28,10.25-41.7,16.17
								c-3.06,1.74-4.89,4.88-4.9,8.41c0,3.43,1.76,6.49,4.72,8.18c10.69,6.11,25.24,11.7,43.23,16.63
								c42.85,11.73,99.35,18.13,158.8,17.78c57.28-0.28,111.42-6.73,152.43-18.16c17.25-4.81,31.28-10.25,41.69-16.16
								c3.05-1.73,4.87-4.85,4.87-8.33c0-3.51-1.84-6.64-4.91-8.39c-10.68-6.06-25.15-11.61-43.01-16.5
								C1715.27,776.52,1660.28,770.2,1602.33,770.2z"/>
						</g>
						<g>
							<path class="st1" d="M1859.67,796.29v-67.14h-146.64c-34.82-4.89-73.91-7.55-115.11-7.35c-38.13,0.19-74.18,2.81-106.48,7.35
								h-146.61v67.35c-0.04,0.78-0.04,1.56,0,2.34c2.39,41.84,119.58,75.19,261.74,74.49S1862.06,838.14,1859.67,796.29z"/>
							<ellipse class="st2" cx="1602.25" cy="730.43" rx="257.45" ry="75.78"/>
							<path class="st2" d="M1602.17,782.54c-58.78,0-114.66-6.44-157.35-18.13c-18.76-5.13-34.04-11.03-45.42-17.53
								c-5.94-3.39-9.49-9.52-9.48-16.39c0.01-6.96,3.62-13.16,9.67-16.6c11.08-6.3,25.83-12.04,43.83-17.05
								c41.8-11.65,96.81-18.22,154.91-18.5c60.29-0.33,117.68,6.16,161.33,18.12c18.62,5.1,33.82,10.95,45.18,17.4
								c6.07,3.44,9.69,9.65,9.69,16.59c0,6.92-3.6,13.1-9.64,16.54c-11.08,6.3-25.82,12.03-43.82,17.05
								c-41.8,11.65-96.82,18.22-154.91,18.51C1604.84,782.53,1603.5,782.54,1602.17,782.54z M1602.33,687.75
								c-1.31,0-2.63,0-3.95,0.01c-57.29,0.28-111.42,6.73-152.43,18.16c-17.26,4.81-31.28,10.25-41.7,16.17
								c-3.06,1.74-4.89,4.88-4.9,8.41c0,3.43,1.76,6.49,4.72,8.18c10.69,6.11,25.24,11.7,43.23,16.63
								c42.85,11.73,99.35,18.13,158.8,17.78c57.28-0.28,111.42-6.73,152.43-18.16c17.26-4.81,31.28-10.25,41.69-16.16
								c3.05-1.73,4.87-4.85,4.87-8.33c0-3.51-1.84-6.64-4.91-8.39c-10.68-6.06-25.15-11.61-43.01-16.5
								C1715.27,694.07,1660.28,687.75,1602.33,687.75z"/>
						</g>
						<g>
							<path class="st1" d="M1859.67,713.85v-67.14h-146.64c-34.82-4.89-73.91-7.55-115.11-7.35c-38.13,0.19-74.18,2.81-106.48,7.35
								h-146.61v67.35c-0.04,0.78-0.04,1.56,0,2.34c2.39,41.84,119.58,75.19,261.74,74.49
								C1748.74,790.18,1862.06,755.69,1859.67,713.85z"/>
							<ellipse class="st2" cx="1602.25" cy="647.98" rx="257.45" ry="75.78"/>
							<path class="st2" d="M1602.17,700.09c-58.78,0-114.66-6.44-157.35-18.13c-18.76-5.14-34.04-11.03-45.42-17.53
								c-5.94-3.39-9.49-9.52-9.48-16.39c0.01-6.96,3.62-13.16,9.67-16.6c11.08-6.3,25.83-12.04,43.83-17.05
								c41.8-11.65,96.81-18.22,154.91-18.5c60.29-0.27,117.68,6.16,161.33,18.12c18.62,5.1,33.82,10.95,45.18,17.4
								c6.07,3.44,9.69,9.64,9.69,16.59c0,6.92-3.6,13.1-9.64,16.54c-11.08,6.3-25.82,12.03-43.82,17.05
								c-41.8,11.65-96.82,18.22-154.91,18.51C1604.84,700.09,1603.5,700.09,1602.17,700.09z M1602.33,605.31
								c-1.31,0-2.63,0-3.95,0.01c-57.29,0.28-111.42,6.73-152.43,18.16c-17.26,4.81-31.28,10.25-41.7,16.17
								c-3.06,1.74-4.89,4.88-4.9,8.41c0,3.43,1.76,6.49,4.72,8.18c10.69,6.11,25.24,11.7,43.23,16.63
								c42.85,11.73,99.35,18.12,158.8,17.78c57.28-0.28,111.42-6.73,152.43-18.16c17.26-4.81,31.28-10.25,41.69-16.16
								c3.05-1.73,4.87-4.85,4.87-8.33c0-3.51-1.84-6.64-4.91-8.39c-10.68-6.06-25.15-11.61-43.01-16.5
								C1715.27,611.63,1660.28,605.31,1602.33,605.31z"/>
						</g>
						<g>
							<path class="st1" d="M1859.67,629.65V562.5h-146.64c-34.82-4.89-73.91-7.55-115.11-7.35c-38.13,0.19-74.18,2.81-106.48,7.35
								h-146.61v67.35c-0.04,0.78-0.04,1.56,0,2.34c2.39,41.84,119.58,75.19,261.74,74.49
								C1748.74,705.98,1862.06,671.49,1859.67,629.65z"/>
							<ellipse class="st2" cx="1602.25" cy="563.78" rx="257.45" ry="75.78"/>
							<path class="st2" d="M1602.17,615.89c-58.78,0-114.66-6.44-157.35-18.13c-18.76-5.13-34.04-11.03-45.42-17.53
								c-5.94-3.4-9.49-9.52-9.48-16.39c0.01-6.96,3.62-13.16,9.67-16.6c11.08-6.3,25.83-12.04,43.83-17.05
								c41.8-11.65,96.82-18.22,154.91-18.5c60.29-0.28,117.68,6.16,161.33,18.12c18.62,5.1,33.82,10.95,45.18,17.4
								c6.06,3.44,9.69,9.64,9.69,16.59c0,6.92-3.6,13.11-9.64,16.54c-11.08,6.3-25.82,12.04-43.82,17.05
								c-41.8,11.65-96.82,18.22-154.91,18.51C1604.84,615.88,1603.5,615.89,1602.17,615.89z M1602.33,521.11
								c-1.31,0-2.63,0-3.95,0.01c-57.28,0.28-111.41,6.73-152.43,18.16c-17.26,4.81-31.28,10.25-41.7,16.17
								c-3.06,1.74-4.89,4.88-4.9,8.41c0,3.43,1.76,6.49,4.72,8.18c10.69,6.11,25.24,11.7,43.23,16.63
								c42.85,11.73,99.35,18.11,158.8,17.78c57.28-0.28,111.42-6.73,152.43-18.16c17.25-4.81,31.28-10.25,41.69-16.16
								c3.05-1.73,4.87-4.85,4.87-8.33c0-3.51-1.84-6.64-4.91-8.39c-10.68-6.06-25.15-11.61-43.01-16.5
								C1715.27,527.43,1660.28,521.11,1602.33,521.11z"/>
						</g>
						<g>
							<path class="st1" d="M1859.67,547.2v-67.14h-146.64c-34.82-4.89-73.91-7.55-115.11-7.35c-38.13,0.19-74.18,2.81-106.48,7.35
								h-146.61v67.35c-0.04,0.78-0.04,1.56,0,2.34c2.39,41.84,119.58,75.19,261.74,74.49
								C1748.74,623.53,1862.06,589.04,1859.67,547.2z"/>
							<ellipse class="st2" cx="1602.25" cy="481.33" rx="257.45" ry="75.78"/>
							<path class="st2" d="M1602.17,533.44c-58.78,0-114.66-6.44-157.35-18.13c-18.76-5.13-34.04-11.03-45.42-17.53
								c-5.94-3.39-9.49-9.52-9.48-16.38c0.01-6.96,3.62-13.16,9.67-16.6c11.08-6.3,25.83-12.04,43.83-17.05
								c41.8-11.65,96.81-18.22,154.91-18.5c60.29-0.3,117.68,6.16,161.33,18.12c18.62,5.1,33.82,10.95,45.18,17.4
								c6.06,3.44,9.69,9.64,9.69,16.59c0,6.92-3.6,13.11-9.64,16.54c-11.08,6.3-25.82,12.04-43.82,17.05
								c-41.8,11.65-96.82,18.22-154.91,18.51C1604.84,533.44,1603.5,533.44,1602.17,533.44z M1602.33,438.66
								c-1.31,0-2.63,0-3.95,0.01c-57.29,0.28-111.42,6.73-152.43,18.16c-17.26,4.81-31.28,10.25-41.7,16.17
								c-3.06,1.74-4.89,4.88-4.9,8.41c0,3.43,1.76,6.49,4.72,8.18c10.69,6.11,25.24,11.7,43.23,16.63
								c42.85,11.73,99.35,18.11,158.8,17.78c57.28-0.28,111.42-6.73,152.43-18.16c17.25-4.81,31.28-10.25,41.69-16.16
								c3.05-1.73,4.87-4.85,4.87-8.33c0-3.51-1.84-6.64-4.91-8.39c-10.68-6.06-25.15-11.61-43.01-16.5
								C1715.27,444.98,1660.28,438.66,1602.33,438.66z"/>
						</g>
					</g>
				</g>
				<g>
					<g>
						<g>
							<path class="st1" d="M2242.73,1584.66v-67.14h-146.64c-34.82-4.89-73.91-7.55-115.11-7.35
								c-38.13,0.19-74.18,2.81-106.48,7.35h-146.61v67.35c-0.04,0.78-0.04,1.56,0,2.34c2.39,41.84,119.58,75.19,261.74,74.49
								C2131.81,1661,2245.12,1626.51,2242.73,1584.66z"/>
							<ellipse class="st2" cx="1985.31" cy="1518.8" rx="257.45" ry="75.78"/>
							<path class="st2" d="M1985.24,1570.91c-58.78,0-114.66-6.44-157.35-18.13c-18.76-5.14-34.04-11.03-45.42-17.53
								c-5.94-3.4-9.49-9.52-9.48-16.38c0.01-6.96,3.62-13.17,9.67-16.6c11.08-6.3,25.83-12.04,43.83-17.05
								c41.8-11.64,96.81-18.22,154.91-18.5c60.26-0.34,117.68,6.16,161.33,18.12c18.62,5.1,33.82,10.95,45.18,17.4
								c6.06,3.44,9.69,9.65,9.69,16.59c0,6.92-3.6,13.11-9.64,16.54c-11.08,6.3-25.82,12.04-43.82,17.05
								c-41.8,11.65-96.82,18.22-154.91,18.51C1987.9,1570.9,1986.56,1570.91,1985.24,1570.91z M1985.39,1476.13
								c-1.31,0-2.63,0-3.95,0.01c-57.29,0.28-111.42,6.73-152.43,18.16c-17.26,4.81-31.28,10.25-41.7,16.17
								c-3.06,1.74-4.89,4.89-4.9,8.41c0,3.43,1.76,6.49,4.72,8.18c10.69,6.11,25.24,11.7,43.23,16.63
								c42.85,11.73,99.35,18.14,158.8,17.78c57.29-0.28,111.42-6.73,152.43-18.16c17.25-4.81,31.28-10.25,41.69-16.16
								c3.05-1.73,4.87-4.85,4.87-8.33c0-3.51-1.84-6.64-4.91-8.39c-10.68-6.06-25.15-11.61-43.01-16.5
								C2098.34,1482.44,2043.35,1476.13,1985.39,1476.13z"/>
						</g>
						<g>
							<path class="st1" d="M2242.73,1502.22v-67.14h-146.64c-34.82-4.89-73.91-7.55-115.11-7.35
								c-38.13,0.19-74.18,2.81-106.48,7.35h-146.61v67.35c-0.04,0.78-0.04,1.56,0,2.34c2.39,41.84,119.58,75.19,261.74,74.49
								C2131.81,1578.55,2245.12,1544.06,2242.73,1502.22z"/>
							<ellipse class="st2" cx="1985.31" cy="1436.35" rx="257.45" ry="75.78"/>
							<path class="st2" d="M1985.24,1488.46c-58.78,0-114.66-6.44-157.35-18.13c-18.76-5.13-34.04-11.03-45.42-17.53
								c-5.94-3.4-9.49-9.52-9.48-16.39c0.01-6.96,3.62-13.16,9.67-16.6c11.08-6.3,25.83-12.04,43.83-17.05
								c41.8-11.65,96.82-18.22,154.91-18.5c60.29-0.32,117.68,6.16,161.33,18.12c18.62,5.1,33.82,10.95,45.18,17.4
								c6.06,3.44,9.69,9.65,9.69,16.59c0,6.92-3.6,13.11-9.64,16.54c-11.08,6.3-25.82,12.04-43.82,17.05
								c-41.8,11.65-96.82,18.22-154.91,18.51C1987.9,1488.46,1986.56,1488.46,1985.24,1488.46z M1985.39,1393.68
								c-1.31,0-2.63,0-3.95,0.01c-57.28,0.28-111.41,6.73-152.43,18.16c-17.26,4.81-31.28,10.25-41.7,16.17
								c-3.06,1.74-4.89,4.88-4.9,8.41c0,3.43,1.76,6.49,4.72,8.18c10.69,6.11,25.24,11.7,43.23,16.63
								c42.85,11.73,99.35,18.13,158.8,17.78c57.29-0.28,111.42-6.73,152.43-18.16c17.25-4.81,31.28-10.25,41.69-16.16
								c3.05-1.73,4.87-4.85,4.87-8.33c0-3.51-1.84-6.64-4.91-8.39c-10.68-6.06-25.15-11.61-43.01-16.5
								C2098.34,1400,2043.34,1393.68,1985.39,1393.68z"/>
						</g>
						<g>
							<path class="st1" d="M2242.73,1419.77v-67.14h-146.64c-34.82-4.89-73.91-7.55-115.11-7.35
								c-38.13,0.19-74.18,2.81-106.48,7.35h-146.61v67.35c-0.04,0.78-0.04,1.56,0,2.34c2.39,41.84,119.58,75.19,261.74,74.49
								C2131.81,1496.11,2245.12,1461.61,2242.73,1419.77z"/>
							<ellipse class="st2" cx="1985.31" cy="1353.9" rx="257.45" ry="75.78"/>
							<path class="st2" d="M1985.24,1406.01c-58.78,0-114.66-6.44-157.35-18.13c-18.76-5.14-34.04-11.03-45.42-17.53
								c-5.94-3.39-9.49-9.52-9.48-16.39c0.01-6.96,3.62-13.16,9.67-16.6c11.08-6.3,25.83-12.04,43.83-17.05
								c41.8-11.65,96.81-18.22,154.91-18.5c60.29-0.33,117.68,6.16,161.33,18.12c18.62,5.1,33.82,10.95,45.18,17.4
								c6.07,3.44,9.69,9.65,9.69,16.59c0,6.92-3.6,13.1-9.64,16.54c-11.08,6.3-25.82,12.03-43.82,17.05
								c-41.8,11.65-96.82,18.22-154.91,18.51C1987.9,1406.01,1986.56,1406.01,1985.24,1406.01z M1985.39,1311.23
								c-1.31,0-2.63,0-3.95,0.01c-57.29,0.28-111.42,6.73-152.43,18.16c-17.26,4.81-31.28,10.25-41.7,16.17
								c-3.06,1.74-4.89,4.88-4.9,8.41c0,3.43,1.76,6.49,4.72,8.18c10.69,6.11,25.24,11.7,43.23,16.63
								c42.85,11.74,99.35,18.13,158.8,17.78c57.29-0.28,111.42-6.73,152.43-18.16c17.26-4.81,31.28-10.25,41.69-16.16
								c3.05-1.73,4.87-4.85,4.87-8.33c0-3.51-1.84-6.64-4.91-8.39c-10.68-6.06-25.15-11.61-43.01-16.5
								C2098.34,1317.55,2043.34,1311.23,1985.39,1311.23z"/>
						</g>
						<g>
							<path class="st1" d="M2242.73,1337.32v-67.14h-146.64c-34.82-4.89-73.91-7.55-115.11-7.35
								c-38.13,0.19-74.18,2.81-106.48,7.35h-146.61v67.35c-0.04,0.78-0.04,1.56,0,2.34c2.39,41.84,119.58,75.19,261.74,74.49
								S2245.12,1379.17,2242.73,1337.32z"/>
							<ellipse class="st2" cx="1985.31" cy="1271.46" rx="257.45" ry="75.78"/>
							<path class="st2" d="M1985.24,1323.57c-58.78,0-114.66-6.44-157.35-18.13c-18.76-5.14-34.04-11.03-45.42-17.53
								c-5.94-3.39-9.49-9.52-9.48-16.39c0.01-6.96,3.62-13.16,9.67-16.6c11.08-6.3,25.83-12.04,43.83-17.05
								c41.8-11.65,96.81-18.22,154.91-18.5c60.29-0.27,117.68,6.16,161.33,18.12c18.62,5.1,33.82,10.95,45.18,17.39
								c6.07,3.44,9.69,9.65,9.69,16.59c0,6.92-3.6,13.1-9.64,16.54c-11.08,6.3-25.82,12.03-43.82,17.05
								c-41.8,11.65-96.82,18.22-154.91,18.51C1987.9,1323.56,1986.56,1323.57,1985.24,1323.57z M1985.39,1228.78
								c-1.31,0-2.63,0-3.95,0.01c-57.29,0.28-111.42,6.73-152.43,18.16c-17.26,4.81-31.28,10.25-41.7,16.17
								c-3.06,1.74-4.89,4.88-4.9,8.41c0,3.43,1.76,6.49,4.72,8.18c10.69,6.11,25.24,11.7,43.23,16.63
								c42.85,11.73,99.35,18.12,158.8,17.78c57.29-0.28,111.42-6.73,152.43-18.16c17.26-4.81,31.28-10.25,41.69-16.16
								c3.05-1.73,4.87-4.85,4.87-8.33c0-3.51-1.84-6.64-4.91-8.39c-10.68-6.06-25.15-11.61-43.01-16.5
								C2098.34,1235.1,2043.34,1228.78,1985.39,1228.78z"/>
						</g>
						<g>
							<path class="st1" d="M2242.73,1253.12v-67.14h-146.64c-34.82-4.89-73.91-7.55-115.11-7.35
								c-38.13,0.19-74.18,2.81-106.48,7.35h-146.61v67.35c-0.04,0.78-0.04,1.56,0,2.34c2.39,41.84,119.58,75.19,261.74,74.49
								S2245.12,1294.97,2242.73,1253.12z"/>
							<ellipse class="st2" cx="1985.31" cy="1187.25" rx="257.45" ry="75.78"/>
							<path class="st2" d="M1985.24,1239.36c-58.78,0-114.66-6.44-157.35-18.13c-18.76-5.13-34.04-11.03-45.42-17.53
								c-5.94-3.39-9.49-9.52-9.48-16.39c0.01-6.96,3.62-13.16,9.67-16.6c11.08-6.3,25.83-12.04,43.83-17.05
								c41.8-11.65,96.82-18.22,154.91-18.5c60.29-0.28,117.68,6.16,161.33,18.12c18.62,5.1,33.82,10.95,45.18,17.4
								c6.06,3.44,9.69,9.64,9.69,16.59c0,6.92-3.6,13.11-9.64,16.54c-11.08,6.3-25.82,12.04-43.82,17.05
								c-41.8,11.65-96.82,18.22-154.91,18.51C1987.9,1239.36,1986.56,1239.36,1985.24,1239.36z M1985.39,1144.58
								c-1.31,0-2.63,0-3.95,0.01c-57.28,0.28-111.41,6.73-152.43,18.16c-17.26,4.81-31.28,10.25-41.7,16.17
								c-3.06,1.74-4.89,4.88-4.9,8.41c0,3.43,1.76,6.49,4.72,8.18c10.69,6.11,25.24,11.7,43.23,16.63
								c42.85,11.73,99.35,18.11,158.8,17.78c57.29-0.28,111.42-6.73,152.43-18.16c17.25-4.81,31.28-10.25,41.69-16.16
								c3.05-1.73,4.87-4.85,4.87-8.33c0-3.51-1.84-6.64-4.91-8.39c-10.68-6.06-25.15-11.61-43.01-16.5
								C2098.34,1150.9,2043.34,1144.58,1985.39,1144.58z"/>
						</g>
						<g>
							<path class="st1" d="M2242.73,1170.67v-67.14h-146.64c-34.82-4.89-73.91-7.55-115.11-7.35
								c-38.13,0.19-74.18,2.81-106.48,7.35h-146.61v67.35c-0.04,0.78-0.04,1.56,0,2.34c2.39,41.84,119.58,75.19,261.74,74.49
								C2131.81,1247.01,2245.12,1212.52,2242.73,1170.67z"/>
							<ellipse class="st2" cx="1985.31" cy="1104.81" rx="257.45" ry="75.78"/>
							<path class="st2" d="M1985.24,1156.92c-58.78,0-114.66-6.44-157.35-18.13c-18.76-5.13-34.04-11.03-45.42-17.53
								c-5.94-3.39-9.49-9.52-9.48-16.39c0.01-6.96,3.62-13.16,9.67-16.6c11.08-6.3,25.83-12.04,43.83-17.05
								c41.8-11.65,96.81-18.22,154.91-18.5c60.29-0.3,117.68,6.16,161.33,18.12c18.62,5.1,33.82,10.95,45.18,17.4
								c6.06,3.44,9.69,9.64,9.69,16.59c0,6.92-3.6,13.11-9.64,16.54c-11.08,6.3-25.82,12.04-43.82,17.05
								c-41.8,11.65-96.82,18.22-154.91,18.51C1987.9,1156.91,1986.56,1156.92,1985.24,1156.92z M1985.39,1062.13
								c-1.31,0-2.63,0-3.95,0.01c-57.29,0.28-111.42,6.73-152.43,18.16c-17.26,4.81-31.28,10.25-41.7,16.17
								c-3.06,1.74-4.89,4.88-4.9,8.41c0,3.43,1.76,6.49,4.72,8.18c10.69,6.11,25.24,11.7,43.23,16.63
								c42.85,11.73,99.35,18.11,158.8,17.78c57.29-0.28,111.42-6.73,152.43-18.16c17.25-4.81,31.28-10.25,41.69-16.16
								c3.05-1.73,4.87-4.85,4.87-8.33c0-3.51-1.84-6.64-4.91-8.39c-10.68-6.06-25.15-11.61-43.01-16.5
								C2098.34,1068.45,2043.34,1062.13,1985.39,1062.13z"/>
						</g>
						<g>
							<path class="st1" d="M2242.73,1086.61v-67.14h-146.64c-34.82-4.89-73.91-7.55-115.11-7.35
								c-38.13,0.19-74.18,2.81-106.48,7.35h-146.61v67.35c-0.04,0.78-0.04,1.56,0,2.34c2.39,41.84,119.58,75.19,261.74,74.49
								C2131.81,1162.94,2245.12,1128.45,2242.73,1086.61z"/>
							<ellipse class="st2" cx="1985.31" cy="1020.74" rx="257.45" ry="75.78"/>
							<path class="st2" d="M1985.24,1072.85c-58.78,0-114.66-6.44-157.35-18.13c-18.76-5.13-34.04-11.03-45.42-17.53
								c-5.94-3.39-9.49-9.52-9.48-16.39c0.01-6.96,3.62-13.16,9.67-16.6c11.08-6.3,25.83-12.04,43.83-17.05
								c41.8-11.65,96.81-18.22,154.91-18.5c60.29-0.3,117.68,6.16,161.33,18.12c18.62,5.1,33.82,10.95,45.18,17.4
								c6.06,3.44,9.69,9.64,9.69,16.59c0,6.92-3.6,13.11-9.64,16.54c-11.08,6.3-25.82,12.04-43.82,17.05
								c-41.8,11.65-96.82,18.22-154.91,18.51C1987.9,1072.85,1986.56,1072.85,1985.24,1072.85z M1985.39,978.07
								c-1.31,0-2.63,0-3.95,0.01c-57.29,0.28-111.42,6.73-152.43,18.16c-17.26,4.81-31.28,10.25-41.7,16.17
								c-3.06,1.74-4.89,4.88-4.9,8.41c0,3.43,1.76,6.49,4.72,8.18c10.69,6.11,25.24,11.7,43.23,16.63
								c42.85,11.73,99.35,18.11,158.8,17.78c57.29-0.28,111.42-6.73,152.43-18.16c17.25-4.81,31.28-10.25,41.69-16.16
								c3.05-1.73,4.87-4.85,4.87-8.33c0-3.51-1.84-6.64-4.91-8.39c-10.68-6.06-25.15-11.61-43.01-16.5
								C2098.34,984.39,2043.34,978.07,1985.39,978.07z"/>
						</g>
					</g>
				</g>
				<g>
					<g>
						<g>
							<path class="st1" d="M1468,1546.47v-67.14h-146.64c-34.82-4.89-73.91-7.55-115.11-7.35c-38.13,0.19-74.18,2.81-106.48,7.35
								h-146.6v67.35c-0.04,0.78-0.04,1.56,0,2.34c2.39,41.84,119.58,75.19,261.74,74.49
								C1357.08,1622.8,1470.39,1588.31,1468,1546.47z"/>
							<ellipse class="st2" cx="1210.58" cy="1480.6" rx="257.45" ry="75.78"/>
							<path class="st2" d="M1210.51,1532.71c-58.78,0-114.66-6.44-157.35-18.13c-18.76-5.14-34.04-11.03-45.42-17.53
								c-5.94-3.4-9.49-9.52-9.48-16.38c0.01-6.96,3.62-13.17,9.67-16.6c11.08-6.3,25.83-12.04,43.83-17.05
								c41.8-11.64,96.81-18.22,154.91-18.5c60.26-0.34,117.68,6.16,161.33,18.12c18.62,5.1,33.82,10.95,45.18,17.4
								c6.06,3.44,9.69,9.64,9.69,16.59c0,6.92-3.6,13.11-9.64,16.54c-11.08,6.3-25.82,12.04-43.82,17.05
								c-41.8,11.65-96.82,18.22-154.91,18.51C1213.17,1532.71,1211.83,1532.71,1210.51,1532.71z M1210.67,1437.93
								c-1.31,0-2.63,0-3.95,0.01c-57.29,0.28-111.42,6.73-152.43,18.16c-17.26,4.81-31.28,10.25-41.7,16.17
								c-3.06,1.74-4.89,4.89-4.9,8.41c0,3.43,1.76,6.49,4.72,8.18c10.69,6.11,25.24,11.7,43.23,16.63
								c42.85,11.73,99.35,18.14,158.8,17.78c57.28-0.28,111.42-6.73,152.43-18.16c17.25-4.81,31.28-10.25,41.69-16.16
								c3.05-1.73,4.87-4.85,4.87-8.33c0-3.51-1.84-6.64-4.91-8.39c-10.68-6.06-25.15-11.61-43.01-16.5
								C1323.61,1444.25,1268.62,1437.93,1210.67,1437.93z"/>
						</g>
						<g>
							<path class="st1" d="M1468,1464.02v-67.14h-146.64c-34.82-4.89-73.91-7.55-115.11-7.35c-38.13,0.19-74.18,2.81-106.48,7.35
								h-146.6v67.35c-0.04,0.78-0.04,1.56,0,2.34c2.39,41.84,119.58,75.19,261.74,74.49
								C1357.08,1540.36,1470.39,1505.87,1468,1464.02z"/>
							<ellipse class="st2" cx="1210.58" cy="1398.16" rx="257.45" ry="75.78"/>
							<path class="st2" d="M1210.51,1450.27c-58.78,0-114.66-6.44-157.35-18.13c-18.76-5.13-34.04-11.03-45.42-17.53
								c-5.94-3.4-9.49-9.52-9.48-16.39c0.01-6.96,3.62-13.16,9.67-16.6c11.08-6.3,25.83-12.04,43.83-17.05
								c41.8-11.65,96.82-18.22,154.91-18.5c60.29-0.32,117.68,6.16,161.33,18.12c18.62,5.1,33.82,10.95,45.18,17.4
								c6.06,3.44,9.69,9.65,9.69,16.59c0,6.92-3.6,13.11-9.64,16.54c-11.08,6.3-25.82,12.04-43.82,17.05
								c-41.8,11.65-96.82,18.22-154.91,18.51C1213.17,1450.26,1211.83,1450.27,1210.51,1450.27z M1210.67,1355.48
								c-1.31,0-2.63,0-3.95,0.01c-57.28,0.28-111.41,6.73-152.43,18.16c-17.26,4.81-31.28,10.25-41.7,16.17
								c-3.06,1.74-4.89,4.88-4.9,8.41c0,3.43,1.76,6.49,4.72,8.18c10.69,6.11,25.24,11.7,43.23,16.63
								c42.85,11.73,99.35,18.13,158.8,17.78c57.28-0.28,111.42-6.73,152.43-18.16c17.25-4.81,31.28-10.25,41.69-16.16
								c3.05-1.73,4.87-4.85,4.87-8.33c0-3.51-1.84-6.64-4.91-8.39c-10.68-6.06-25.15-11.61-43.01-16.5
								C1323.61,1361.8,1268.62,1355.48,1210.67,1355.48z"/>
						</g>
						<g>
							<path class="st1" d="M1468,1381.58v-67.14h-146.64c-34.82-4.89-73.91-7.55-115.11-7.35c-38.13,0.19-74.18,2.81-106.48,7.35
								h-146.6v67.35c-0.04,0.78-0.04,1.56,0,2.34c2.39,41.84,119.58,75.19,261.74,74.49
								C1357.08,1457.91,1470.39,1423.42,1468,1381.58z"/>
							<ellipse class="st2" cx="1210.58" cy="1315.71" rx="257.45" ry="75.78"/>
							<path class="st2" d="M1210.51,1367.82c-58.78,0-114.66-6.44-157.35-18.13c-18.76-5.14-34.04-11.03-45.42-17.53
								c-5.94-3.4-9.49-9.52-9.48-16.39c0.01-6.96,3.62-13.16,9.67-16.6c11.08-6.3,25.83-12.04,43.83-17.05
								c41.8-11.65,96.81-18.22,154.91-18.5c60.29-0.33,117.68,6.16,161.33,18.12c18.62,5.1,33.82,10.95,45.18,17.4
								c6.07,3.44,9.69,9.65,9.69,16.59c0,6.92-3.6,13.1-9.64,16.54c-11.08,6.3-25.82,12.03-43.82,17.05
								c-41.8,11.65-96.82,18.22-154.91,18.51C1213.17,1367.81,1211.83,1367.82,1210.51,1367.82z M1210.67,1273.04
								c-1.31,0-2.63,0-3.95,0.01c-57.29,0.28-111.42,6.73-152.43,18.16c-17.26,4.81-31.28,10.25-41.7,16.17
								c-3.06,1.74-4.89,4.88-4.9,8.41c0,3.43,1.76,6.49,4.72,8.18c10.69,6.11,25.24,11.7,43.23,16.63
								c42.85,11.73,99.35,18.13,158.8,17.78c57.28-0.28,111.42-6.73,152.43-18.16c17.26-4.81,31.28-10.25,41.69-16.16
								c3.05-1.73,4.87-4.85,4.87-8.33c0-3.51-1.84-6.64-4.91-8.39c-10.68-6.06-25.15-11.61-43.01-16.5
								C1323.61,1279.36,1268.62,1273.04,1210.67,1273.04z"/>
						</g>
						<g>
							<path class="st1" d="M1468,1299.13v-67.14h-146.64c-34.82-4.89-73.91-7.55-115.11-7.35c-38.13,0.19-74.18,2.81-106.48,7.35
								h-146.6v67.35c-0.04,0.78-0.04,1.56,0,2.34c2.39,41.84,119.58,75.19,261.74,74.49
								C1357.08,1375.46,1470.39,1340.97,1468,1299.13z"/>
							<ellipse class="st2" cx="1210.58" cy="1233.26" rx="257.45" ry="75.78"/>
							<path class="st2" d="M1210.51,1285.37c-58.78,0-114.66-6.44-157.35-18.13c-18.76-5.14-34.04-11.03-45.42-17.53
								c-5.94-3.4-9.49-9.52-9.48-16.39c0.01-6.96,3.62-13.16,9.67-16.6c11.08-6.3,25.83-12.04,43.83-17.05
								c41.8-11.65,96.81-18.22,154.91-18.5c60.29-0.27,117.68,6.16,161.33,18.12c18.62,5.1,33.82,10.95,45.18,17.4
								c6.07,3.44,9.69,9.64,9.69,16.59c0,6.92-3.6,13.1-9.64,16.54c-11.08,6.3-25.82,12.03-43.82,17.05
								c-41.8,11.65-96.82,18.22-154.91,18.51C1213.17,1285.37,1211.83,1285.37,1210.51,1285.37z M1210.67,1190.59
								c-1.31,0-2.63,0-3.95,0.01c-57.29,0.28-111.42,6.73-152.43,18.16c-17.26,4.81-31.28,10.25-41.7,16.17
								c-3.06,1.74-4.89,4.88-4.9,8.41c0,3.43,1.76,6.49,4.72,8.18c10.69,6.11,25.24,11.7,43.23,16.63
								c42.85,11.73,99.35,18.12,158.8,17.78c57.28-0.28,111.42-6.73,152.43-18.16c17.26-4.81,31.28-10.25,41.69-16.16
								c3.05-1.73,4.87-4.85,4.87-8.33c0-3.51-1.84-6.64-4.91-8.39c-10.68-6.06-25.15-11.61-43.01-16.5
								C1323.61,1196.91,1268.62,1190.59,1210.67,1190.59z"/>
						</g>
						<g>
							<path class="st1" d="M1468,1214.93v-67.14h-146.64c-34.82-4.89-73.91-7.55-115.11-7.35c-38.13,0.19-74.18,2.81-106.48,7.35
								h-146.6v67.35c-0.04,0.78-0.04,1.56,0,2.34c2.39,41.84,119.58,75.19,261.74,74.49
								C1357.08,1291.26,1470.39,1256.77,1468,1214.93z"/>
							<ellipse class="st2" cx="1210.58" cy="1149.06" rx="257.45" ry="75.78"/>
							<path class="st2" d="M1210.51,1201.17c-58.78,0-114.66-6.44-157.35-18.13c-18.76-5.13-34.04-11.03-45.42-17.53
								c-5.94-3.39-9.49-9.52-9.48-16.39c0.01-6.96,3.62-13.16,9.67-16.6c11.08-6.3,25.83-12.04,43.83-17.05
								c41.8-11.65,96.82-18.22,154.91-18.5c60.29-0.28,117.68,6.16,161.33,18.12c18.62,5.1,33.82,10.95,45.18,17.4
								c6.06,3.44,9.69,9.64,9.69,16.59c0,6.92-3.6,13.11-9.64,16.54c-11.08,6.3-25.82,12.04-43.82,17.05
								c-41.8,11.65-96.82,18.22-154.91,18.51C1213.17,1201.17,1211.83,1201.17,1210.51,1201.17z M1210.67,1106.39
								c-1.31,0-2.63,0-3.95,0.01c-57.28,0.28-111.41,6.73-152.43,18.16c-17.26,4.81-31.28,10.25-41.7,16.17
								c-3.06,1.74-4.89,4.88-4.9,8.41c0,3.43,1.76,6.49,4.72,8.18c10.69,6.11,25.24,11.7,43.23,16.63
								c42.85,11.73,99.35,18.11,158.8,17.78c57.28-0.28,111.42-6.73,152.43-18.16c17.25-4.81,31.28-10.25,41.69-16.16
								c3.05-1.73,4.87-4.85,4.87-8.33c0-3.51-1.84-6.64-4.91-8.39c-10.68-6.06-25.15-11.61-43.01-16.5
								C1323.61,1112.71,1268.62,1106.39,1210.67,1106.39z"/>
						</g>
						<g>
							<path class="st1" d="M1468,1132.48v-67.14h-146.64c-34.82-4.89-73.91-7.55-115.11-7.35c-38.13,0.19-74.18,2.81-106.48,7.35
								h-146.6v67.35c-0.04,0.78-0.04,1.56,0,2.34c2.39,41.84,119.58,75.19,261.74,74.49
								C1357.08,1208.82,1470.39,1174.32,1468,1132.48z"/>
							<ellipse class="st2" cx="1210.58" cy="1066.61" rx="257.45" ry="75.78"/>
							<path class="st2" d="M1210.51,1118.72c-58.78,0-114.66-6.44-157.35-18.13c-18.76-5.13-34.04-11.03-45.42-17.53
								c-5.94-3.39-9.49-9.52-9.48-16.39c0.01-6.96,3.62-13.16,9.67-16.6c11.08-6.3,25.83-12.04,43.83-17.05
								c41.8-11.65,96.81-18.22,154.91-18.5c60.29-0.3,117.68,6.16,161.33,18.12c18.62,5.1,33.82,10.95,45.18,17.4
								c6.06,3.44,9.69,9.64,9.69,16.59c0,6.92-3.6,13.11-9.64,16.54c-11.08,6.3-25.82,12.04-43.82,17.05
								c-41.8,11.65-96.82,18.22-154.91,18.51C1213.17,1118.72,1211.83,1118.72,1210.51,1118.72z M1210.67,1023.94
								c-1.31,0-2.63,0-3.95,0.01c-57.29,0.28-111.42,6.73-152.43,18.16c-17.26,4.81-31.28,10.25-41.7,16.17
								c-3.06,1.74-4.89,4.88-4.9,8.41c0,3.43,1.76,6.49,4.72,8.18c10.69,6.11,25.24,11.7,43.23,16.63
								c42.85,11.73,99.35,18.11,158.8,17.78c57.28-0.28,111.42-6.73,152.43-18.16c17.25-4.81,31.28-10.25,41.69-16.16
								c3.05-1.73,4.87-4.85,4.87-8.33c0-3.51-1.84-6.64-4.91-8.39c-10.68-6.06-25.15-11.61-43.01-16.5
								C1323.61,1030.26,1268.62,1023.94,1210.67,1023.94z"/>
						</g>
					</g>
				</g>
				<g>
					<g>
						<path class="st1" d="M1782.39,1667.31v-67.14h-146.64c-34.82-4.89-73.91-7.55-115.11-7.35c-38.13,0.19-74.18,2.81-106.48,7.35
							h-146.61v67.35c-0.04,0.78-0.04,1.56,0,2.34c2.39,41.84,119.58,75.19,261.74,74.49
							C1671.46,1743.65,1784.78,1709.16,1782.39,1667.31z"/>
						<ellipse class="st2" cx="1524.97" cy="1601.45" rx="257.45" ry="75.78"/>
						<path class="st2" d="M1524.89,1653.56c-58.78,0-114.66-6.44-157.35-18.13c-18.76-5.14-34.04-11.03-45.42-17.53
							c-5.94-3.4-9.49-9.52-9.48-16.38c0.01-6.96,3.62-13.17,9.67-16.6c11.08-6.3,25.83-12.04,43.83-17.05
							c41.8-11.64,96.81-18.22,154.91-18.5c60.26-0.34,117.68,6.16,161.34,18.12c18.62,5.1,33.82,10.95,45.18,17.4
							c6.06,3.44,9.69,9.65,9.69,16.59c0,6.92-3.6,13.11-9.64,16.54c-11.08,6.3-25.82,12.04-43.82,17.05
							c-41.8,11.65-96.82,18.22-154.91,18.51C1527.56,1653.55,1526.22,1653.56,1524.89,1653.56z M1525.05,1558.78
							c-1.31,0-2.63,0-3.95,0.01c-57.29,0.28-111.42,6.73-152.43,18.16c-17.26,4.81-31.28,10.25-41.7,16.17
							c-3.06,1.74-4.89,4.89-4.9,8.41c0,3.43,1.76,6.49,4.72,8.18c10.69,6.11,25.24,11.7,43.23,16.63
							c42.85,11.73,99.35,18.14,158.8,17.78c57.28-0.28,111.42-6.73,152.43-18.16c17.25-4.81,31.28-10.25,41.69-16.16
							c3.05-1.73,4.87-4.85,4.87-8.33c0-3.51-1.84-6.64-4.91-8.39c-10.68-6.06-25.15-11.61-43.01-16.5
							C1638,1565.09,1583.01,1558.78,1525.05,1558.78z"/>
					</g>
					<g>
						<path class="st1" d="M1782.39,1586.99v-67.14h-146.64c-34.82-4.89-73.91-7.55-115.11-7.35c-38.13,0.19-74.18,2.81-106.48,7.35
							h-146.61v67.35c-0.04,0.78-0.04,1.56,0,2.34c2.39,41.84,119.58,75.19,261.74,74.49
							C1671.46,1663.33,1784.78,1628.84,1782.39,1586.99z"/>
						<ellipse class="st2" cx="1524.97" cy="1521.13" rx="257.45" ry="75.78"/>
						<path class="st2" d="M1524.89,1573.24c-58.78,0-114.66-6.44-157.35-18.13c-18.76-5.14-34.04-11.03-45.42-17.53
							c-5.94-3.4-9.49-9.52-9.48-16.38c0.01-6.96,3.62-13.17,9.67-16.6c11.08-6.3,25.83-12.04,43.83-17.05
							c41.8-11.64,96.81-18.22,154.91-18.5c60.26-0.34,117.68,6.16,161.34,18.12c18.62,5.1,33.82,10.95,45.18,17.4
							c6.06,3.44,9.69,9.64,9.69,16.59c0,6.92-3.6,13.11-9.64,16.54c-11.08,6.3-25.82,12.04-43.82,17.05
							c-41.8,11.65-96.82,18.22-154.91,18.51C1527.56,1573.23,1526.22,1573.24,1524.89,1573.24z M1525.05,1478.46
							c-1.31,0-2.63,0-3.95,0.01c-57.29,0.28-111.42,6.73-152.43,18.16c-17.26,4.81-31.28,10.25-41.7,16.17
							c-3.06,1.74-4.89,4.89-4.9,8.41c0,3.43,1.76,6.49,4.72,8.18c10.69,6.11,25.24,11.7,43.23,16.63
							c42.85,11.73,99.35,18.14,158.8,17.78c57.28-0.28,111.42-6.73,152.43-18.16c17.25-4.81,31.28-10.25,41.69-16.16
							c3.05-1.73,4.87-4.85,4.87-8.33c0-3.51-1.84-6.64-4.91-8.39c-10.68-6.06-25.15-11.61-43.01-16.5
							C1638,1484.77,1583.01,1478.46,1525.05,1478.46z"/>
					</g>
					<g>
						<path class="st1" d="M1782.39,1504.55v-67.14h-146.64c-34.82-4.89-73.91-7.55-115.11-7.35c-38.13,0.19-74.18,2.81-106.48,7.35
							h-146.61v67.35c-0.04,0.78-0.04,1.56,0,2.34c2.39,41.84,119.58,75.19,261.74,74.49
							C1671.46,1580.88,1784.78,1546.39,1782.39,1504.55z"/>
						<ellipse class="st2" cx="1524.97" cy="1438.68" rx="257.45" ry="75.78"/>
						<path class="st2" d="M1524.89,1490.79c-58.78,0-114.66-6.44-157.35-18.13c-18.76-5.13-34.04-11.03-45.42-17.53
							c-5.94-3.4-9.49-9.52-9.48-16.39c0.01-6.96,3.62-13.16,9.67-16.6c11.08-6.3,25.83-12.04,43.83-17.05
							c41.8-11.65,96.82-18.22,154.91-18.5c60.29-0.32,117.68,6.16,161.34,18.12c18.62,5.1,33.82,10.95,45.18,17.4
							c6.06,3.44,9.69,9.65,9.69,16.59c0,6.92-3.6,13.11-9.64,16.54c-11.08,6.3-25.82,12.04-43.82,17.05
							c-41.8,11.65-96.82,18.22-154.91,18.51C1527.56,1490.79,1526.22,1490.79,1524.89,1490.79z M1525.05,1396.01
							c-1.31,0-2.63,0-3.95,0.01c-57.28,0.28-111.41,6.73-152.43,18.16c-17.26,4.81-31.28,10.25-41.7,16.17
							c-3.06,1.74-4.89,4.88-4.9,8.41c0,3.43,1.76,6.49,4.72,8.18c10.69,6.11,25.24,11.7,43.23,16.63
							c42.85,11.73,99.35,18.13,158.8,17.78c57.28-0.28,111.42-6.73,152.43-18.16c17.25-4.81,31.28-10.25,41.69-16.16
							c3.05-1.73,4.87-4.85,4.87-8.33c0-3.51-1.84-6.64-4.91-8.39c-10.68-6.06-25.15-11.61-43.01-16.5
							C1638,1402.33,1583,1396.01,1525.05,1396.01z"/>
					</g>
					<g>
						<path class="st1" d="M1782.39,1422.1v-67.14h-146.64c-34.82-4.89-73.91-7.55-115.11-7.35c-38.13,0.19-74.18,2.81-106.48,7.35
							h-146.61v67.35c-0.04,0.78-0.04,1.56,0,2.34c2.39,41.84,119.58,75.19,261.74,74.49
							C1671.46,1498.43,1784.78,1463.94,1782.39,1422.1z"/>
						<ellipse class="st2" cx="1524.97" cy="1356.23" rx="257.45" ry="75.78"/>
						<path class="st2" d="M1524.89,1408.34c-58.78,0-114.66-6.44-157.35-18.13c-18.76-5.14-34.04-11.03-45.42-17.53
							c-5.94-3.4-9.49-9.52-9.48-16.39c0.01-6.96,3.62-13.16,9.67-16.6c11.08-6.3,25.83-12.04,43.83-17.05
							c41.8-11.65,96.81-18.22,154.91-18.5c60.29-0.33,117.68,6.16,161.34,18.12c18.62,5.1,33.82,10.95,45.18,17.4
							c6.07,3.44,9.69,9.65,9.69,16.59c0,6.92-3.6,13.1-9.64,16.54c-11.08,6.3-25.82,12.03-43.82,17.05
							c-41.8,11.65-96.82,18.22-154.91,18.51C1527.56,1408.34,1526.22,1408.34,1524.89,1408.34z M1525.05,1313.56
							c-1.31,0-2.63,0-3.95,0.01c-57.29,0.28-111.42,6.73-152.43,18.16c-17.26,4.81-31.28,10.25-41.7,16.17
							c-3.06,1.74-4.89,4.88-4.9,8.41c0,3.43,1.76,6.49,4.72,8.18c10.69,6.11,25.24,11.7,43.23,16.63
							c42.85,11.73,99.35,18.13,158.8,17.78c57.28-0.28,111.42-6.73,152.43-18.16c17.26-4.81,31.28-10.25,41.69-16.16
							c3.05-1.73,4.87-4.85,4.87-8.33c0-3.51-1.84-6.64-4.91-8.39c-10.68-6.06-25.15-11.61-43.01-16.5
							C1638,1319.88,1583,1313.56,1525.05,1313.56z"/>
					</g>
				</g>
			</g>
		</g>
	</g>
	<path class="st2" d="M2392.05,623.81c0-5.65-24.32-10.34-56.23-11.24c-0.9-31.91-5.59-56.23-11.24-56.23s-10.34,24.32-11.24,56.23
		c-31.91,0.9-56.23,5.59-56.23,11.24c0,5.65,24.32,10.34,56.23,11.24c0.9,31.91,5.59,56.23,11.24,56.23s10.34-24.32,11.24-56.23
		C2367.73,634.15,2392.05,629.46,2392.05,623.81z"/>
	<path class="st2" d="M2545.15,508.83c0-3.98-17.13-7.28-39.6-7.92c-0.64-22.47-3.94-39.6-7.92-39.6s-7.28,17.13-7.92,39.6
		c-22.47,0.64-39.6,3.94-39.6,7.92s17.13,7.28,39.6,7.92c0.64,22.47,3.94,39.6,7.92,39.6s7.28-17.13,7.92-39.6
		C2528.02,516.11,2545.15,512.81,2545.15,508.83z"/>
	<path class="st2" d="M1775.34,216.95c0-3.98-17.13-7.28-39.6-7.92c-0.64-22.47-3.94-39.6-7.92-39.6s-7.28,17.13-7.92,39.6
		c-22.47,0.64-39.6,3.94-39.6,7.92s17.13,7.28,39.6,7.92c0.64,22.47,3.94,39.6,7.92,39.6s7.28-17.13,7.92-39.6
		C1758.21,224.23,1775.34,220.93,1775.34,216.95z"/>
	<path class="st2" d="M2063.27,318.73c0-8.52-36.68-15.6-84.82-16.96c-1.36-48.14-8.44-84.82-16.96-84.82s-15.6,36.68-16.96,84.82
		c-48.14,1.36-84.82,8.44-84.82,16.96s36.68,15.6,84.82,16.96c1.36,48.14,8.44,84.82,16.96,84.82s15.59-36.68,16.96-84.82
		C2026.59,334.33,2063.27,327.25,2063.27,318.73z"/>
	<path class="st2" d="M1297.79,373c0-5.94-25.55-10.86-59.09-11.81c-0.95-33.53-5.88-59.09-11.81-59.09s-10.86,25.55-11.81,59.09
		c-33.53,0.95-59.09,5.88-59.09,11.81c0,5.94,25.55,10.86,59.09,11.81c0.95,33.53,5.88,59.09,11.81,59.09s10.86-25.55,11.81-59.09
		C1272.24,383.86,1297.79,378.93,1297.79,373z"/>
	<path class="st2" d="M2895.02,1149.23c0-6.43-27.7-11.77-64.04-12.8c-1.03-36.35-6.37-64.04-12.8-64.04s-11.77,27.7-12.8,64.04
		c-36.35,1.03-64.04,6.37-64.04,12.8s27.7,11.77,64.04,12.8c1.03,36.35,6.37,64.04,12.8,64.04s11.77-27.7,12.8-64.04
		C2867.32,1161.01,2895.02,1155.67,2895.02,1149.23z"/>
	<path class="st2" d="M364.1,1213.76c0-6.43-27.7-11.77-64.04-12.8c-1.03-36.35-6.37-64.04-12.8-64.04s-11.77,27.7-12.8,64.04
		c-36.35,1.03-64.04,6.37-64.04,12.8s27.7,11.77,64.04,12.8c1.03,36.35,6.37,64.04,12.8,64.04s11.77-27.7,12.8-64.04
		C336.4,1225.53,364.1,1220.19,364.1,1213.76z"/>
	<path class="st2" d="M2634.12,846.66c0-9.93-42.73-18.16-98.79-19.75c-1.59-56.07-9.83-98.79-19.75-98.79s-18.16,42.73-19.75,98.79
		c-56.07,1.59-98.79,9.83-98.79,19.75c0,9.93,42.73,18.16,98.79,19.75c1.59,56.07,9.83,98.79,19.75,98.79s18.16-42.73,19.75-98.79
		C2591.4,864.83,2634.12,856.59,2634.12,846.66z"/>
	<g>
		<path class="st2" d="M860.37,495.02c0-10.22-43.98-18.7-101.69-20.33C757.05,416.97,748.57,373,738.35,373
			c-10.22,0-18.7,43.98-20.33,101.69c-57.71,1.64-101.69,10.12-101.69,20.33c0,10.22,43.98,18.7,101.69,20.33
			c1.64,57.71,10.12,101.69,20.33,101.69c10.22,0,18.7-43.98,20.33-101.69C816.39,513.71,860.37,505.23,860.37,495.02z"/>
		<path class="st2" d="M539.66,582.9c0-3.98-17.13-7.28-39.6-7.92c-0.64-22.47-3.94-39.6-7.92-39.6s-7.28,17.13-7.92,39.6
			c-22.47,0.64-39.6,3.94-39.6,7.92s17.13,7.28,39.6,7.92c0.64,22.47,3.94,39.6,7.92,39.6s7.28-17.13,7.92-39.6
			C522.53,590.18,539.66,586.88,539.66,582.9z"/>
		<path class="st2" d="M699.56,853.08c0-6.97-30-12.75-69.36-13.87c-1.12-39.36-6.9-69.36-13.87-69.36s-12.75,30-13.87,69.36
			c-39.36,1.12-69.36,6.9-69.36,13.87s30,12.75,69.36,13.87c1.12,39.36,6.9,69.36,13.87,69.36s12.75-30,13.87-69.36
			C669.56,865.83,699.56,860.04,699.56,853.08z"/>
	</g>
</g>
</svg>
