<svg width="1232" height="604" viewBox="0 0 1232 604" fill="none" xmlns="http://www.w3.org/2000/svg">
<g filter="url(#filter0_di_194_289)">
<rect x="26" y="11" width="1180" height="552" rx="276" fill="url(#paint0_radial_194_289)" shape-rendering="crispEdges"/>
</g>
<rect x="117" y="102" width="998" height="370" rx="181" stroke="#153D22" stroke-width="2" stroke-dasharray="2 2"/>
<rect x="125" y="110" width="982" height="354" rx="177" stroke="#153D22" stroke-width="2" stroke-dasharray="2 2"/>
<g filter="url(#filter1_d_194_289)">
<path fill-rule="evenodd" clip-rule="evenodd" d="M950 40.1094H282C155.527 40.1094 53 150.646 53 287C53 423.354 155.527 533.891 282 533.891H950C1076.47 533.891 1179 423.354 1179 287C1179 150.646 1076.47 40.1094 950 40.1094ZM282 11C140.615 11 26 134.569 26 287C26 439.431 140.615 563 282 563H950C1091.38 563 1206 439.431 1206 287C1206 134.569 1091.38 11 950 11H282Z" fill="url(#paint1_linear_194_289)"/>
<path d="M950 39.6094H282C155.216 39.6094 52.5 150.406 52.5 287C52.5 423.594 155.216 534.391 282 534.391H950C1076.78 534.391 1179.5 423.594 1179.5 287C1179.5 150.406 1076.78 39.6094 950 39.6094ZM26.5 287C26.5 134.809 140.926 11.5 282 11.5H950C1091.07 11.5 1205.5 134.809 1205.5 287C1205.5 439.191 1091.07 562.5 950 562.5H282C140.926 562.5 26.5 439.191 26.5 287Z" stroke="#1A8A47"/>
</g>
<g filter="url(#filter2_i_194_289)">
<path d="M623.627 290.259L643.632 290.24L643.612 257.032L643.612 257.027C643.549 244.109 643.617 234.049 644.79 225.84C646.041 217.084 648.388 211.809 652.066 208.131C658.304 201.893 666.222 202.513 670.44 206.732C672.985 209.276 674.405 213.359 673.898 217.623L672.398 230.236L685.012 228.737C689.276 228.23 693.358 229.65 695.903 232.194C700.121 236.413 700.741 244.331 694.504 250.568C690.825 254.246 685.55 256.593 676.795 257.844C669.016 258.956 659.574 259.075 647.614 259.032L647.631 279.039C659.55 279.086 670.375 278.97 679.625 277.648C690.594 276.081 700.704 272.66 708.649 264.714C721.519 251.844 723.21 231.21 710.048 218.048C705.718 213.718 700.311 210.886 694.583 209.542L693.376 209.259L693.092 208.052C691.748 202.324 688.917 196.917 684.586 192.586C671.424 179.424 650.79 181.116 637.921 193.985C629.975 201.931 626.554 212.041 624.986 223.01C623.591 232.771 623.539 244.287 623.605 256.992L623.605 257L623.627 290.259Z" fill="#062010" fill-opacity="0.2"/>
<path d="M612.394 314.266L612.376 294.261L645.634 294.24L645.643 294.24C658.348 294.174 669.863 294.226 679.625 295.621C690.594 297.188 700.704 300.609 708.649 308.555C721.519 321.425 723.21 342.059 710.048 355.221C705.718 359.551 700.311 362.383 694.583 363.727L693.376 364.01L693.092 365.217C691.748 370.945 688.917 376.352 684.586 380.683C671.424 393.845 650.79 392.154 637.921 379.284C629.975 371.338 626.554 361.228 624.986 350.259C623.665 341.01 623.549 330.185 623.596 318.266L643.603 318.249C643.559 330.209 643.679 339.65 644.79 347.429C646.041 356.185 648.388 361.46 652.066 365.138C658.304 371.376 666.222 370.756 670.44 366.537C672.985 363.993 674.405 359.91 673.898 355.646L672.398 343.033L685.012 344.533C689.276 345.04 693.358 343.62 695.903 341.075C700.121 336.856 700.741 328.938 694.504 322.701C690.825 319.023 685.55 316.676 676.795 315.425C668.586 314.252 658.526 314.184 645.607 314.246L645.602 314.246L612.394 314.266Z" fill="#062010" fill-opacity="0.2"/>
<path d="M588.368 283.029L608.373 283.011L608.395 316.269L608.395 316.277C608.461 328.982 608.409 340.498 607.014 350.259C605.446 361.228 602.025 371.338 594.079 379.284C581.21 392.154 560.576 393.845 547.414 380.683C543.083 376.352 540.252 370.945 538.908 365.217L538.624 364.01L537.417 363.727C531.689 362.383 526.282 359.551 521.952 355.221C508.79 342.059 510.481 321.425 523.351 308.555C531.296 300.609 541.406 297.188 552.375 295.621C561.625 294.299 572.45 294.183 584.369 294.23L584.386 314.237C572.426 314.194 562.984 314.313 555.205 315.425C546.45 316.676 541.175 319.023 537.496 322.701C531.259 328.938 531.879 336.856 536.097 341.075C538.642 343.62 542.724 345.04 546.988 344.533L559.602 343.033L558.102 355.646C557.595 359.91 559.015 363.993 561.56 366.537C565.778 370.756 573.696 371.376 579.934 365.138C583.612 361.46 585.959 356.185 587.21 347.429C588.383 339.22 588.451 329.156 588.388 316.237L588.368 283.029Z" fill="#062010" fill-opacity="0.2"/>
<path d="M619.606 259.003L619.624 279.008L586.366 279.03L586.357 279.03C573.653 279.095 562.137 279.043 552.375 277.648C541.406 276.081 531.296 272.66 523.351 264.714C510.481 251.844 508.79 231.21 521.952 218.048C526.282 213.718 531.689 210.886 537.417 209.542L538.624 209.259L538.908 208.052C540.252 202.324 543.083 196.917 547.414 192.586C560.576 179.424 581.21 181.116 594.079 193.985C602.025 201.931 605.446 212.041 607.014 223.01C608.335 232.26 608.451 243.084 608.404 255.003L588.397 255.02C588.441 243.06 588.321 233.619 587.21 225.84C585.959 217.084 583.612 211.809 579.934 208.131C573.696 201.893 565.778 202.513 561.56 206.732C559.015 209.276 557.595 213.359 558.102 217.623L559.602 230.236L546.988 228.737C542.724 228.23 538.642 229.65 536.097 232.194C531.879 236.413 531.259 244.331 537.496 250.568C541.175 254.246 546.45 256.593 555.205 257.844C563.414 259.017 573.474 259.085 586.391 259.023L586.398 259.023L619.606 259.003Z" fill="#062010" fill-opacity="0.2"/>
</g>
<defs>
<filter id="filter0_di_194_289" x="0" y="0" width="1232" height="604" filterUnits="userSpaceOnUse" color-interpolation-filters="sRGB">
<feFlood flood-opacity="0" result="BackgroundImageFix"/>
<feColorMatrix in="SourceAlpha" type="matrix" values="0 0 0 0 0 0 0 0 0 0 0 0 0 0 0 0 0 0 127 0" result="hardAlpha"/>
<feOffset dy="15"/>
<feGaussianBlur stdDeviation="13"/>
<feComposite in2="hardAlpha" operator="out"/>
<feColorMatrix type="matrix" values="0 0 0 0 0 0 0 0 0 0 0 0 0 0 0 0 0 0 0.25 0"/>
<feBlend mode="normal" in2="BackgroundImageFix" result="effect1_dropShadow_194_289"/>
<feBlend mode="normal" in="SourceGraphic" in2="effect1_dropShadow_194_289" result="shape"/>
<feColorMatrix in="SourceAlpha" type="matrix" values="0 0 0 0 0 0 0 0 0 0 0 0 0 0 0 0 0 0 127 0" result="hardAlpha"/>
<feMorphology radius="32" operator="erode" in="SourceAlpha" result="effect2_innerShadow_194_289"/>
<feOffset dy="16"/>
<feGaussianBlur stdDeviation="9"/>
<feComposite in2="hardAlpha" operator="arithmetic" k2="-1" k3="1"/>
<feColorMatrix type="matrix" values="0 0 0 0 0 0 0 0 0 0 0 0 0 0 0 0 0 0 0.4 0"/>
<feBlend mode="normal" in2="shape" result="effect2_innerShadow_194_289"/>
</filter>
<filter id="filter1_d_194_289" x="18" y="3" width="1196" height="568" filterUnits="userSpaceOnUse" color-interpolation-filters="sRGB">
<feFlood flood-opacity="0" result="BackgroundImageFix"/>
<feColorMatrix in="SourceAlpha" type="matrix" values="0 0 0 0 0 0 0 0 0 0 0 0 0 0 0 0 0 0 127 0" result="hardAlpha"/>
<feOffset/>
<feGaussianBlur stdDeviation="4"/>
<feComposite in2="hardAlpha" operator="out"/>
<feColorMatrix type="matrix" values="0 0 0 0 0.103819 0 0 0 0 0.541667 0 0 0 0 0.278958 0 0 0 1 0"/>
<feBlend mode="normal" in2="BackgroundImageFix" result="effect1_dropShadow_194_289"/>
<feBlend mode="normal" in="SourceGraphic" in2="effect1_dropShadow_194_289" result="shape"/>
</filter>
<filter id="filter2_i_194_289" x="512.855" y="183.49" width="206.29" height="206.29" filterUnits="userSpaceOnUse" color-interpolation-filters="sRGB">
<feFlood flood-opacity="0" result="BackgroundImageFix"/>
<feBlend mode="normal" in="SourceGraphic" in2="BackgroundImageFix" result="shape"/>
<feColorMatrix in="SourceAlpha" type="matrix" values="0 0 0 0 0 0 0 0 0 0 0 0 0 0 0 0 0 0 127 0" result="hardAlpha"/>
<feOffset/>
<feGaussianBlur stdDeviation="3"/>
<feComposite in2="hardAlpha" operator="arithmetic" k2="-1" k3="1"/>
<feColorMatrix type="matrix" values="0 0 0 0 0 0 0 0 0 0 0 0 0 0 0 0 0 0 0.1 0"/>
<feBlend mode="normal" in2="shape" result="effect1_innerShadow_194_289"/>
</filter>
<radialGradient id="paint0_radial_194_289" cx="0" cy="0" r="1" gradientUnits="userSpaceOnUse" gradientTransform="translate(616 287) rotate(90) scale(276 590)">
<stop stop-color="#286739" stop-opacity="0.74"/>
<stop offset="1" stop-color="#062010" stop-opacity="0.53"/>
</radialGradient>
<linearGradient id="paint1_linear_194_289" x1="616" y1="11" x2="616" y2="563" gradientUnits="userSpaceOnUse">
<stop stop-color="#286739"/>
<stop offset="1" stop-color="#1A8A47"/>
</linearGradient>
</defs>
</svg>
